<?xml version="1.0" encoding="UTF-8"?> <svg xmlns="http://www.w3.org/2000/svg" xmlns:xlink="http://www.w3.org/1999/xlink" viewBox="0 0 263.38 191.53"> <defs> <style>.cls-1{isolation:isolate;}.cls-2{fill:#6772ff;}.cls-3{fill:#becdd4;}.cls-3,.cls-35,.cls-57,.cls-58,.cls-73,.cls-76,.cls-81{mix-blend-mode:multiply;}.cls-4{fill:#6b6164;}.cls-5{fill:#0f0e1b;}.cls-6{fill:#f3f1ee;}.cls-7{fill:#e4dfd9;}.cls-8{fill:#2d2c37;}.cls-9{fill:#504f58;}.cls-10{fill:#c2c7d6;}.cls-11{fill:#a5acc2;}.cls-12{fill:#cfd9e7;}.cls-13{fill:#b5bbcd;}.cls-14{fill:#e1e7ef;}.cls-15{fill:#cdc6bc;}.cls-16{fill:#7572a4;}.cls-17{fill:#9b897f;}.cls-18{fill:#ff9a2e;}.cls-19{fill:#f9f1ec;}.cls-20{fill:#c9c3b9;}.cls-21{fill:#3f3436;}.cls-22{fill:#23222d;}.cls-23{fill:#393843;}.cls-24{fill:#c4c2bb;}.cls-25{fill:#b7b4a9;}.cls-26{fill:#d5d2c9;}.cls-27{fill:#cac6bc;}.cls-28{fill:#dddddb;}.cls-29{fill:#b0ac9e;}.cls-30{fill:#9d9783;}.cls-31{fill:#ded8d1;}.cls-32{fill:#b5aa9c;}.cls-33{fill:#9da1bf;}.cls-34{fill:#e06f2e;}.cls-35{fill:#f2f1f0;}.cls-36{fill:#573f3f;}.cls-37{fill:#ebe7e3;}.cls-38{fill:#554d4e;}.cls-39{fill:#856f63;}.cls-40{fill:#c99a6b;}.cls-41{fill:#ae835b;}.cls-42{fill:#d9af84;}.cls-43{fill:#ebcbab;}.cls-44{fill:#e8b687;}.cls-45{fill:#fcfbfa;}.cls-46{fill:#f0ece9;}.cls-47{fill:#493f41;}.cls-48{fill:#e07427;}.cls-49{fill:#d83b2e;}.cls-50{fill:#ff512e;}.cls-51{fill:#de4231;}.cls-52{fill:#fd6039;}.cls-53{fill:#de4037;}.cls-54{fill:#ededed;}.cls-55{fill:#fbf9ff;}.cls-56{fill:#e0e0e0;}.cls-57{fill:#eefaf9;}.cls-58{fill:#f5ec73;}.cls-59{fill:#b08480;}.cls-60{fill:#e9e5e1;}.cls-61{fill:#d9d3cc;}.cls-62{fill:#f5b53d;}.cls-63{fill:#898184;}.cls-64{fill:#87623f;}.cls-65{fill:#9c754e;}.cls-66{fill:#54493e;mix-blend-mode:screen;}.cls-67{fill:#d1a986;}.cls-68{fill:#febfbf;}.cls-69{fill:url(#Безымянный_градиент_46);}.cls-70{fill:#ffdc6e;}.cls-71{fill:#5c6467;}.cls-72{fill:#7282b5;}.cls-73{fill:#e8d0c8;}.cls-74{fill:#a0abcd;}.cls-75{fill:#fdd249;}.cls-76{fill:#dedede;}.cls-77{fill:#ffadb7;}.cls-78{fill:url(#Безымянный_градиент_46-2);}.cls-79{fill:#754554;}.cls-80{fill:#fecb4c;}.cls-81{fill:#fcf5e8;}.cls-82{fill:#725e6d;}.cls-83{fill:url(#Безымянный_градиент_43);}.cls-84{fill:#a25900;}.cls-85{fill:#3b4549;}.cls-86{fill:#ce7400;}.cls-87{fill:#eda600;}.cls-88{fill:#ffc536;}.cls-89{fill:#ed9600;}.cls-90{fill:url(#Безымянный_градиент_46-3);}.cls-91{fill:#fa9698;}.cls-92{fill:#fec7c6;}.cls-93{fill:url(#Безымянный_градиент_46-4);}.cls-94{fill:url(#Безымянный_градиент_46-5);}.cls-95{fill:url(#Безымянный_градиент_43-2);}.cls-96{fill:#fff98b;}.cls-97{fill:#ffe25b;}.cls-98{fill:#dd9a36;}</style> <linearGradient id="Безымянный_градиент_46" x1="4727.63" y1="84.07" x2="4734.77" y2="93.11" gradientTransform="matrix(-1, 0, 0, 1, 4966.58, 0)" gradientUnits="userSpaceOnUse"> <stop offset="0.12" stop-color="#fca4b5"></stop> <stop offset="0.99" stop-color="#ffadb7"></stop> </linearGradient> <linearGradient id="Безымянный_градиент_46-2" x1="4720.27" y1="74.11" x2="4722.54" y2="76.97" xlink:href="#Безымянный_градиент_46"></linearGradient> <linearGradient id="Безымянный_градиент_43" x1="-1414.87" y1="526.66" x2="-1413.62" y2="526.66" gradientTransform="translate(1729.78 -212.43) rotate(9.59)" gradientUnits="userSpaceOnUse"> <stop offset="0.12" stop-color="#feb9b8"></stop> <stop offset="1" stop-color="#ffdede"></stop> </linearGradient> <linearGradient id="Безымянный_градиент_46-3" x1="4728.19" y1="88.89" x2="4731.38" y2="92.93" xlink:href="#Безымянный_градиент_46"></linearGradient> <linearGradient id="Безымянный_градиент_46-4" x1="68.11" y1="123.98" x2="71.72" y2="128.55" gradientTransform="matrix(1, 0, 0, 1, 0, 0)" xlink:href="#Безымянный_градиент_46"></linearGradient> <linearGradient id="Безымянный_градиент_46-5" x1="60.2" y1="107.36" x2="62.87" y2="110.74" gradientTransform="matrix(1, 0, 0, 1, 0, 0)" xlink:href="#Безымянный_градиент_46"></linearGradient> <linearGradient id="Безымянный_градиент_43-2" x1="3185.77" y1="-216.49" x2="3187.04" y2="-216.49" gradientTransform="matrix(-0.99, 0.17, 0.17, 0.99, 3236.8, -212.43)" xlink:href="#Безымянный_градиент_43"></linearGradient> </defs> <title>Ресурс 10</title> <g class="cls-1"> <g id="Слой_2" data-name="Слой 2"> <g id="Layer_1" data-name="Layer 1"> <ellipse class="cls-2" cx="131.69" cy="115.5" rx="76.03" ry="131.69" transform="translate(15.48 246.57) rotate(-89.69)"></ellipse> <polygon class="cls-3" points="66.35 54.78 194.72 128.98 151.63 153.86 23.25 79.66 66.35 54.78"></polygon> <polygon class="cls-4" points="64.52 41.77 27.69 63.03 33.74 68.16 36.42 69.71 74.67 47.63 64.52 41.77"></polygon> <polygon class="cls-5" points="37.01 68.79 37.33 69.18 37.01 73.31 42.59 70.06 69.8 90 111.7 119.67 116.76 115.46 140.46 130.03 141.03 108.59 39.23 59.14 37.01 68.79"></polygon> <polygon class="cls-6" points="67.34 28.02 30.36 49.37 42.13 48.66 79.12 27.3 67.34 28.02"></polygon> <path class="cls-7" d="M67.34,28V43.59L74,47.43c1.75-3.63,5.77-4.12,10.45-1.42,6.28,3.63,7.14,8.84,10.67,19.21.28.83.69,2.56.69,2.56l52.89,30.53c0-.69,0-1.41,0-2.17,0-7.2,5.09-10.1,11.37-6.48s11.37,12.41,11.37,19.61c0,.76,0,1.47,0,2.14l16.87,9.73V61.24L85.19,1.75,79.12,27.31Z"></path> <ellipse class="cls-8" cx="83.83" cy="58.71" rx="7.18" ry="12.43" transform="translate(-18.17 50.33) rotate(-30.31)"></ellipse> <ellipse class="cls-8" cx="160.04" cy="102.71" rx="7.18" ry="12.43" transform="translate(-29.96 94.81) rotate(-30.31)"></ellipse> <path class="cls-9" d="M153.91,99.17A13.52,13.52,0,0,0,160,109.74c3.39,2,6.13.39,6.13-3.49A13.47,13.47,0,0,0,160,95.68C156.66,93.72,153.91,95.29,153.91,99.17Z"></path> <path class="cls-10" d="M154.49,99.5a12.25,12.25,0,0,0,5.55,9.58c3.07,1.77,5.55.35,5.55-3.17A12.22,12.22,0,0,0,160,96.34C157,94.57,154.49,96,154.49,99.5Z"></path> <ellipse class="cls-11" cx="160.04" cy="102.71" rx="4.06" ry="7.04" transform="translate(-29.96 94.81) rotate(-30.31)"></ellipse> <ellipse class="cls-12" cx="160.04" cy="102.71" rx="2.49" ry="4.32" transform="translate(-29.96 94.81) rotate(-30.31)"></ellipse> <ellipse class="cls-9" cx="83.83" cy="58.71" rx="4.99" ry="8.64" transform="matrix(0.86, -0.5, 0.5, 0.86, -18.17, 50.33)"></ellipse> <path class="cls-13" d="M78.28,55.5a12.25,12.25,0,0,0,5.55,9.58c3.07,1.77,5.55.35,5.55-3.17a12.22,12.22,0,0,0-5.55-9.57C80.77,50.57,78.28,52,78.28,55.5Z"></path> <path class="cls-12" d="M79.58,56.25a9.36,9.36,0,0,0,4.25,7.34c2.35,1.36,4.26.28,4.26-2.42a9.4,9.4,0,0,0-4.26-7.35C81.48,52.47,79.58,53.55,79.58,56.25Z"></path> <path class="cls-14" d="M81.51,57.37a5.11,5.11,0,0,0,2.32,4c1.29.75,2.33.15,2.33-1.32a5.12,5.12,0,0,0-2.33-4C82.55,55.3,81.51,55.9,81.51,57.37Z"></path> <path class="cls-10" d="M82.57,58a2.82,2.82,0,0,0,1.26,2.18c.7.4,1.26.08,1.26-.72a2.77,2.77,0,0,0-1.26-2.18C83.14,56.86,82.57,57.18,82.57,58Z"></path> <polygon class="cls-13" points="64.35 47.02 70.83 52.31 73.81 54.03 74.5 47.72 64.35 41.86 64.35 47.02"></polygon> <polygon class="cls-15" points="112.08 75.02 112.08 27.5 90.86 15.26 90.86 45.58 97.84 66.8 112.08 75.02"></polygon> <polygon class="cls-8" points="84.73 7.82 89.52 10.58 89.52 37.65 82.43 33.55 80.43 27.98 84.73 7.82"></polygon> <polygon class="cls-16" points="88.88 36.55 88.88 10.94 85.22 8.83 81.11 28.29 82.82 33.05 88.88 36.55"></polygon> <polygon class="cls-17" points="95.8 66.27 113.07 76.24 113.07 77.74 95.8 67.78 95.8 66.27"></polygon> <polygon class="cls-9" points="69.25 35.88 71.78 37.34 71.78 34.44 69.25 32.97 69.25 35.88"></polygon> <polygon class="cls-18" points="69.46 35.76 71.56 36.97 71.56 34.56 69.46 33.34 69.46 35.76"></polygon> <path class="cls-19" d="M144.13,86.68a2.15,2.15,0,0,0,1,1.67c.53.3,1,.06,1-.55a2.12,2.12,0,0,0-1-1.66C144.56,85.83,144.13,86.07,144.13,86.68Z"></path> <path class="cls-18" d="M144.28,86.77a1.79,1.79,0,0,0,.81,1.41c.45.26.82,0,.82-.47a1.8,1.8,0,0,0-.82-1.41C144.64,86,144.28,86.25,144.28,86.77Z"></path> <path class="cls-19" d="M115.26,70a2.13,2.13,0,0,0,1,1.66c.53.3,1,.06,1-.55a2.12,2.12,0,0,0-1-1.66C115.69,69.16,115.26,69.41,115.26,70Z"></path> <path class="cls-18" d="M115.41,70.1a1.79,1.79,0,0,0,.81,1.41c.45.26.82,0,.82-.47a1.8,1.8,0,0,0-.82-1.4C115.77,69.37,115.41,69.58,115.41,70.1Z"></path> <path class="cls-8" d="M96.24,41.53l11.4,6.58c1.21.7,2.19,0,2.19-1.65V30.93a5.24,5.24,0,0,0-2.19-4.18l-11.4-6.58c-1.21-.7-2.19,0-2.19,1.65V37.35A5.24,5.24,0,0,0,96.24,41.53Z"></path> <path class="cls-16" d="M109.19,46.21V30.44a3.71,3.71,0,0,0-1.55-3L96.24,20.9c-.86-.5-1.55,0-1.55,1.17V37.83a3.69,3.69,0,0,0,1.55,3l11.4,6.59C108.5,47.87,109.19,47.35,109.19,46.21Z"></path> <path class="cls-9" d="M86.26,61.56a1,1,0,0,1-1.07.66c-.2,0-.33.18-.27.45h0a.76.76,0,0,0,.62.55A1.6,1.6,0,0,0,87,62.34a.75.75,0,0,0-.19-.81h0C86.57,61.35,86.36,61.38,86.26,61.56Z"></path> <path class="cls-9" d="M81.4,55.86a1,1,0,0,1,1.08-.66c.2,0,.32-.18.26-.46h0a.72.72,0,0,0-.62-.54,1.6,1.6,0,0,0-1.42.88.73.73,0,0,0,.19.81h0C81.09,56.07,81.31,56,81.4,55.86Z"></path> <path class="cls-9" d="M82.57,60.77a4.84,4.84,0,0,1-1.11-1.88,1,1,0,0,0-.53-.61h0c-.21,0-.3.24-.16.62a7.59,7.59,0,0,0,1.48,2.49c.27.3.55.34.61.14h0A1,1,0,0,0,82.57,60.77Z"></path> <path class="cls-9" d="M85.09,56.65a4.77,4.77,0,0,1,1.12,1.87.92.92,0,0,0,.53.61h0c.2,0,.3-.23.16-.61A7.76,7.76,0,0,0,85.42,56c-.27-.3-.56-.35-.61-.14h0A1,1,0,0,0,85.09,56.65Z"></path> <polygon class="cls-20" points="81.37 44.64 81.03 44.64 81.03 34.94 78.95 27.35 79.28 27.26 81.37 34.92 81.37 44.64"></polygon> <polygon class="cls-20" points="80.15 31.28 67.34 30.75 67.35 30.41 80.17 30.94 80.15 31.28"></polygon> <polygon class="cls-21" points="27.69 68.19 32.24 74 36.42 76.42 36.42 74.42 36.42 69.71 33.74 68.16 27.69 63.03 27.69 68.19"></polygon> <path class="cls-22" d="M61.11,82c0-5.59-4-12.4-8.82-15.21-2.42-1.4-4.62-1.55-6.22-.65h0l0,0-5.57,3.21v4.32L53,90.88l5.23-3a4.92,4.92,0,0,0,.7-.41h0C60.28,86.45,61.11,84.58,61.11,82Z"></path> <ellipse class="cls-23" cx="46.85" cy="80.06" rx="7.18" ry="12.43" transform="translate(-34 34.59) rotate(-30.31)"></ellipse> <ellipse class="cls-8" cx="46.63" cy="80.16" rx="6.91" ry="11.96" transform="translate(-34.08 34.49) rotate(-30.31)"></ellipse> <path class="cls-9" d="M52.81,83.72c0,3.89-2.74,5.45-6.13,3.5a13.53,13.53,0,0,1-6.13-10.57c0-3.88,2.75-5.45,6.13-3.49A13.47,13.47,0,0,1,52.81,83.72Z"></path> <path class="cls-24" d="M52.4,83.27c0,3.52-2.49,4.94-5.55,3.16a12.22,12.22,0,0,1-5.56-9.57c0-3.52,2.49-4.94,5.56-3.17A12.25,12.25,0,0,1,52.4,83.27Z"></path> <path class="cls-25" d="M51.7,82.87c0,3.08-2.17,4.32-4.85,2.77A10.69,10.69,0,0,1,42,77.26c0-3.08,2.17-4.32,4.86-2.77A10.7,10.7,0,0,1,51.7,82.87Z"></path> <path class="cls-26" d="M51.1,82.52c0,2.7-1.9,3.79-4.25,2.43a9.37,9.37,0,0,1-4.26-7.34c0-2.7,1.9-3.79,4.26-2.43A9.37,9.37,0,0,1,51.1,82.52Z"></path> <path class="cls-27" d="M49,81.85c0,1.62-1.13,2.27-2.54,1.45A5.58,5.58,0,0,1,44,78.92c0-1.62,1.13-2.27,2.54-1.46A5.61,5.61,0,0,1,49,81.85Z"></path> <path class="cls-9" d="M44.42,80.11A4.79,4.79,0,0,0,45.49,82a.91.91,0,0,1,.26.76h0c-.06.2-.35.14-.62-.17a7.81,7.81,0,0,1-1.42-2.53c-.13-.38,0-.65.19-.59h0A1,1,0,0,1,44.42,80.11Z"></path> <path class="cls-28" d="M48.43,81.69c0,1.43-1,2-2.24,1.28a4.92,4.92,0,0,1-2.25-3.86c0-1.42,1-2,2.25-1.28A4.94,4.94,0,0,1,48.43,81.69Z"></path> <path class="cls-25" d="M47.4,81.1c0,.78-.54,1.09-1.21.7A2.67,2.67,0,0,1,45,79.7c0-.77.54-1.08,1.22-.7A2.69,2.69,0,0,1,47.4,81.1Z"></path> <path class="cls-9" d="M49.27,80a4.73,4.73,0,0,0-1.07-1.9.91.91,0,0,1-.26-.76h0c.06-.2.35-.14.62.17A7.77,7.77,0,0,1,50,80.05c.13.39,0,.65-.19.6h0A1,1,0,0,1,49.27,80Z"></path> <path class="cls-9" d="M48.11,83.58A1,1,0,0,0,49.22,83c.11-.17.33-.19.53,0h0a.71.71,0,0,1,.16.81,1.59,1.59,0,0,1-1.48.77.74.74,0,0,1-.61-.56h0C47.76,83.74,47.9,83.57,48.11,83.58Z"></path> <path class="cls-9" d="M45.58,76.55a1,1,0,0,0-1.11.58c-.11.17-.33.19-.53,0h0a.7.7,0,0,1-.16-.8,1.6,1.6,0,0,1,1.48-.78.75.75,0,0,1,.61.57h0C45.93,76.39,45.79,76.56,45.58,76.55Z"></path> <path class="cls-22" d="M137.32,126c0-5.59-3.95-12.4-8.82-15.21-2.57-1.49-4.89-1.56-6.5-.47l-5.52,3.19,3.74,6.09a20.72,20.72,0,0,0,6,9.74l3.29,5.36,4.84-2.83a3.88,3.88,0,0,0,.88-.51h0C136.52,130.37,137.32,128.53,137.32,126Z"></path> <ellipse class="cls-23" cx="123.05" cy="124.06" rx="7.18" ry="12.43" transform="translate(-45.79 79.06) rotate(-30.31)"></ellipse> <path class="cls-8" d="M131,129.05c0,5.38-3.8,7.55-8.49,4.84S114,124.63,114,119.26s3.8-7.55,8.48-4.84S131,123.68,131,129.05Z"></path> <path class="cls-9" d="M129,127.72c0,3.89-2.74,5.45-6.13,3.5a13.53,13.53,0,0,1-6.13-10.57c0-3.88,2.75-5.45,6.13-3.5A13.51,13.51,0,0,1,129,127.72Z"></path> <path class="cls-24" d="M128.61,127.27c0,3.52-2.49,4.93-5.56,3.16a12.23,12.23,0,0,1-5.55-9.57c0-3.52,2.49-4.94,5.55-3.17A12.24,12.24,0,0,1,128.61,127.27Z"></path> <path class="cls-29" d="M128.05,127c0,3.16-2.24,4.44-5,2.84a11,11,0,0,1-5-8.61c0-3.17,2.24-4.44,5-2.85a8.75,8.75,0,0,1,.75.49A11.45,11.45,0,0,1,128,126,7.5,7.5,0,0,1,128.05,127Z"></path> <path class="cls-25" d="M124.86,128.51a10.43,10.43,0,0,1-4.73-8.16,3.65,3.65,0,0,1,.93-2.69c-1.77-.14-3,1.17-3,3.52a11,11,0,0,0,5,8.61c2,1.16,3.75.8,4.54-.7A3.83,3.83,0,0,1,124.86,128.51Z"></path> <path class="cls-30" d="M128,126c-.53.77-1.52.91-2.67.25a6.75,6.75,0,0,1-3.06-5.28c0-1.31.62-2.09,1.54-2.17A11.45,11.45,0,0,1,128,126Z"></path> <polygon class="cls-30" points="123.06 119.08 120.76 120.41 125.28 127.76 127.55 126.45 126 122.76 123.06 119.08"></polygon> <ellipse class="cls-26" cx="123.05" cy="124.06" rx="2.49" ry="4.32" transform="translate(-45.79 79.06) rotate(-30.31)"></ellipse> <path class="cls-31" d="M30.35,49.37V65L37,68.79c1.74-3.64,5.76-4.13,10.44-1.42,6.28,3.62,7.14,8.84,10.67,19.21.29.83.7,2.55.7,2.55l52.88,30.53c0-.69,0-1.41,0-2.16,0-7.21,5.1-10.11,11.37-6.48s11.37,12.4,11.37,19.61q0,1.14,0,2.13l16.86,9.74V82.59L48.21,23.1,42.13,48.66Z"></path> <path class="cls-32" d="M148.45,132.22c0,.61-.43.86-1,.55a2.11,2.11,0,0,1-1-1.66c0-.61.43-.86,1-.55A2.13,2.13,0,0,1,148.45,132.22Z"></path> <path class="cls-33" d="M148.55,131.74c0,.61-.43.85-1,.54a2.11,2.11,0,0,1-1-1.66c0-.61.43-.85,1-.55A2.15,2.15,0,0,1,148.55,131.74Z"></path> <path class="cls-19" d="M148.34,131.83c0,.61-.43.85-1,.55a2.13,2.13,0,0,1-1-1.66c0-.61.43-.86,1-.55A2.11,2.11,0,0,1,148.34,131.83Z"></path> <path class="cls-34" d="M148.2,131.74c0,.52-.37.73-.82.47a1.8,1.8,0,0,1-.82-1.41c0-.52.37-.73.82-.47A1.82,1.82,0,0,1,148.2,131.74Z"></path> <path class="cls-32" d="M109.17,109.55c0,.61-.43.85-1,.55a2.15,2.15,0,0,1-1-1.67c0-.61.43-.85,1-.54A2.11,2.11,0,0,1,109.17,109.55Z"></path> <path class="cls-33" d="M109.28,109.06c0,.61-.43.86-1,.55a2.13,2.13,0,0,1-1-1.66c0-.61.43-.86,1-.55A2.11,2.11,0,0,1,109.28,109.06Z"></path> <path class="cls-19" d="M109.07,109.15c0,.61-.43.86-1,.55a2.13,2.13,0,0,1-1-1.66c0-.61.43-.86,1-.55A2.11,2.11,0,0,1,109.07,109.15Z"></path> <path class="cls-34" d="M108.92,109.07c0,.51-.36.72-.82.46a1.79,1.79,0,0,1-.81-1.41c0-.51.36-.72.81-.46A1.78,1.78,0,0,1,108.92,109.07Z"></path> <path class="cls-32" d="M80.3,92.88c0,.61-.43.85-1,.55a2.13,2.13,0,0,1-1-1.66c0-.61.43-.86,1-.55A2.11,2.11,0,0,1,80.3,92.88Z"></path> <path class="cls-33" d="M80.41,92.39c0,.61-.43.86-1,.55a2.13,2.13,0,0,1-1-1.66c0-.61.43-.86,1-.55A2.11,2.11,0,0,1,80.41,92.39Z"></path> <path class="cls-19" d="M80.2,92.48c0,.61-.43.86-1,.55a2.1,2.1,0,0,1-1-1.66c0-.61.43-.85,1-.55A2.13,2.13,0,0,1,80.2,92.48Z"></path> <path class="cls-34" d="M80.05,92.4c0,.52-.36.73-.81.46a1.77,1.77,0,0,1-.82-1.4c0-.52.36-.73.82-.47A1.79,1.79,0,0,1,80.05,92.4Z"></path> <polygon class="cls-6" points="49.06 21.72 150.77 80.46 151.25 82.59 48.21 23.1 49.06 21.72"></polygon> <polygon class="cls-6" points="187.76 59.11 150.77 80.46 151.25 82.59 188.24 61.24 187.76 59.11"></polygon> <polygon class="cls-15" points="75.09 96.37 75.09 48.86 53.87 36.61 53.87 66.93 60.85 88.15 75.09 96.37"></polygon> <polygon class="cls-35" points="75.09 95.09 74.14 94.54 74.14 49.37 54.98 38.34 54.98 37.25 75.09 48.86 75.09 95.09"></polygon> <polygon class="cls-8" points="47.74 29.17 52.53 31.93 52.53 59 45.44 54.91 43.44 49.34 47.74 29.17"></polygon> <polygon class="cls-36" points="51.89 32.3 51.89 57.9 45.83 54.4 44.12 49.64 48.24 30.19 48.55 30.37 51.89 32.3"></polygon> <polygon class="cls-15" points="145.05 81.37 148.34 83.27 148.34 81.81 145.05 79.91 145.05 81.37"></polygon> <polygon class="cls-34" points="145.34 81.28 148.05 82.84 148.05 81.76 145.34 80.2 145.34 81.28"></polygon> <polygon class="cls-15" points="103.99 57.67 107.29 59.57 107.29 58.1 103.99 56.2 103.99 57.67"></polygon> <polygon class="cls-34" points="104.28 57.58 107 59.14 107 58.06 104.28 56.49 104.28 57.58"></polygon> <polygon class="cls-15" points="52.23 27.78 55.52 29.68 55.52 28.22 52.23 26.32 52.23 27.78"></polygon> <polygon class="cls-34" points="52.52 27.69 55.23 29.25 55.23 28.17 52.52 26.61 52.52 27.69"></polygon> <path class="cls-8" d="M59.25,62.88l11.4,6.59c1.21.69,2.19,0,2.19-1.66V52.29a5.23,5.23,0,0,0-2.19-4.18l-11.4-6.59c-1.21-.7-2.19,0-2.19,1.66V58.7A5.24,5.24,0,0,0,59.25,62.88Z"></path> <path class="cls-36" d="M72.2,67.56V51.8a3.69,3.69,0,0,0-1.55-3l-11.4-6.59c-.86-.49-1.55,0-1.55,1.18V59.19a3.71,3.71,0,0,0,1.55,3l11.4,6.58C71.51,69.23,72.2,68.7,72.2,67.56Z"></path> <path class="cls-8" d="M67.14,85.23l3.51,2c1.21.7,2.19,0,2.19-1.65V75.72a5.24,5.24,0,0,0-2.19-4.18l-3.51-2c-1.21-.69-2.19,0-2.19,1.66v9.88A5.23,5.23,0,0,0,67.14,85.23Z"></path> <path class="cls-36" d="M72.2,85.36V75.24a3.71,3.71,0,0,0-1.55-3l-3.51-2c-.86-.5-1.55,0-1.55,1.17V81.54a3.69,3.69,0,0,0,1.55,3l3.51,2C71.51,87,72.2,86.5,72.2,85.36Z"></path> <polygon class="cls-20" points="44.38 66 44.04 66 44.04 56.3 41.97 48.7 42.3 48.62 44.38 56.28 44.38 66"></polygon> <rect class="cls-20" x="36.59" y="45.79" width="0.34" height="12.83" transform="translate(-16.91 86.78) rotate(-87.64)"></rect> <polygon class="cls-37" points="151.25 142.5 188.24 121.14 188.24 61.24 151.25 82.59 151.25 142.5"></polygon> <polygon class="cls-38" points="151.25 142.5 188.24 121.14 188.24 116 151.25 137.36 151.25 142.5"></polygon> <polygon class="cls-17" points="183.79 74.27 183.79 122.63 155.69 138.85 155.69 90.49 183.79 74.27"></polygon> <polygon class="cls-39" points="183.79 74.27 183.79 118.13 155.69 101.91 155.69 90.49 183.79 74.27"></polygon> <polygon class="cls-40" points="164.19 116.01 172.11 111.44 172.11 102.36 164.19 106.93 164.19 116.01"></polygon> <polygon class="cls-41" points="164.19 116.01 156.28 111.44 156.28 102.36 164.19 106.93 164.19 116.01"></polygon> <polygon class="cls-41" points="164.19 106.93 156.28 102.36 164.19 97.79 172.11 102.36 164.19 106.93"></polygon> <polygon class="cls-42" points="167.76 108.46 169.03 107.72 169.03 104.14 167.76 104.87 167.76 108.46"></polygon> <polygon class="cls-43" points="167.76 104.87 159.85 100.3 161.12 99.56 169.03 104.14 167.76 104.87"></polygon> <polygon class="cls-40" points="164.19 106.63 172.11 102.06 172.11 92.97 164.19 97.54 164.19 106.63"></polygon> <polygon class="cls-41" points="164.19 106.63 156.28 102.06 156.28 92.97 164.19 97.54 164.19 106.63"></polygon> <polygon class="cls-44" points="164.19 97.54 156.28 92.97 164.19 88.4 172.11 92.97 164.19 97.54"></polygon> <polygon class="cls-42" points="167.76 99.07 169.03 98.34 169.03 94.75 167.76 95.48 167.76 99.07"></polygon> <polygon class="cls-43" points="167.76 95.48 159.85 90.91 161.12 90.18 169.03 94.75 167.76 95.48"></polygon> <polygon class="cls-40" points="173.19 121.21 181.11 116.64 181.11 107.55 173.19 112.12 173.19 121.21"></polygon> <polygon class="cls-41" points="173.19 121.21 165.28 116.64 165.28 107.55 173.19 112.12 173.19 121.21"></polygon> <polygon class="cls-44" points="173.19 112.12 165.28 107.55 173.19 102.98 181.11 107.55 173.19 112.12"></polygon> <polygon class="cls-42" points="176.76 113.65 178.03 112.92 178.03 109.33 176.76 110.06 176.76 113.65"></polygon> <polygon class="cls-43" points="176.76 110.06 168.84 105.49 170.12 104.76 178.03 109.33 176.76 110.06"></polygon> <polygon class="cls-45" points="155.7 106.04 183.79 89.82 183.79 74.27 155.7 90.49 155.7 106.04"></polygon> <polygon class="cls-46" points="155.7 102.08 183.79 85.86 183.79 85.36 155.7 101.58 155.7 102.08"></polygon> <polygon class="cls-46" points="155.7 98.45 183.79 82.23 183.79 81.73 155.7 97.95 155.7 98.45"></polygon> <polygon class="cls-46" points="155.7 94.81 183.79 78.59 183.79 78.1 155.7 94.32 155.7 94.81"></polygon> <polygon class="cls-46" points="155.7 91.18 183.79 74.96 183.79 74.47 155.7 90.69 155.7 91.18"></polygon> <polygon class="cls-4" points="183.79 122.63 182.6 121.94 155.7 137.48 155.7 138.85 183.79 122.63"></polygon> <polygon class="cls-4" points="157.3 144.91 151.25 141.41 188.24 120.06 194.28 123.55 157.3 144.91"></polygon> <polygon class="cls-47" points="157.3 144.91 151.25 141.41 151.25 142.5 157.3 145.99 157.3 144.91"></polygon> <polygon class="cls-38" points="194.28 123.55 157.3 144.91 157.3 145.99 194.28 124.63 194.28 123.55"></polygon> <polygon class="cls-45" points="85.27 0 187.76 59.11 150.77 80.46 49.06 21.72 85.27 0"></polygon> <polygon class="cls-15" points="148.73 122.98 75.14 80.49 75.14 78.36 76.08 77.27 148.73 120.84 149.67 121.89 148.73 122.98"></polygon> <polygon class="cls-4" points="148.98 120.16 75.39 77.67 76.08 77.27 149.67 119.76 148.98 120.16"></polygon> <polygon class="cls-38" points="148.98 120.16 148.98 122.29 149.67 121.89 149.67 119.76 148.98 120.16"></polygon> <polygon class="cls-21" points="148.98 122.29 75.39 79.81 75.39 77.67 148.98 120.16 148.98 122.29"></polygon> <polygon class="cls-17" points="61.95 87.51 54.98 66.29 54.98 37.25 53.87 36.61 53.87 66.93 60.85 88.15 75.09 96.37 75.09 95.09 61.95 87.51"></polygon> <polygon class="cls-6" points="61.95 87.51 60.85 88.15 75.09 96.37 75.09 95.09 61.95 87.51"></polygon> <polygon class="cls-21" points="73.35 99.59 56.09 89.62 56.09 90.71 73.35 100.67 73.35 99.59"></polygon> <polygon class="cls-47" points="73.35 99.59 76.08 98.02 76.08 99.1 73.35 100.67 73.35 99.59"></polygon> <polygon class="cls-4" points="73.35 99.59 76.08 98.02 58.81 88.05 56.09 89.62 73.35 99.59"></polygon> <polygon class="cls-47" points="36.42 76.42 37.33 75.99 37.33 69.18 36.42 69.71 36.42 76.42"></polygon> <polygon class="cls-31" points="183.79 122.63 182.6 121.94 182.6 74.95 183.79 74.27 183.79 122.63"></polygon> <polygon class="cls-32" points="33.67 59.14 31.98 58.17 31.98 56.23 32.47 54.7 34.58 58.33 33.67 59.14"></polygon> <polygon class="cls-9" points="34.79 58.7 32.26 57.23 32.26 54.33 34.79 55.79 34.79 58.7"></polygon> <polygon class="cls-18" points="34.58 58.33 31.79 55.57 32.47 54.7 34.58 55.91 34.58 58.33"></polygon> <polygon class="cls-34" points="33.48 58.48 31.79 57.51 31.79 55.57 33.48 56.54 33.48 58.48"></polygon> <polygon class="cls-48" points="34.58 55.91 33.48 56.54 33.48 58.48 34.58 58.33 34.58 55.91"></polygon> <path class="cls-9" d="M148.64,126.49c0,.9-.64,1.26-1.42.81a3.15,3.15,0,0,1-1.42-2.45c0-.9.64-1.26,1.42-.81A3.15,3.15,0,0,1,148.64,126.49Z"></path> <path class="cls-49" d="M148.34,126.32c0,.71-.5,1-1.12.64A2.48,2.48,0,0,1,146.1,125c0-.71.5-1,1.12-.64A2.48,2.48,0,0,1,148.34,126.32Z"></path> <path class="cls-49" d="M146.35,124.36a4.21,4.21,0,0,0-.62.78c-.1.26,1.2,2.08,1.2,2.08a2.91,2.91,0,0,0,1.07-.17C148.41,126.85,146.35,124.36,146.35,124.36Z"></path> <path class="cls-50" d="M147.38,126.6c0,.56-.4.78-.89.5a2,2,0,0,1-.88-1.52c0-.56.4-.78.88-.5A1.94,1.94,0,0,1,147.38,126.6Z"></path> <polygon class="cls-15" points="181.42 122.63 160.64 122.63 155.7 125.67 155.7 137.48 181.42 122.63"></polygon> <polygon class="cls-37" points="61.17 16.48 59.55 15.55 60.83 14.79 62.1 16.48 61.17 16.48"></polygon> <polygon class="cls-48" points="62.1 16.48 63.38 15.72 63.38 15.08 62.1 15.85 62.1 16.48"></polygon> <polygon class="cls-18" points="62.1 15.85 60.47 14.91 61.76 14.15 63.38 15.08 62.1 15.85"></polygon> <polygon class="cls-34" points="62.1 15.85 60.47 14.91 60.47 15.55 62.1 16.48 62.1 15.85"></polygon> <polygon class="cls-37" points="67.61 12.65 65.98 11.72 67.27 10.96 68.53 12.65 67.61 12.65"></polygon> <polygon class="cls-48" points="68.53 12.65 69.82 11.89 69.82 11.25 68.53 12.02 68.53 12.65"></polygon> <polygon class="cls-18" points="68.53 12.02 66.9 11.09 68.19 10.32 69.82 11.25 68.53 12.02"></polygon> <polygon class="cls-34" points="68.53 12.02 66.9 11.09 66.9 11.72 68.53 12.65 68.53 12.02"></polygon> <polygon class="cls-37" points="74.04 8.83 72.41 7.9 73.7 7.13 74.96 8.83 74.04 8.83"></polygon> <polygon class="cls-48" points="74.96 8.83 76.25 8.06 76.25 7.42 74.96 8.19 74.96 8.83"></polygon> <polygon class="cls-18" points="74.96 8.19 73.34 7.26 74.62 6.49 76.25 7.42 74.96 8.19"></polygon> <polygon class="cls-34" points="74.96 8.19 73.34 7.26 73.34 7.9 74.96 8.83 74.96 8.19"></polygon> <polygon class="cls-15" points="166.12 77.65 171.18 74.73 171.18 73.2 166.51 75.03 166.12 76.12 166.12 77.65"></polygon> <polygon class="cls-48" points="167.14 76.92 172.2 74 172.2 72.47 167.14 75.39 167.14 76.92"></polygon> <polygon class="cls-18" points="167.14 75.39 166.51 75.03 171.57 72.11 172.2 72.47 167.14 75.39"></polygon> <polygon class="cls-34" points="167.14 75.39 166.51 75.03 166.51 76.56 167.14 76.92 167.14 75.39"></polygon> <polygon class="cls-15" points="184.07 114.99 186.84 113.46 186.84 109.6 184.59 109.98 184.07 111.13 184.07 114.99"></polygon> <polygon class="cls-15" points="184.07 109.88 186.84 108.35 186.84 104.49 184.59 104.87 184.07 106.02 184.07 109.88"></polygon> <polygon class="cls-15" points="184.07 104.76 186.84 103.23 186.84 99.37 184.59 99.76 184.07 100.9 184.07 104.76"></polygon> <polygon class="cls-15" points="184.07 99.65 186.84 98.12 186.84 94.26 184.59 94.65 184.07 95.79 184.07 99.65"></polygon> <polygon class="cls-51" points="185.22 114.21 187.99 112.68 187.99 108.82 185.22 110.35 185.22 114.21"></polygon> <polygon class="cls-52" points="185.22 110.35 184.59 109.98 187.36 108.45 187.99 108.82 185.22 110.35"></polygon> <polygon class="cls-53" points="185.22 110.35 184.59 109.98 184.59 113.84 185.22 114.21 185.22 110.35"></polygon> <polygon class="cls-48" points="185.22 109.09 187.99 107.56 187.99 103.7 185.22 105.23 185.22 109.09"></polygon> <polygon class="cls-18" points="185.22 105.23 184.59 104.87 187.36 103.34 187.99 103.7 185.22 105.23"></polygon> <polygon class="cls-34" points="185.22 105.23 184.59 104.87 184.59 108.73 185.22 109.09 185.22 105.23"></polygon> <polygon class="cls-54" points="185.22 103.98 187.99 102.45 187.99 98.59 185.22 100.12 185.22 103.98"></polygon> <polygon class="cls-55" points="185.22 100.12 184.59 99.76 187.36 98.23 187.99 98.59 185.22 100.12"></polygon> <polygon class="cls-56" points="185.22 100.12 184.59 99.76 184.59 103.62 185.22 103.98 185.22 100.12"></polygon> <polygon class="cls-51" points="185.22 98.87 187.99 97.34 187.99 93.48 185.22 95.01 185.22 98.87"></polygon> <polygon class="cls-52" points="185.22 95.01 184.59 94.65 187.36 93.12 187.99 93.48 185.22 95.01"></polygon> <polygon class="cls-53" points="185.22 95.01 184.59 94.65 184.59 98.51 185.22 98.87 185.22 95.01"></polygon> <polygon class="cls-15" points="151.74 133.58 154.51 132.05 154.51 128.19 152.26 128.58 151.74 129.72 151.74 133.58"></polygon> <polygon class="cls-15" points="151.74 128.47 154.51 126.94 154.51 123.08 152.26 123.47 151.74 124.61 151.74 128.47"></polygon> <polygon class="cls-15" points="151.74 123.36 154.51 121.83 154.51 117.97 152.26 118.35 151.74 119.5 151.74 123.36"></polygon> <polygon class="cls-15" points="151.74 118.25 154.51 116.72 154.51 112.86 152.26 113.24 151.74 114.39 151.74 118.25"></polygon> <polygon class="cls-51" points="152.89 132.8 155.66 131.27 155.66 127.41 152.89 128.94 152.89 132.8"></polygon> <polygon class="cls-52" points="152.89 128.94 152.26 128.58 155.03 127.05 155.66 127.41 152.89 128.94"></polygon> <polygon class="cls-53" points="152.89 128.94 152.26 128.58 152.26 132.44 152.89 132.8 152.89 128.94"></polygon> <polygon class="cls-48" points="152.89 127.69 155.66 126.16 155.66 122.3 152.89 123.83 152.89 127.69"></polygon> <polygon class="cls-18" points="152.89 123.83 152.26 123.47 155.03 121.94 155.66 122.3 152.89 123.83"></polygon> <polygon class="cls-34" points="152.89 123.83 152.26 123.47 152.26 127.33 152.89 127.69 152.89 123.83"></polygon> <polygon class="cls-54" points="152.89 122.58 155.66 121.05 155.66 117.19 152.89 118.72 152.89 122.58"></polygon> <polygon class="cls-55" points="152.89 118.72 152.26 118.35 155.03 116.82 155.66 117.19 152.89 118.72"></polygon> <polygon class="cls-56" points="152.89 118.72 152.26 118.35 152.26 122.21 152.89 122.58 152.89 118.72"></polygon> <polygon class="cls-51" points="152.89 117.46 155.66 115.93 155.66 112.07 152.89 113.6 152.89 117.46"></polygon> <polygon class="cls-52" points="152.89 113.6 152.26 113.24 155.03 111.71 155.66 112.07 152.89 113.6"></polygon> <polygon class="cls-53" points="152.89 113.6 152.26 113.24 152.26 117.1 152.89 117.46 152.89 113.6"></polygon> <polygon class="cls-57" points="184.79 113.96 187.56 112.43 187.56 108.57 184.79 110.1 184.79 113.96"></polygon> <polygon class="cls-58" points="184.79 108.85 187.56 107.32 187.56 103.46 184.79 104.99 184.79 108.85"></polygon> <polygon class="cls-57" points="184.79 103.74 187.56 102.21 187.56 98.35 184.79 99.88 184.79 103.74"></polygon> <polygon class="cls-57" points="184.79 98.62 187.56 97.09 187.56 93.23 184.79 94.76 184.79 98.62"></polygon> <polygon class="cls-57" points="152.46 132.56 155.23 131.03 155.23 127.17 152.46 128.69 152.46 132.56"></polygon> <polygon class="cls-58" points="152.46 127.44 155.23 125.91 155.23 122.05 152.46 123.58 152.46 127.44"></polygon> <polygon class="cls-57" points="152.46 122.33 155.23 120.8 155.23 116.94 152.46 118.47 152.46 122.33"></polygon> <polygon class="cls-57" points="152.46 117.22 155.23 115.69 155.23 111.83 152.46 113.36 152.46 117.22"></polygon> <polygon class="cls-59" points="51.89 32.3 51.89 42.16 45.38 45.92 48.55 30.37 51.89 32.3"></polygon> <polygon class="cls-47" points="183.23 90.88 183.23 95 155.69 110.92 155.69 106.76 183.23 90.88"></polygon> <polygon class="cls-4" points="183.23 90.88 155.69 106.76 155.69 106.04 182.6 90.51 183.23 90.88"></polygon> <polygon class="cls-37" points="152.37 79.07 53.69 22.02 54.38 21.62 152.61 79.07 152.37 79.07"></polygon> <polygon class="cls-45" points="152.61 78.84 53.93 21.79 54.62 21.39 153.3 78.45 152.61 78.84"></polygon> <polygon class="cls-37" points="152.61 78.84 152.61 79.07 153.3 78.67 153.3 78.45 152.61 78.84"></polygon> <polygon class="cls-15" points="152.61 79.07 53.93 22.02 53.93 21.79 152.61 78.84 152.61 79.07"></polygon> <polygon class="cls-37" points="156.91 76.45 58.23 19.4 58.92 19 157.15 76.45 156.91 76.45"></polygon> <polygon class="cls-45" points="157.15 76.22 58.47 19.17 59.16 18.77 157.84 75.82 157.15 76.22"></polygon> <polygon class="cls-37" points="157.15 76.22 157.15 76.45 157.84 76.05 157.84 75.82 157.15 76.22"></polygon> <polygon class="cls-15" points="157.15 76.45 58.47 19.4 58.47 19.17 157.15 76.22 157.15 76.45"></polygon> <polygon class="cls-37" points="161.45 73.83 62.77 16.77 63.47 16.38 161.69 73.83 161.45 73.83"></polygon> <polygon class="cls-45" points="161.69 73.6 63.01 16.55 63.7 16.15 162.38 73.2 161.69 73.6"></polygon> <polygon class="cls-37" points="161.69 73.6 161.69 73.83 162.38 73.43 162.38 73.2 161.69 73.6"></polygon> <polygon class="cls-15" points="161.69 73.83 63.01 16.77 63.01 16.55 161.69 73.6 161.69 73.83"></polygon> <polygon class="cls-37" points="165.99 71.21 67.32 14.15 68.01 13.75 166.23 71.21 165.99 71.21"></polygon> <polygon class="cls-45" points="166.23 70.98 67.56 13.93 68.25 13.53 166.93 70.58 166.23 70.98"></polygon> <polygon class="cls-37" points="166.23 70.98 166.23 71.21 166.93 70.81 166.93 70.58 166.23 70.98"></polygon> <polygon class="cls-15" points="166.23 71.21 67.56 14.15 67.56 13.93 166.23 70.98 166.23 71.21"></polygon> <polygon class="cls-37" points="170.53 68.58 71.86 11.53 72.55 11.13 170.78 68.58 170.53 68.58"></polygon> <polygon class="cls-45" points="170.78 68.36 72.1 11.3 72.79 10.91 171.47 67.96 170.78 68.36"></polygon> <polygon class="cls-37" points="170.78 68.36 170.78 68.58 171.47 68.19 171.47 67.96 170.78 68.36"></polygon> <polygon class="cls-15" points="170.78 68.58 72.1 11.53 72.1 11.3 170.78 68.36 170.78 68.58"></polygon> <polygon class="cls-37" points="175.08 65.96 76.4 8.91 77.09 8.51 175.32 65.96 175.08 65.96"></polygon> <polygon class="cls-45" points="175.32 65.74 76.64 8.68 77.33 8.28 176.01 65.34 175.32 65.74"></polygon> <polygon class="cls-37" points="175.32 65.74 175.32 65.96 176.01 65.56 176.01 65.34 175.32 65.74"></polygon> <polygon class="cls-15" points="175.32 65.96 76.64 8.91 76.64 8.68 175.32 65.74 175.32 65.96"></polygon> <polygon class="cls-37" points="179.62 63.34 80.94 6.29 81.63 5.89 179.86 63.34 179.62 63.34"></polygon> <polygon class="cls-45" points="179.86 63.12 81.18 6.06 81.87 5.66 180.55 62.72 179.86 63.12"></polygon> <polygon class="cls-37" points="179.86 63.12 179.86 63.34 180.55 62.94 180.55 62.72 179.86 63.12"></polygon> <polygon class="cls-15" points="179.86 63.34 81.18 6.29 81.18 6.06 179.86 63.12 179.86 63.34"></polygon> <polygon class="cls-37" points="184.16 60.72 85.48 3.67 86.17 3.27 184.4 60.72 184.16 60.72"></polygon> <polygon class="cls-45" points="184.4 60.49 85.72 3.44 86.41 3.04 185.09 60.09 184.4 60.49"></polygon> <polygon class="cls-37" points="184.4 60.49 184.4 60.72 185.09 60.32 185.09 60.09 184.4 60.49"></polygon> <polygon class="cls-15" points="184.4 60.72 85.72 3.67 85.72 3.44 184.4 60.49 184.4 60.72"></polygon> <path class="cls-60" d="M146,112.46a3.69,3.69,0,0,1-1.83-.54l-20.75-12c-2.27-1.31-4-4.68-4-7.68V80.42A4,4,0,0,1,121,76.81a3.06,3.06,0,0,1,3.15.19L144.9,89c2.27,1.31,4,4.68,4,7.68V108.5a4,4,0,0,1-1.64,3.61A2.53,2.53,0,0,1,146,112.46Zm-1.09-1.81a1.71,1.71,0,0,0,1.67.19,2.64,2.64,0,0,0,.91-2.34V96.66c0-2.43-1.52-5.37-3.32-6.4l-20.75-12a1.71,1.71,0,0,0-1.68-.2,2.67,2.67,0,0,0-.9,2.34V92.26c0,2.44,1.52,5.37,3.32,6.4Z"></path> <path class="cls-61" d="M146,111.78a3.66,3.66,0,0,1-1.83-.54l-20.76-12c-2.27-1.31-4-4.68-4-7.67V79.75A4,4,0,0,1,121,76.13a3.1,3.1,0,0,1,3.15.19l20.75,12c2.27,1.31,4.05,4.68,4.05,7.67v11.84a4,4,0,0,1-1.64,3.62A2.59,2.59,0,0,1,146,111.78ZM122.3,77.25a1.22,1.22,0,0,0-.58.15,2.66,2.66,0,0,0-.91,2.35V91.59c0,2.43,1.52,5.36,3.32,6.4l20.75,12a1.73,1.73,0,0,0,1.68.19,2.65,2.65,0,0,0,.9-2.34V96c0-2.43-1.52-5.36-3.31-6.4l-20.76-12A2.2,2.2,0,0,0,122.3,77.25Z"></path> <path class="cls-60" d="M113.7,93.82a3.69,3.69,0,0,1-1.83-.54l-20.75-12c-2.27-1.31-4.05-4.69-4.05-7.68V61.78a4,4,0,0,1,1.64-3.62,3.06,3.06,0,0,1,3.14.2l20.76,12c2.27,1.31,4,4.68,4,7.67V89.86A4,4,0,0,1,115,93.47,2.66,2.66,0,0,1,113.7,93.82ZM90,59.29a1.09,1.09,0,0,0-.58.15,2.64,2.64,0,0,0-.91,2.34V73.62c0,2.43,1.52,5.36,3.31,6.4l20.76,12a1.69,1.69,0,0,0,1.67.2,2.65,2.65,0,0,0,.91-2.34V78c0-2.43-1.52-5.36-3.32-6.4l-20.75-12A2.37,2.37,0,0,0,90,59.29Z"></path> <path class="cls-61" d="M113.69,93.14a3.66,3.66,0,0,1-1.83-.54l-20.75-12c-2.28-1.31-4.06-4.68-4.06-7.68V61.1a4,4,0,0,1,1.64-3.61,3.06,3.06,0,0,1,3.15.19l20.75,12c2.27,1.31,4,4.69,4,7.68V89.18A4,4,0,0,1,115,92.79,2.5,2.5,0,0,1,113.69,93.14Zm-1.1-1.81a1.73,1.73,0,0,0,1.68.19,2.67,2.67,0,0,0,.9-2.34V77.34c0-2.43-1.52-5.37-3.31-6.4L91.11,59a1.71,1.71,0,0,0-1.68-.2,2.65,2.65,0,0,0-.9,2.34V72.94c0,2.44,1.51,5.37,3.31,6.4Z"></path> <polygon class="cls-62" points="151.25 119.5 77.66 77.01 77.66 74.88 151.25 117.36 151.25 119.5"></polygon> <path class="cls-63" d="M160.26,142.79h-1.1V129.67c-.29.18-.66.42-1,.64l-.14.07a2,2,0,0,1-2.11-.17s-4.88-3-7.8-5l-.28-.18-.22-.24c.14-.34.29-.58,2.59-1.52l.55,1-1.29.55c2.93,1.9,7,4.42,7,4.45.43.28.52.28,1.08.09,1.77-1.27,2.08-1.1,2.31-1l.3.15,0,.4Z"></path> <path class="cls-63" d="M193.14,123.55H192V112.32a2.37,2.37,0,0,1,1.2-2.06l.36-.2-5.36-3v-1.27l6.5,3.66a.72.72,0,0,1,0,1.25l-1,.53a1.28,1.28,0,0,0-.65,1.11Z"></path> <path class="cls-63" d="M160.1,142.56a.89.89,0,0,0-.78,0,.24.24,0,0,0,0,.45.84.84,0,0,0,.77,0C160.32,142.89,160.32,142.69,160.1,142.56Z"></path> <path class="cls-63" d="M193,123.33a.89.89,0,0,0-.78,0c-.21.12-.21.32,0,.45a.89.89,0,0,0,.78,0C193.2,123.66,193.19,123.46,193,123.33Z"></path> <path class="cls-63" d="M150.13,123.58a.84.84,0,0,0,.4.67c.22.12.39,0,.38-.23a.84.84,0,0,0-.4-.67C150.3,123.23,150.12,123.33,150.13,123.58Z"></path> <polygon class="cls-3" points="164.93 176.82 150.51 168.5 164.24 160.57 171.19 176.82 164.93 176.82"></polygon> <polygon class="cls-40" points="184.91 150.2 184.91 168.9 178.75 172.46 177.22 173.34 171.19 176.82 171.19 158.12 177.22 154.65 178.75 153.76 184.91 150.2"></polygon> <polygon class="cls-41" points="171.19 158.12 171.19 176.82 164.66 173.05 163.11 172.16 156.77 168.5 156.77 149.8 163.11 153.47 164.66 154.35 171.19 158.12"></polygon> <path class="cls-64" d="M170.35,162.08l-2.71-1.56v-3.11l2.71,1.56Zm-2.53-1.66,2.35,1.35v-2.69l-2.35-1.36Z"></path> <polygon class="cls-64" points="169.29 161.09 168.7 160.74 168.7 159.18 169.29 159.52 169.29 161.09"></polygon> <polygon class="cls-64" points="169.88 160.16 168.11 159.13 169 158.58 169.88 160.16"></polygon> <polygon class="cls-44" points="171.19 158.13 156.77 149.8 170.49 141.88 184.91 150.2 171.19 158.13"></polygon> <polygon class="cls-43" points="177.22 154.65 162.8 146.32 164.34 145.43 178.75 153.76 177.22 154.65"></polygon> <polygon class="cls-65" points="164.66 154.35 164.66 173.05 163.11 172.16 163.11 153.47 164.66 154.35"></polygon> <polygon class="cls-66" points="164.66 154.35 178.38 146.43 176.84 145.54 163.12 153.46 164.66 154.35"></polygon> <polygon class="cls-64" points="156.77 149.8 171.19 158.13 163.6 153.96 156.77 149.8"></polygon> <polygon class="cls-64" points="184.91 150.2 171.19 158.13 178.78 153.96 184.91 150.2"></polygon> <polygon class="cls-67" points="163.46 145.94 163.57 145.87 170.64 149.95 177.56 145.96 177.67 146.02 170.75 150.01 177.99 154.2 177.88 154.26 170.64 150.08 163.94 153.94 163.84 153.88 170.53 150.02 163.46 145.94"></polygon> <polygon class="cls-42" points="178.75 153.76 178.75 172.46 177.22 173.34 177.22 154.65 178.75 153.76"></polygon> <ellipse class="cls-3" cx="244.33" cy="122.13" rx="6.28" ry="10.89" transform="translate(120.87 365.79) rotate(-89.69)"></ellipse> <path class="cls-3" d="M193.57,140.3l1.93,1.11,5.9-2.57,4.85-2.8,11.16,6.45-4.85,2.8-4.45,3.4,1.93,1.12,5.9-2.57,21-12.11,4-2.33L223,122.45l-4,2.33,1.33.77-1.32-.76-21,12.1Zm22.1-9.7,6.7-3.87,11.17,6.45-6.71,3.87Z"></path> <path class="cls-3" d="M255.84,114.86a17,17,0,0,0-15.4,0c-4.24,2.44-4.21,6.42.05,8.89a17,17,0,0,0,15.4,0C260.12,121.3,260.1,117.32,255.84,114.86Z"></path> <path class="cls-68" d="M238.43,85.15a2.25,2.25,0,0,0,1.73,1.08h.06a2.09,2.09,0,0,0,.45,0c.68-.06.77-.35.88-.7s2.29-9.43.52-10a1.52,1.52,0,0,0-1.33.86,38,38,0,0,0-1.14,4.32c-.24,1-.43,2-.5,2.41a8.1,8.1,0,0,1-.61,1.89s0,0,0,0Z"></path> <path class="cls-69" d="M236.76,91.56a.48.48,0,0,1,0,.3h0a4.43,4.43,0,0,1,1.43-1.65,9.12,9.12,0,0,0,2.43-3.32v-.67c.68-.06.77-.35.88-.7s2.29-9.43.52-10a1.52,1.52,0,0,0-1.33.86,38,38,0,0,0-1.14,4.32h0c0,.22,1.07.57,1.07.57s-.19,3.18-.18,3.42-.51.78-.51.78h0a1.12,1.12,0,0,1,.15,1.06,39,39,0,0,1-2.34,3.69,3.69,3.69,0,0,1-1.15,1.11Z"></path> <path class="cls-70" d="M239.6,80.51a1.87,1.87,0,0,0,1.41.3c.63-.22,2.27-5.94,2.27-5.94s-.14-.28-1.11,0a2.36,2.36,0,0,0-1.57,1.65C240.46,77,239.6,80.51,239.6,80.51Z"></path> <path class="cls-71" d="M241,119.87a14.6,14.6,0,0,0-1.57.82,24.29,24.29,0,0,0-2,1.81c-.11.21-.62.64-.63,1.11a1.07,1.07,0,0,0,1.06.9,5.48,5.48,0,0,0,2.63-1.12,13.55,13.55,0,0,1,1.08-1.08c.11,0,.12,0,.4.08a2.67,2.67,0,0,0,1.53-.77,4.06,4.06,0,0,0,.24-1.9C243.53,119.37,241,119.87,241,119.87Z"></path> <path class="cls-68" d="M240.79,119.48a12.81,12.81,0,0,0-1.34,1.54c-.11.28.44.55,1.21.59a3.24,3.24,0,0,0,1.73-.77s.82-1.18.46-1.79S240.79,119.48,240.79,119.48Z"></path> <path class="cls-72" d="M240.48,94.65s-.26-.09-.77,4.34a48.93,48.93,0,0,0-.34,8.36c.1,1.34.83,11.89.84,12.43s1.17.83,1.88.78a1.58,1.58,0,0,0,1.36-1c0-.36.82-9.31.24-12.3-.16-.87,2.23-6.94,2.23-6.94s.49-4.53.09-5.5S240.48,94.65,240.48,94.65Z"></path> <path class="cls-73" d="M242.06,120.56h0a1.57,1.57,0,0,0,1.37-1c0-.36.82-9.31.24-12.3-.16-.87,2.23-6.95,2.23-6.95s0-.19.05-.5l-2.33-.49a3.3,3.3,0,0,1,0,2.46,30.44,30.44,0,0,0-.61,5.45,11.53,11.53,0,0,1,.38,4.26C243.24,114.38,243.3,118.84,242.06,120.56Z"></path> <path class="cls-71" d="M251.63,116.87s-.89,1.27-1,1.49-1.36,2.27-1.4,2.55a.78.78,0,0,0,.21.71,2,2,0,0,0,1.49.33,4.51,4.51,0,0,0,1.78-1,7.54,7.54,0,0,0,.94-1.71,6.07,6.07,0,0,0,.67-.88,3.18,3.18,0,0,0,.54-1.09c0-.41.09-.67-.3-1S251.63,116.87,251.63,116.87Z"></path> <path class="cls-68" d="M251.59,116.56a16.06,16.06,0,0,0-.55,1.66c0,.26.62.52,1.22.44s.83-.63,1-.79.95-1.44.76-1.84S251.59,116.56,251.59,116.56Z"></path> <path class="cls-72" d="M243.51,95.28s-.15,1.93-.2,2.68-.07,1.78-.07,1.78l1.39,1.79s.86.78,2.17,7.28c1.06,2.08,4.43,8.11,4.43,8.11a1.94,1.94,0,0,0,2.1.46,2.35,2.35,0,0,0,1.35-1.43c0-.43-2.19-5.84-2.48-6.61a28.06,28.06,0,0,0-1.4-2.68s0-2.89.08-3.85c.16-1.76,1.69-6.15,1.17-7S243.51,95.28,243.51,95.28Z"></path> <path class="cls-74" d="M254.15,116.56l.2-.06c-1.65-5.65-2.9-7.29-3.65-8.26a3.65,3.65,0,0,1-.54-.84c-.94-2.46.27-6.91.52-7.78a7.71,7.71,0,0,0,.31-3.43l-.2,0a7.77,7.77,0,0,1-.31,3.32c-.26.88-1.48,5.39-.51,7.91a3.6,3.6,0,0,0,.56.89C251.27,109.33,252.51,110.94,254.15,116.56Z"></path> <path class="cls-73" d="M250.34,107.09c1.06,1.13,2,3.83,2.81,5.7a12.65,12.65,0,0,1,1.19,3.8,1.32,1.32,0,0,0,.34-.64c0-.44-2.2-5.84-2.49-6.62a27.53,27.53,0,0,0-1.39-2.68s0-2.88.08-3.84c.16-1.77,1.69-6.15,1.16-7-.07-.12-.32-.22-.7-.3,0,0,0,.05,0,.08s.38.18-.2,2.7S249.8,104.92,250.34,107.09Z"></path> <path class="cls-75" d="M252.52,95.64a5.72,5.72,0,0,1-3.31,1.63c-4.15.42-8.56-1.56-9.06-2.21,0,0,.49-4.27.49-6.26s.13-5.07,0-7.08-.2-4.35,1.15-6.39c.81-1.21,3.45-.11,4.25-.19s1.89-.75,3,.17,3.32,1.77,3.79,3.07c.55,1.51.43,3.5-.59,8A19.12,19.12,0,0,0,252.52,95.64Z"></path> <path class="cls-76" d="M241.71,94.31s-1.16,1.08-.65.9l1.17-.26a15.11,15.11,0,0,0,5.2-1,27.17,27.17,0,0,0,3.37-1.66s.7,2.82.86,4.06a6.33,6.33,0,0,0,.87-.71,18.46,18.46,0,0,1-.29-9.3c.14-.55.26-1.07.36-1.54-.95-1.77-1.91-4-3.11-4.07,0,0-1,4.19-.53,6.65s.91,2.53.91,2.53l-4.42,2.55Z"></path> <path class="cls-77" d="M244.13,75.55c0,.8-.2,1.15,0,1.44a3,3,0,0,0,2.19.32,5.09,5.09,0,0,0,.57-.26h0a3,3,0,0,0,1.56-1.35.51.51,0,0,0,0-.51,3.85,3.85,0,0,1-.79-2.15c0-.26,0-.78.07-1.3s.05-1.28.05-1.28-.54-1.06-1-1S243.93,72,243.93,72s.06,1,.12,2c0,.55.06,1.09.07,1.44A.92.92,0,0,1,244.13,75.55Z"></path> <path class="cls-78" d="M244.05,74c0,.55.06,1.09.07,1.44a2,2,0,0,0,.75-.17c1.52-.6,1.9-.5,2.37-.16s.28,1.39-.35,2a3,3,0,0,0,1.56-1.35.51.51,0,0,0,0-.51,3.85,3.85,0,0,1-.79-2.15c0-.26,0-.78.07-1.3a7.23,7.23,0,0,0-2.85-.15Z"></path> <path class="cls-68" d="M247.25,70.38a16.71,16.71,0,0,1-.36,3.06,4.43,4.43,0,0,1-3.75,1.68,4,4,0,0,1-1.26-2.65,13,13,0,0,1,0-1.64,3.21,3.21,0,0,1-.32-1.1,6.68,6.68,0,0,1,.76-2.87,3.54,3.54,0,0,1,3.83-.65C247.66,66.83,247.25,70.38,247.25,70.38Z"></path> <path class="cls-79" d="M246.71,71.27s-.14-1,.48-1.18.59.94.59.94l-.15,1.75,0,.25s.64-1.25.86-1.64a3.09,3.09,0,0,0,.4-1,15.29,15.29,0,0,0,.33-3,2.71,2.71,0,0,0-2.07-1.71,2.45,2.45,0,0,0-2-.71,3,3,0,0,0-2.29.69,2.22,2.22,0,0,0-1,1.47,6.89,6.89,0,0,0-.14,1l.11-.43a2.68,2.68,0,0,0,1.52.14,3.76,3.76,0,0,0,1.78-.56A4.49,4.49,0,0,0,245,68.4c0,.3.22,1.23.22,1.23s.59.35.79.49a1.06,1.06,0,0,1,.29.46l.07.8Z"></path> <path class="cls-80" d="M241.61,68l.16.21s3,.9,3.35,1c.15,0,.38.14.72.25a7.3,7.3,0,0,0,1.78.35l1.38.12a6.06,6.06,0,0,0,.23-2.54c-.17-1-1.28-1.8-2.58-2.19h0a5.33,5.33,0,0,0-1-.21,3.45,3.45,0,0,0-3.36,1.36A4.46,4.46,0,0,0,241.61,68Z"></path> <path class="cls-81" d="M245.84,69.44a7.3,7.3,0,0,0,1.78.35l1.38.12a6.06,6.06,0,0,0,.23-2.54c-.17-1-1.28-1.8-2.58-2.19.34.2,1.34.45,1.07,2.38A2,2,0,0,1,245.84,69.44Z"></path> <path class="cls-82" d="M245.84,69.44s-2.43,2.08-3.26,1.24a3.75,3.75,0,0,0-2.69-1l-.64.19a.16.16,0,0,1-.11-.19A25.58,25.58,0,0,1,241.61,68S242.58,67,245.84,69.44Z"></path> <path class="cls-83" d="M247.05,70.74s.34-.9,1-.55-.29,2.14-.74,2.16-.36-.43-.36-.43S247.45,71.17,247.05,70.74Z"></path> <path class="cls-68" d="M251.88,90.78a10.38,10.38,0,0,0,.76-3.22c.22-2.12.84-8.74-.11-9.65s-2.24,0-2.67.94-.69,5.65-.6,7.25,0,2.72.4,3.51A1.92,1.92,0,0,0,251.88,90.78Z"></path> <path class="cls-70" d="M251.81,77.45c.47,0,1.4.53,1.4,2.27,0,2-.21,3.93-.23,4.61a5.2,5.2,0,0,1-2.26.27,3,3,0,0,1-1.6-.37,35.06,35.06,0,0,1,.51-4.86A2.5,2.5,0,0,1,251.81,77.45Z"></path> <polygon class="cls-84" points="225.51 120.49 223.99 121.36 223.99 123.89 225.51 123.02 225.51 120.49"></polygon> <path class="cls-85" d="M228.89,121.38a3.68,3.68,0,0,1,1.67-2.88,1.24,1.24,0,0,1,1.14-.14h0l0,0h0l.74.43-.28.46a1,1,0,0,1,0,.17,3.68,3.68,0,0,1-1.67,2.88,1.66,1.66,0,0,1-.27.13l-.23.38-.67-.39h0l0,0h0A1.2,1.2,0,0,1,228.89,121.38Z"></path> <ellipse class="cls-71" cx="231.27" cy="120.83" rx="2.35" ry="1.36" transform="translate(10.24 259.51) rotate(-59.69)"></ellipse> <path class="cls-85" d="M229.89,122a3.68,3.68,0,0,1,1.67-2.88,1.19,1.19,0,0,1,1.14-.14h0l0,0,.74.42-.28.47a.88.88,0,0,1,0,.17,3.68,3.68,0,0,1-1.67,2.88,1.59,1.59,0,0,1-.27.12l-.23.39-.67-.39h0A1.2,1.2,0,0,1,229.89,122Z"></path> <path class="cls-71" d="M233.94,120.44a3.65,3.65,0,0,1-1.67,2.88c-.92.53-1.66.11-1.66-.95a3.67,3.67,0,0,1,1.66-2.88C233.2,119,233.94,119.38,233.94,120.44Z"></path> <polygon class="cls-86" points="230.15 124 230.15 125.65 231.03 126.16 233.44 120.07 231.76 120.43 230.15 124"></polygon> <polygon class="cls-87" points="231.03 124.51 231.03 126.16 234.32 123.75 234.32 120.58 232.64 120.94 231.03 124.51"></polygon> <polygon class="cls-87" points="234.44 121.96 230.28 119.56 230.28 119.09 236.24 120.46 236.24 120.93 234.44 121.96"></polygon> <polygon class="cls-80" points="234.44 121.5 230.28 119.09 232.08 118.06 236.24 120.46 234.44 121.5"></polygon> <path class="cls-85" d="M233.62,124.12a3.68,3.68,0,0,1,1.67-2.88,1.24,1.24,0,0,1,1.14-.14h0l0,0h0l.75.43L237,122c0,.06,0,.11,0,.17a3.65,3.65,0,0,1-1.67,2.88l-.27.13-.23.38-.67-.39h0l0,0h0A1.18,1.18,0,0,1,233.62,124.12Z"></path> <path class="cls-71" d="M237.68,122.6a3.68,3.68,0,0,1-1.67,2.88c-.92.53-1.67.11-1.67-1a3.68,3.68,0,0,1,1.67-2.88C236.93,121.12,237.68,121.55,237.68,122.6Z"></path> <path class="cls-85" d="M234.62,124.7a3.68,3.68,0,0,1,1.67-2.88,1.19,1.19,0,0,1,1.14-.14h0l.75.43-.28.46c0,.06,0,.12,0,.18a3.65,3.65,0,0,1-1.67,2.88,1.59,1.59,0,0,1-.27.12l-.23.39-.67-.39h0A1.18,1.18,0,0,1,234.62,124.7Z"></path> <path class="cls-71" d="M238.68,123.18a3.68,3.68,0,0,1-1.67,2.88c-.92.53-1.67.11-1.67-1a3.68,3.68,0,0,1,1.67-2.88C237.93,121.7,238.68,122.12,238.68,123.18Z"></path> <polygon class="cls-86" points="230.28 119.09 230.28 119.56 234.44 121.96 234.44 121.5 230.28 119.09"></polygon> <rect class="cls-88" x="224.73" y="111.01" width="18.59" height="0.86" transform="translate(83.8 322.67) rotate(-80.05)"></rect> <path class="cls-71" d="M236,103.34l-1.43-.82a4.39,4.39,0,0,1-2-2.6l-.92-3.61a2.73,2.73,0,0,1-.07-1.16l.35-2a1.72,1.72,0,0,1,1-1.33,2.5,2.5,0,0,1,2.28.25l4.33,2.5a3.93,3.93,0,0,1,2,3.7l-.34,2a1.9,1.9,0,0,1-.49,1l-1.89,2a1.81,1.81,0,0,1-1.34.54A3,3,0,0,1,236,103.34ZM233.4,92.83a.64.64,0,0,0-.36.53l-.35,2a1.73,1.73,0,0,0,.05.7l.92,3.6a3.3,3.3,0,0,0,1.49,1.92l1.43.83c.6.34,1.19.38,1.48.08l1.89-2a.75.75,0,0,0,.2-.42l.34-2a2.88,2.88,0,0,0-1.5-2.56L234.66,93a1.9,1.9,0,0,0-.9-.28A.8.8,0,0,0,233.4,92.83Z"></path> <path class="cls-80" d="M231.82,114.39a4.28,4.28,0,0,0-1.46-1.52,1.55,1.55,0,0,0-1.46-.17l-1.52.88.13.07L221.17,118v2.32l18.38,10.61V128.6Z"></path> <path class="cls-89" d="M238,129.47V132l-4.28-2.47-.05-1.81L224,122.1v1.79l-4.34-2.5v-2.53l7.73-5.28a1.5,1.5,0,0,1,1.46.17,4.24,4.24,0,0,1,1.46,1.51Z"></path> <polygon class="cls-87" points="201.6 135.81 198.14 133.81 223.12 122.38 223.12 123.39 201.6 135.81"></polygon> <polygon class="cls-87" points="201.6 135.81 198.14 133.81 193.57 137.31 195.55 138.45 201.6 135.81"></polygon> <polygon class="cls-87" points="216.52 144.42 213.06 142.42 238.03 130.99 238.03 132 216.52 144.42"></polygon> <polygon class="cls-87" points="216.52 144.42 213.06 142.42 208.48 145.92 210.46 147.06 216.52 144.42"></polygon> <polygon class="cls-80" points="201.6 134.8 198.14 132.81 219.66 120.38 223.12 122.38 201.6 134.8"></polygon> <polygon class="cls-80" points="201.6 134.8 198.14 132.81 193.57 136.3 195.55 137.44 201.6 134.8"></polygon> <polygon class="cls-80" points="216.52 143.41 213.06 141.42 234.57 128.99 238.03 130.99 216.52 143.41"></polygon> <polygon class="cls-80" points="216.52 143.41 213.06 141.42 208.48 144.91 210.46 146.05 216.52 143.41"></polygon> <polygon class="cls-87" points="239.55 128.6 238.03 129.47 238.03 132 239.55 131.12 239.55 128.6"></polygon> <polygon class="cls-89" points="193.57 136.3 193.57 137.31 195.55 138.45 195.55 137.44 193.57 136.3"></polygon> <polygon class="cls-89" points="208.48 144.91 208.48 145.92 210.46 147.06 210.46 146.05 208.48 144.91"></polygon> <rect class="cls-71" x="232.01" y="97.61" width="8.74" height="1.1" transform="translate(97.25 312.99) rotate(-79.62)"></rect> <path class="cls-68" d="M233,92.28s.23,1.17.24,1.3.25.24.25.24a.68.68,0,0,0,.3.24,1.53,1.53,0,0,0,.44,0s1.82-.29,2-.63a9.48,9.48,0,0,0,.52-1.61h0a4.43,4.43,0,0,1,1.43-1.65,9.12,9.12,0,0,0,2.43-3.32V85.76l-.68-.25h0a6.76,6.76,0,0,0-1.5-.47s0,0,0,0a8,8,0,0,0-1.17,1.85c-.7,1.44-2,4.09-2.15,4.15a13.8,13.8,0,0,0-2,.63A1,1,0,0,0,233,92.28Z"></path> <path class="cls-90" d="M236.76,91.56a.48.48,0,0,1,0,.3h0a4.43,4.43,0,0,1,1.43-1.65,9.12,9.12,0,0,0,2.43-3.32V85.76l-.68-.25a1.51,1.51,0,0,1,.26.9,1.86,1.86,0,0,1-.11.47,18.21,18.21,0,0,1-2.34,3.38c-.64.66-1.15,1.11-1.15,1.11Z"></path> <path class="cls-91" d="M235.65,93.19a1.91,1.91,0,0,1-.3-.54c-.12-.32-.21-.53-.21-.53l-.15.65v.59l-.2.37-.28.2.59,0S235.74,93.55,235.65,93.19Z"></path> <path class="cls-92" d="M236.57,91.67s-.44-.06-.65.53a5.59,5.59,0,0,1-.56,1.27,1.76,1.76,0,0,1-.52.32,2.61,2.61,0,0,0-.64.33.55.55,0,0,0-.09.41c0,.17.26.14.28.12l.37-.11a1,1,0,0,0,.41-.05,6.75,6.75,0,0,0,1.14-.95,4.19,4.19,0,0,0,.44-1.35C236.78,91.77,236.76,91.71,236.57,91.67Z"></path> <path class="cls-68" d="M250.86,88.59a2.09,2.09,0,0,0-1.59.21c-.62.47-5.46,4.52-6.8,5a5.29,5.29,0,0,1-1.25.45c-.41.05-1.78,0-2,.08a4.82,4.82,0,0,0-.66,1.3,2.17,2.17,0,0,0,0,.76c0,.08.51.11.51.11a1,1,0,0,0,.16.33c.11.15.58.11.58.11a.43.43,0,0,0,.29.11.64.64,0,0,0,.33-.06s.15.22.56.07.45-.38.45-.38l.05-.51A4,4,0,0,0,243,95.9c.47-.27.7-.68,1.05-.89s7.3-2.51,7.85-4.23A1.63,1.63,0,0,0,250.86,88.59Z"></path> <polygon class="cls-40" points="220.64 140.28 203.54 130.4 203.54 120.38 220.64 130.25 220.64 140.28"></polygon> <polygon class="cls-41" points="220.64 140.28 234.62 132.2 234.62 122.17 220.64 130.25 220.64 140.28"></polygon> <polygon class="cls-64" points="220.64 130.25 234.62 122.17 217.53 112.3 203.54 120.38 220.64 130.25"></polygon> <polygon class="cls-65" points="226.65 133.12 228.89 131.82 228.89 125.48 226.65 126.78 226.65 133.12"></polygon> <polygon class="cls-66" points="226.65 126.78 209.55 116.91 211.8 115.61 228.89 125.48 226.65 126.78"></polygon> <polygon class="cls-64" points="234.62 122.17 220.64 130.25 228.19 126.21 234.62 122.17"></polygon> <polygon class="cls-67" points="227.69 126.18 210.59 116.31 210.74 116.22 227.84 126.09 227.69 126.18"></polygon> <path class="cls-64" d="M221.56,130.84l2.95-1.71v3.39l-2.95,1.7Zm2.76-1.37L221.76,131v2.94l2.56-1.48Z"></path> <polygon class="cls-64" points="222.71 133.14 223.36 132.76 223.36 131.06 222.71 131.43 222.71 133.14"></polygon> <polygon class="cls-64" points="222.07 132.13 224 131.01 223.04 130.41 222.07 132.13"></polygon> <polygon class="cls-40" points="220.64 129.83 203.54 119.96 203.54 109.93 220.64 119.8 220.64 129.83"></polygon> <polygon class="cls-41" points="220.64 129.83 234.62 121.75 234.62 111.73 220.64 119.8 220.64 129.83"></polygon> <polygon class="cls-44" points="220.64 119.8 234.62 111.73 217.53 101.86 203.54 109.93 220.64 119.8"></polygon> <polygon class="cls-65" points="226.65 122.67 228.89 121.37 228.89 115.04 226.65 116.33 226.65 122.67"></polygon> <polygon class="cls-66" points="226.65 116.33 209.55 106.46 211.8 105.16 228.89 115.04 226.65 116.33"></polygon> <polygon class="cls-64" points="234.62 111.73 220.64 119.8 228.19 115.76 234.62 111.73"></polygon> <polygon class="cls-67" points="227.69 115.73 210.59 105.86 210.74 105.77 227.84 115.64 227.69 115.73"></polygon> <path class="cls-64" d="M221.56,120.39l2.95-1.7v3.38l-2.95,1.71Zm2.76-1.37-2.56,1.48v2.94l2.56-1.48Z"></path> <polygon class="cls-64" points="222.71 122.69 223.36 122.32 223.36 120.61 222.71 120.99 222.71 122.69"></polygon> <polygon class="cls-64" points="222.07 121.68 224 120.57 223.04 119.96 222.07 121.68"></polygon> <path class="cls-3" d="M54.51,152.18c4.37-2.52,11.42-2.54,15.76,0s4.32,6.58,0,9.1-11.42,2.53-15.76,0S50.14,154.7,54.51,152.18Z"></path> <path class="cls-3" d="M50.58,149.27c4.37-2.52,11.42-2.53,15.76,0s4.32,6.58,0,9.1-11.42,2.54-15.76,0S46.21,151.79,50.58,149.27Z"></path> <path class="cls-68" d="M64,109.12A2.71,2.71,0,0,1,66,110.8c.46,1.44.55,5.75.71,6.61a8.87,8.87,0,0,0,.52,1.88c.07.08.34.3-.35,1.23s-1.6,1.42-2,1-.87-4.2-.93-5.79S64,109.12,64,109.12Z"></path> <path class="cls-68" d="M73.81,128.74a3.15,3.15,0,0,1-.37.52c-.06,0-.31.28-.49.24s-.33-.26-.33-.26-.32.33-.53.31a.84.84,0,0,1-.39-.15.75.75,0,0,1-.43-.09l-.11-.11a.91.91,0,0,1-.41-.27c-.11-.17.09-.72.09-.72a5.35,5.35,0,0,1-.35-1,1.39,1.39,0,0,1,0-.42l0-.13s-5.1-4.14-5.49-5c-.28-.59.56-1.31,1.15-1.72.31-.21.55-.35.55-.35s.44-.22.6-.15a4.81,4.81,0,0,1,1.49,1.75,39.51,39.51,0,0,0,2.75,3.56c.79,1,2.25,3,2.35,3.18S73.81,128.74,73.81,128.74Z"></path> <path class="cls-93" d="M71.17,126.36l-.21,0a1.12,1.12,0,0,0-.42.3s-5.1-4.14-5.49-5c-.28-.59.56-1.31,1.15-1.72a20.49,20.49,0,0,0,.37,2.39c.16.73,2.9,3.15,3.41,3.63A1.53,1.53,0,0,0,71.17,126.36Z"></path> <path class="cls-91" d="M70.84,128.21A.22.22,0,0,1,71,128a1.27,1.27,0,0,1,.26,0,.34.34,0,0,1,.25-.14.33.33,0,0,1,.28,0,.66.66,0,0,1,.32,0l.67.25-.38,1.17.32,0,.19-.59.1-.2a.84.84,0,0,1,.18.11.06.06,0,0,0,.09,0,1.26,1.26,0,0,0,.16-.45,3.5,3.5,0,0,0-.1-.41,3.46,3.46,0,0,1-.43.07c-.11,0-1-.23-1-.23l-.52-.18-.19-.39-.06.64-.2.14A.25.25,0,0,0,70.84,128.21Z"></path> <path class="cls-70" d="M62.79,107.91A3,3,0,0,1,66,110.26c.38,1.48,1,5.59,1,5.59A4.27,4.27,0,0,1,64.3,117C62.7,117.08,62.79,107.91,62.79,107.91Z"></path> <path class="cls-71" d="M65,154.66a14.44,14.44,0,0,1,1.61.84,25.29,25.29,0,0,1,2,1.85c.11.21.64.65.65,1.13a1.11,1.11,0,0,1-1.08.93,5.64,5.64,0,0,1-2.7-1.15,11.68,11.68,0,0,0-1.11-1.1c-.11,0-.12,0-.41.08a2.72,2.72,0,0,1-1.56-.79,4,4,0,0,1-.25-1.94C62.4,154.14,65,154.66,65,154.66Z"></path> <path class="cls-68" d="M65.21,154.26a13.3,13.3,0,0,1,1.37,1.57c.12.29-.45.57-1.24.61a3.34,3.34,0,0,1-1.76-.79s-.85-1.21-.48-1.83S65.21,154.26,65.21,154.26Z"></path> <path class="cls-72" d="M66.82,134.61c-.15,4.56-.06,5.85-.16,7.23s-.85,12.18-.86,12.72-1.16.84-1.89.8h0a1.59,1.59,0,0,1-1.4-1.07c0-.37-.84-9.53-.25-12.59.17-.9-1.59-7-1.59-7s0-.19,0-.51c-.12-1.23-.36-4.33,0-5.11.41-1,5.67-.13,5.67-.13S67,130,66.82,134.61Z"></path> <path class="cls-73" d="M63.91,155.36h0a1.59,1.59,0,0,1-1.4-1.07c0-.37-.84-9.53-.25-12.59.17-.9-1.59-7-1.59-7s0-.19,0-.51l2.61-.59a3.41,3.41,0,0,0,0,2.52c.52,1.66-.36,5.07-.29,5.56a11.67,11.67,0,0,0-.39,4.37C62.7,149,62.64,153.61,63.91,155.36Z"></path> <path class="cls-71" d="M54.81,151.68s.9,1.31,1,1.53,1.39,2.33,1.44,2.61a.81.81,0,0,1-.22.73,2.07,2.07,0,0,1-1.53.34,4.73,4.73,0,0,1-1.82-1.07,7.68,7.68,0,0,1-1-1.75,6.45,6.45,0,0,1-.69-.9,3.39,3.39,0,0,1-.55-1.11c0-.42-.09-.7.31-1S54.81,151.68,54.81,151.68Z"></path> <path class="cls-68" d="M54.85,151.37a16.71,16.71,0,0,1,.47,1.62c0,.27-.65.56-1.26.47s-.84-.66-1-.83-.88-1.4-.69-1.81S54.85,151.37,54.85,151.37Z"></path> <path class="cls-72" d="M64,132.46a3.33,3.33,0,0,1-.58,1.69L62,136s-.87.81-2.22,7.45c-1.09,2.13-4.53,8.32-4.53,8.32a2,2,0,0,1-2.16.46,3.07,3.07,0,0,1-1-.8,1.44,1.44,0,0,1-.34-.66c0-.45,2.24-6,2.54-6.78a28.19,28.19,0,0,1,1.43-2.74s0-2.95-.09-3.94c-.16-1.81-1.72-6.29-1.19-7.18.08-.13.33-.23.73-.31,2.22-.45,8.66-.08,8.66-.08S63.93,131.7,64,132.46Z"></path> <path class="cls-74" d="M52.14,151.44l-.21-.06c1.69-5.79,3-7.47,3.74-8.47a3.6,3.6,0,0,0,.55-.86c1-2.52-.27-7.07-.53-8a8,8,0,0,1-.32-3.51l.21,0a7.8,7.8,0,0,0,.31,3.41c.27.9,1.52,5.52.53,8.1a3.62,3.62,0,0,1-.58.91C55.08,144,53.81,145.69,52.14,151.44Z"></path> <path class="cls-73" d="M56.13,141.68c-1.09,1.15-2.1,3.91-2.88,5.83a13,13,0,0,0-1.22,3.9,1.44,1.44,0,0,1-.34-.66c0-.45,2.24-6,2.54-6.78a28.19,28.19,0,0,1,1.43-2.74s0-2.95-.09-3.94c-.16-1.81-1.72-6.29-1.19-7.18.08-.13.33-.23.73-.31v.08s-.39.18.21,2.76S56.68,139.45,56.13,141.68Z"></path> <path class="cls-75" d="M66.57,129.36c-.35.45-2.57,1.54-5.29,2a15.47,15.47,0,0,1-2.66.27h0c-.44,0-.88,0-1.33-.06a5.54,5.54,0,0,1-2.51-.94,6.1,6.1,0,0,1-.88-.73,18.93,18.93,0,0,0,.29-9.52c-.14-.57-.27-1.1-.37-1.58-.85-3.83-.75-5.2-.24-6.58s2.73-2.2,3.88-3.14a4,4,0,0,1,3.2-.78c.81.09,3.07-.9,4.3.76.61.83,1.25,4.53,1.12,6.59s0,5.22,0,7.25S66.57,129.36,66.57,129.36Z"></path> <path class="cls-76" d="M62,132.48s-2.82-.61-3.34-.8h0c-.52-.2-.7-1.19-1.79-1.88a4.09,4.09,0,0,1-1.39-1.22,6.08,6.08,0,0,0-.66,2.1,6.1,6.1,0,0,1-.88-.73,18.93,18.93,0,0,0,.29-9.52c-.14-.57-.27-1.1-.37-1.58,1-1.81,2.1-3.15,3.33-3.17a30.3,30.3,0,0,1-.42,4.68,10.2,10.2,0,0,0-.12,3.72l4.68,7.33Z"></path> <path class="cls-77" d="M62.49,109.39c0,.84,0,1.15-.12,1.41a2.68,2.68,0,0,1-2,.24,6.32,6.32,0,0,1-.63-.26,3.83,3.83,0,0,1-1.67-1.4.52.52,0,0,1,0-.52,3.16,3.16,0,0,0,.77-2c0-.11-.05-1.86-.08-2.48,0-.13,0-.21,0-.21s.55-1.08,1.06-1a7,7,0,0,1,1.77,1.47c.6.59,1.11,1.13,1.11,1.13s-.17,2.3-.2,3.37C62.49,109.21,62.49,109.31,62.49,109.39Z"></path> <path class="cls-94" d="M62.7,105.73s-.17,2.3-.2,3.37a.93.93,0,0,1-.48,0c-.92-.14-1.82-1.07-2.23-.8a1.93,1.93,0,0,0-.07,2.47,3.83,3.83,0,0,1-1.67-1.4.52.52,0,0,1,0-.52,3.16,3.16,0,0,0,.77-2c0-.11-.05-1.86-.08-2.48a26.1,26.1,0,0,0,2.82.24C62.19,105.19,62.7,105.73,62.7,105.73Z"></path> <path class="cls-68" d="M59.29,104.08a17.82,17.82,0,0,0,.37,3.14,4.5,4.5,0,0,0,3.85,1.71,4.08,4.08,0,0,0,1.28-2.71,13.47,13.47,0,0,0,0-1.67,3.39,3.39,0,0,0,.33-1.13,7.06,7.06,0,0,0-.78-2.94,3.61,3.61,0,0,0-3.92-.66C58.87,100.45,59.29,104.08,59.29,104.08Z"></path> <path class="cls-79" d="M59.84,105s.15-1-.49-1.21-.4,1.26-.4,1.26l-.08,1.54,0,.25s-.63-1.32-.85-1.72a3,3,0,0,1-.4-1,14.63,14.63,0,0,1-.34-3,2.78,2.78,0,0,1,2.12-1.75,2.58,2.58,0,0,1,2-.82,3.2,3.2,0,0,1,2.33.8,2.46,2.46,0,0,1,1.06,1.51,4.35,4.35,0,0,1,.08.92l-.1-.38a2.73,2.73,0,0,1-1.56.15,3.94,3.94,0,0,1-1.82-.58,5.11,5.11,0,0,1,.17,1.14c-.05.31-.23,1.27-.23,1.27s-.6.36-.81.5a1,1,0,0,0-.29.47l-.08.82Z"></path> <path class="cls-95" d="M59.5,104.45s-.35-.91-1-.56.3,2.19.76,2.21.37-.44.37-.44S59.09,104.89,59.5,104.45Z"></path> <polygon class="cls-3" points="84.6 175.95 67.84 166.27 77.49 160.71 94.25 170.38 84.6 175.95"></polygon> <polygon class="cls-3" points="68.89 167.5 81.96 159.95 76.69 156.9 63.61 164.45 68.89 167.5"></polygon> <polygon class="cls-71" points="61.1 132.34 64.83 133.51 64.43 134.74 60.7 133.57 61.1 132.34"></polygon> <polygon class="cls-71" points="69.98 128.19 73.77 129.32 74.09 128.07 70.39 126.96 69.98 128.19"></polygon> <path class="cls-71" d="M70.59,127.22a1,1,0,0,1-.27.87c-.22.2-.44.13-.51-.15a1,1,0,0,1,.27-.88C70.3,126.86,70.53,126.93,70.59,127.22Z"></path> <path class="cls-71" d="M61.3,132.6a1,1,0,0,1-.28.87c-.22.2-.45.13-.51-.16a1,1,0,0,1,.29-.87C61,132.25,61.24,132.32,61.3,132.6Z"></path> <path class="cls-85" d="M74.23,127.71l-.33-.1h0a.52.52,0,0,0-.46.17,1.63,1.63,0,0,0-.44,1.39.53.53,0,0,0,.31.41h0l.33.11.06-.2.1-.07A1.59,1.59,0,0,0,74.2,128l0-.11Z"></path> <path class="cls-71" d="M74.55,128.12a1.59,1.59,0,0,1-.44,1.39c-.34.32-.7.21-.8-.24a1.61,1.61,0,0,1,.43-1.39C74.09,127.56,74.45,127.67,74.55,128.12Z"></path> <path class="cls-88" d="M74.32,128.33a1,1,0,0,1-.28.88c-.21.2-.44.13-.5-.15a1,1,0,0,1,.27-.88C74,128,74.25,128.05,74.32,128.33Z"></path> <path class="cls-85" d="M64.94,133.14l-.34-.1h0a.56.56,0,0,0-.47.16,1.59,1.59,0,0,0-.45,1.39.52.52,0,0,0,.3.41h0l.33.11.06-.19.1-.08a1.58,1.58,0,0,0,.45-1.38.45.45,0,0,0,0-.11Z"></path> <path class="cls-71" d="M65.25,133.56a1.64,1.64,0,0,1-.46,1.39c-.34.31-.7.19-.8-.26a1.64,1.64,0,0,1,.45-1.39A.45.45,0,0,1,65.25,133.56Z"></path> <path class="cls-88" d="M65,133.77a1,1,0,0,1-.28.87c-.22.2-.45.13-.51-.16a1,1,0,0,1,.29-.87C64.73,133.41,65,133.48,65,133.77Z"></path> <path class="cls-85" d="M76,153.92a5.64,5.64,0,0,0,2.57,4.42c1.41.82,2.56.17,2.56-1.46a5.67,5.67,0,0,0-2.56-4.43C77.16,151.63,76,152.29,76,153.92Z"></path> <polygon class="cls-85" points="76.85 152.22 75.64 152.91 79.35 159.13 80.53 158.44 79.52 154.22 76.85 152.22"></polygon> <path class="cls-71" d="M74.91,154.55A5.65,5.65,0,0,0,77.48,159c1.42.82,2.57.16,2.57-1.47a5.64,5.64,0,0,0-2.57-4.42C76.06,152.27,74.91,152.92,74.91,154.55Z"></path> <path class="cls-88" d="M75.86,155.1a3.59,3.59,0,0,0,1.62,2.79c.89.51,1.61.1,1.61-.93a3.55,3.55,0,0,0-1.61-2.78C76.59,153.66,75.86,154.08,75.86,155.1Z"></path> <polygon class="cls-96" points="81.38 159.98 77.12 155.79 77.48 155.58 81.38 156.59 81.38 159.98"></polygon> <polygon class="cls-97" points="81.02 160.19 77.12 156.69 77.12 155.79 81.02 156.8 81.02 160.19"></polygon> <polygon class="cls-88" points="93.92 160.64 84.06 166.34 84.06 166.84 93.92 161.15 93.92 160.64"></polygon> <path class="cls-88" d="M81,159.85l-2.67-26.13c-.18-2.1-.65-2.6-1.41-3.17a6.49,6.49,0,0,0-2.22-1.18l-.86-.27.22-.7.86.27A7.11,7.11,0,0,1,77.39,130c1,.74,1.5,1.48,1.68,3.67l2.67,26.12Z"></path> <path class="cls-98" d="M80.48,150.05a.11.11,0,0,0,0-.1.34.34,0,0,0-.16-.27.09.09,0,0,0-.11,0h0l-9.93,5.72.21.4,9.94-5.74Z"></path> <path class="cls-98" d="M79.31,140.29a.11.11,0,0,0,0-.1.34.34,0,0,0-.16-.27.09.09,0,0,0-.11,0h0l-9.92,5.72.21.4,9.94-5.73Z"></path> <path class="cls-98" d="M77.66,156.22a.19.19,0,0,0,.08-.17.61.61,0,0,0-.27-.47.22.22,0,0,0-.19,0h0l-9,5.2.35.67,9-5.21Z"></path> <polygon class="cls-96" points="71.88 165.46 67.98 161.97 67.98 161.06 71.88 162.07 71.88 165.46"></polygon> <polygon class="cls-97" points="84.06 166.34 71.52 165.16 81.38 159.47 93.92 160.64 84.06 166.34"></polygon> <polygon class="cls-98" points="71.21 162.26 71.52 165.16 81.38 159.47 81.07 156.57 71.21 162.26"></polygon> <polygon class="cls-97" points="71.52 165.67 67.62 162.18 67.62 161.27 71.52 162.28 71.52 165.67"></polygon> <polygon class="cls-88" points="84.06 166.34 71.52 165.16 71.52 165.67 84.06 166.84 84.06 166.34"></polygon> <path class="cls-88" d="M71.15,165.54l-2.67-26.13-.13-.92c-.21-1.51-.26-1.87-.83-2.43a4.35,4.35,0,0,0-2.21-1.31l-.87-.29.23-.7.86.28a5,5,0,0,1,2.55,1.54c.71.69.78,1.23,1,2.81l.13.93,2.68,26.14Z"></path> <path class="cls-85" d="M65.05,160.26a5.64,5.64,0,0,0,2.57,4.42c1.42.82,2.57.17,2.57-1.46a5.65,5.65,0,0,0-2.57-4.43C66.2,158,65.05,158.63,65.05,160.26Z"></path> <polygon class="cls-85" points="69.5 164.83 68.34 165.5 67.09 162.81 64.61 159.3 65.85 158.58 69.5 164.83"></polygon> <path class="cls-71" d="M64,160.89a5.65,5.65,0,0,0,2.57,4.43c1.42.82,2.57.16,2.57-1.47a5.64,5.64,0,0,0-2.57-4.42C65.1,158.61,64,159.26,64,160.89Z"></path> <path class="cls-88" d="M64.91,161.44a3.58,3.58,0,0,0,1.61,2.79c.89.51,1.62.1,1.62-.93a3.56,3.56,0,0,0-1.62-2.78C65.63,160,64.91,160.42,64.91,161.44Z"></path> <path class="cls-71" d="M66.13,162.14a.85.85,0,0,0,.39.68c.22.13.4,0,.4-.22a.88.88,0,0,0-.4-.68C66.3,161.79,66.13,161.89,66.13,162.14Z"></path> <polygon class="cls-40" points="82.14 165.78 90.72 160.82 89.88 151.57 81.29 156.52 82.14 165.78"></polygon> <polygon class="cls-41" points="82.14 165.78 72.69 164.88 71.84 155.62 81.29 156.52 82.14 165.78"></polygon> <polygon class="cls-64" points="81.29 156.52 71.84 155.62 80.43 150.67 89.88 151.57 81.29 156.52"></polygon> <polygon class="cls-42" points="85.59 158.69 87.36 157.68 86.81 153.34 85.04 154.36 85.59 158.69"></polygon> <polygon class="cls-43" points="85.04 154.36 75.59 153.46 77.36 152.44 86.81 153.34 85.04 154.36"></polygon> <polygon class="cls-67" points="85.86 153.89 76.41 152.99 76.51 152.93 85.96 153.83 85.86 153.89"></polygon> <polygon class="cls-64" points="71.84 155.62 81.29 156.52 77.5 156.44 71.84 155.62"></polygon> <polygon class="cls-40" points="81.27 156.3 89.86 151.35 89.01 142.09 80.43 147.05 81.27 156.3"></polygon> <polygon class="cls-41" points="81.27 156.3 71.82 155.4 70.98 146.15 80.43 147.05 81.27 156.3"></polygon> <polygon class="cls-44" points="80.43 147.05 70.98 146.15 79.56 141.19 89.01 142.09 80.43 147.05"></polygon> <polygon class="cls-42" points="84.73 149.22 86.49 148.2 85.94 143.86 84.18 144.88 84.73 149.22"></polygon> <polygon class="cls-43" points="84.18 144.88 74.73 143.98 76.49 142.96 85.94 143.86 84.18 144.88"></polygon> <polygon class="cls-67" points="84.99 144.41 75.54 143.51 75.64 143.45 85.09 144.35 84.99 144.41"></polygon> <polygon class="cls-64" points="70.98 146.15 80.43 147.05 76.64 146.96 70.98 146.15"></polygon> <path class="cls-68" d="M53.11,124a6.1,6.1,0,0,0,1.53,2.78c1,1.14,4.94,4.11,5.24,4.95a19.35,19.35,0,0,1,.26,2.14,2.79,2.79,0,0,0,.67.95l.13.05a3.52,3.52,0,0,0,.57.12l.52,0,1,.12s.48,0,.51-.19a1.72,1.72,0,0,0,0-.4,2.25,2.25,0,0,0,.32.23h0a.41.41,0,0,0,.26.08c.21-.06.14-.37,0-.63a13.53,13.53,0,0,0-.56-1.6,18.64,18.64,0,0,1-2.72-2.39c-.52-.79-4.92-6.43-4.92-6.43a3.76,3.76,0,0,1-.11-2c.29-.8,2.64-8.71-.55-10-1.12-.18-1.9.66-2.16,2.87A67.84,67.84,0,0,0,53.11,124Z"></path> <path class="cls-91" d="M60.94,134.87a3.52,3.52,0,0,0,.57.12l.52,0,1,.12s.48,0,.51-.19a1.72,1.72,0,0,0,0-.4,2.25,2.25,0,0,0,.32.23,3,3,0,0,1-.27-.34,1.89,1.89,0,0,0-.19-.53c-.11-.14-.51-.54-.51-.54s-.28.69-.28.69l.1.45.44-.15a.93.93,0,0,0,0-.34,4.63,4.63,0,0,0-.31-.42l.46.26s.11.26.17.42a2.25,2.25,0,0,1,0,.7.83.83,0,0,1-.44,0c-.32,0-1.07-.2-1.07-.2l-.16.08-.52,0Z"></path> <path class="cls-70" d="M55.09,119.28l1.53.24a17.82,17.82,0,0,0,.53-3.57c0-1.29,0-3.56-1.68-4.32s-2.27,1.83-2.32,2.33-.35,4.9-.35,4.9A21.7,21.7,0,0,0,55.09,119.28Z"></path> <path class="cls-92" d="M71.92,129.52s-.31-.23-.15-.44.4-.61.4-.61l0-.71s-.66-.15-.78-.7.35-1.15.65-1.08,1.2,1.32,1.25,1.41a9.13,9.13,0,0,1-.38,1.27s-.34.55-.42.64S72.17,129.69,71.92,129.52Z"></path> <path class="cls-80" d="M65.05,101.51l-.18.22-3.42,1-.69.23a6.89,6.89,0,0,1-1.87.38l-1.41.12a6.25,6.25,0,0,1-.24-2.6,3.44,3.44,0,0,1,2.49-2.19h0a6.44,6.44,0,0,1,1.2-.26,3.55,3.55,0,0,1,3.45,1.38A4.7,4.7,0,0,1,65.05,101.51Z"></path> <path class="cls-81" d="M60.76,103a6.89,6.89,0,0,1-1.87.38l-1.41.12a6.25,6.25,0,0,1-.24-2.6,3.44,3.44,0,0,1,2.49-2.19,2.1,2.1,0,0,0-1.25,1.7A2.59,2.59,0,0,0,60.76,103Z"></path> <path class="cls-82" d="M60.71,103s2.49,2.14,3.34,1.28a3.78,3.78,0,0,1,2.75-1l.66.19a.16.16,0,0,0,.12-.19A26.34,26.34,0,0,0,65,101.51S64.05,100.45,60.71,103Z"></path> <path class="cls-64" d="M81.22,159.77l-2.38-.24v-.07l-.22-2.61,2.38.24v.07ZM79,159.39l2.07.21-.2-2.37-2.07-.2Z"></path> <polygon class="cls-64" points="80.22 159.26 79.7 159.2 79.61 157.88 80.14 157.94 80.22 159.26"></polygon> <polygon class="cls-64" points="80.64 158.5 79.14 158.33 79.89 157.36 80.64 158.5"></polygon> <path class="cls-64" d="M80.31,150.34l-2.38-.24V150l-.22-2.61,2.37.24v.06ZM78.08,150l2.06.2-.2-2.36-2.06-.21Z"></path> <polygon class="cls-64" points="79.32 149.83 78.79 149.77 78.71 148.45 79.23 148.51 79.32 149.83"></polygon> <polygon class="cls-64" points="79.73 149.07 78.23 148.9 78.98 147.93 79.73 149.07"></polygon> <path class="cls-21" d="M79,65.1l4.32-1.39h0L80.8,62.32l.21-.38,3.31,1.83-.15.27-4.3,1.39h0L82.61,67l-.21.38-3.58-2Z"></path> <path class="cls-21" d="M86.64,67.5l-1.91-1L84,67.74l2.13,1.17-.21.38-2.76-1.52,2-3.56,2.65,1.47-.22.38-2-1.11-.62,1.12,1.91,1.05Z"></path> <path class="cls-21" d="M88.69,66.24a9.12,9.12,0,0,1,1.26.59,3,3,0,0,1,1.26,1.07.91.91,0,0,1,0,.89,1.17,1.17,0,0,1-1.42.4v0a1.12,1.12,0,0,1,.32,1.11A5.87,5.87,0,0,0,90,71.51l-.65-.36a3.76,3.76,0,0,1,.14-1,1,1,0,0,0-.6-1.24l-.6-.33-.85,1.54-.63-.35Zm-.26,2,.65.36c.68.38,1.25.34,1.48-.06s-.1-.92-.76-1.29a3.7,3.7,0,0,0-.65-.3Z"></path> <path class="cls-21" d="M94.13,71.64l-1.91-1-.7,1.28L93.64,73l-.21.39L90.67,71.9l2-3.55,2.65,1.46-.21.38-2-1.11-.62,1.13,1.91,1.05Z"></path> <path class="cls-21" d="M99.26,74.46l-1.91-1-.71,1.28,2.13,1.18-.21.38L95.8,74.73l2-3.56,2.65,1.46-.21.39-2-1.11L97.56,73l1.91,1Z"></path> <path class="cls-21" d="M102.06,78.19l-.19-1.13c-.09-.45-.14-.73-.18-1h0a10.2,10.2,0,0,1-.93.42l-1,.45L99,76.5l2.49-1L101,73l.73.4.19,1.19c0,.33.09.59.12.85h0a8.23,8.23,0,0,1,.78-.35l1.13-.47.72.41-2.44.9.52,2.67Z"></path> <path class="cls-21" d="M105.47,75.48a11,11,0,0,1,1.26.6,3,3,0,0,1,1.21,1.06,1,1,0,0,1,0,1,1,1,0,0,1-.8.55,2.87,2.87,0,0,1-1.72-.44,3.18,3.18,0,0,1-.49-.31l-.78,1.43-.64-.35Zm-.31,2.07a2.91,2.91,0,0,0,.5.32c.77.42,1.38.41,1.65-.08s-.07-1-.77-1.33a4,4,0,0,0-.62-.3Z"></path> <path class="cls-21" d="M109.34,77.62a10.67,10.67,0,0,1,1.26.6,3,3,0,0,1,1.26,1.07.91.91,0,0,1,0,.89,1.17,1.17,0,0,1-1.42.4h0a1.14,1.14,0,0,1,.32,1.12,5.79,5.79,0,0,0-.16,1.19l-.65-.37a3.8,3.8,0,0,1,.14-1,1,1,0,0,0-.6-1.23l-.6-.33L108,81.48l-.64-.35Zm-.26,2,.65.36c.68.37,1.25.34,1.48-.07s-.1-.91-.76-1.28a5.2,5.2,0,0,0-.65-.31Z"></path> <path class="cls-21" d="M114.78,83,112.87,82l-.7,1.29,2.12,1.17-.21.38-2.76-1.52,2-3.56,2.65,1.47-.21.38-2-1.11-.62,1.12,1.91,1Z"></path> <path class="cls-21" d="M115.12,84.66a3.53,3.53,0,0,0,1,.86c.65.35,1.17.32,1.36,0s0-.67-.53-1.22-1-1.22-.74-1.72,1.16-.62,2.12-.09a3.3,3.3,0,0,1,1,.77l-.38.28a3,3,0,0,0-.84-.69c-.67-.36-1.09-.22-1.22,0s0,.66.6,1.22,1,1.21.67,1.74-1.12.71-2.28.07a3.69,3.69,0,0,1-1.13-.91Z"></path> <path class="cls-21" d="M118.71,86.64a3.4,3.4,0,0,0,1,.86c.65.35,1.16.31,1.36,0s0-.66-.53-1.21-1-1.22-.74-1.72,1.16-.62,2.12-.1a3.46,3.46,0,0,1,1,.78l-.39.28a2.71,2.71,0,0,0-.84-.69c-.66-.37-1.08-.22-1.21,0s0,.66.59,1.22,1,1.21.68,1.74-1.13.71-2.28.07a3.56,3.56,0,0,1-1.13-.92Z"></path> <path class="cls-21" d="M127.12,91.85a4.63,4.63,0,0,1-1.39-.55c-1.39-.76-2.08-2-1.44-3.13s2.08-1.3,3.6-.46a4.41,4.41,0,0,1,1.08.8l-.36.29a3.83,3.83,0,0,0-.91-.69c-1.15-.64-2.21-.52-2.73.41s-.09,1.81,1.1,2.47a3.91,3.91,0,0,0,1.12.42Z"></path> <path class="cls-21" d="M129.28,91.74l-1.12.83-.66-.36,3.63-2.63.77.42-.29,4.48-.68-.37.1-1.41Zm1.81.53.08-1.29a7.54,7.54,0,0,1,.11-.79h0l-.6.51-1,.76Z"></path> <path class="cls-21" d="M134.26,91.36a10.67,10.67,0,0,1,1.26.6A3,3,0,0,1,136.78,93a.91.91,0,0,1,0,.89,1.17,1.17,0,0,1-1.42.4v0a1.09,1.09,0,0,1,.32,1.11,5,5,0,0,0-.15,1.19l-.66-.36a3.76,3.76,0,0,1,.14-1,1,1,0,0,0-.6-1.24l-.6-.33L133,95.22l-.63-.35Zm-.26,2,.65.36c.68.38,1.26.34,1.48-.06s-.09-.92-.76-1.29a3.7,3.7,0,0,0-.65-.3Z"></path> <path class="cls-21" d="M140.09,99a7.25,7.25,0,0,1-1.62-.64,3.54,3.54,0,0,1-1.57-1.48,1.83,1.83,0,0,1,0-1.7c.6-1.06,2-1.28,3.67-.37a4.61,4.61,0,0,1,1.14.83l-.36.3a4.19,4.19,0,0,0-1-.76c-1.2-.65-2.27-.55-2.77.35s0,1.84,1.11,2.47a3.31,3.31,0,0,0,.89.38l.59-1.06-1-.55.2-.37,1.62.89Z"></path> <path class="cls-21" d="M146.16,100.14c-.67,1.22-2.06,1.3-3.31.61s-1.8-1.94-1.21-3,2-1.33,3.31-.61S146.74,99.08,146.16,100.14Zm-3.84-2a1.8,1.8,0,1,0,2.39-.61A1.65,1.65,0,0,0,142.32,98.09Z"></path> </g> </g> </g> </svg> 