<?xml version="1.0" encoding="UTF-8"?> <svg xmlns="http://www.w3.org/2000/svg" xmlns:xlink="http://www.w3.org/1999/xlink" viewBox="0 0 263.38 160.91"> <defs> <style>.cls-1{isolation:isolate;}.cls-2{fill:#6772ff;}.cls-3{fill:#dee5e9;}.cls-16,.cls-3,.cls-66{mix-blend-mode:multiply;}.cls-4{fill:url(#Безымянный_градиент_114);}.cls-5{fill:#eff0f5;}.cls-6{fill:#bfc4d5;}.cls-7{fill:#2a2a2c;}.cls-8{fill:#3a3f47;}.cls-9{fill:#3e444d;}.cls-10{fill:#fcfbfa;}.cls-11{fill:#516f83;}.cls-12{fill:#c4c8d8;}.cls-13{fill:#a0a6c0;}.cls-14{fill:#191f28;}.cls-15{fill:#ae835b;}.cls-16{fill:#becdd4;}.cls-17{fill:#c99a6b;}.cls-18{fill:#87623f;}.cls-19{fill:#d6b28e;}.cls-20{fill:#edbc8e;}.cls-21{fill:#e8b687;}.cls-22{fill:#f7cca3;}.cls-23{fill:#d1a986;}.cls-24{fill:#ad8057;}.cls-25{fill:#ebedfa;}.cls-26{fill:#e1e7f7;}.cls-27{fill:#edf5fc;}.cls-28{fill:#f0f2ff;}.cls-29{fill:#f7f8ff;}.cls-30{fill:#f2f4ff;}.cls-31{fill:#dfe3ff;}.cls-32{fill:#d5e7f7;}.cls-33{fill:#d1d7ff;}.cls-34{fill:url(#Безымянный_градиент_92);}.cls-35{fill:url(#Безымянный_градиент_92-2);}.cls-36{fill:url(#Безымянный_градиент_92-3);}.cls-37{fill:url(#Безымянный_градиент_92-4);}.cls-38{fill:url(#Безымянный_градиент_92-5);}.cls-39{fill:url(#Безымянный_градиент_92-6);}.cls-40{fill:url(#Безымянный_градиент_92-7);}.cls-41{fill:url(#Безымянный_градиент_92-8);}.cls-42{fill:url(#Безымянный_градиент_92-9);}.cls-43{fill:url(#Безымянный_градиент_92-10);}.cls-44{fill:url(#Безымянный_градиент_92-11);}.cls-45{fill:url(#Безымянный_градиент_92-12);}.cls-46{fill:url(#Безымянный_градиент_92-13);}.cls-47{fill:url(#Безымянный_градиент_92-14);}.cls-48{fill:url(#Безымянный_градиент_92-15);}.cls-49{fill:url(#Безымянный_градиент_92-16);}.cls-50{fill:#554d4e;}.cls-51{fill:#6b6164;}.cls-52{fill:#85787c;}.cls-53{fill:#493f41;}.cls-54{fill:#dcdbe5;}.cls-55{fill:#bdc2ff;}.cls-56{fill:#ffc536;}.cls-57{fill:#fff;}.cls-58{fill:#ffef86;}.cls-59{fill:#ff4c4a;}.cls-60{fill:#ff7270;}.cls-61{fill:url(#Безымянный_градиент_2);}.cls-62{fill:url(#Безымянный_градиент_51);}.cls-63{fill:#869741;}.cls-64{fill:url(#Безымянный_градиент_99);}.cls-65{fill:#7dd171;}.cls-65,.cls-70{mix-blend-mode:screen;}.cls-66{fill:#d1e89b;}.cls-67{fill:#d9af84;}.cls-68{fill:#ebcbab;}.cls-69{fill:#9c754e;}.cls-70{fill:#54493e;}</style> <linearGradient id="Безымянный_градиент_114" x1="4683.03" y1="78.77" x2="4849.01" y2="78.77" gradientTransform="matrix(-1, 0, 0, 1, 4895.05, 0)" gradientUnits="userSpaceOnUse"> <stop offset="0" stop-color="#c4c8d8"></stop> <stop offset="0.02" stop-color="#c4c8d8"></stop> <stop offset="0.28" stop-color="#c4c8d8"></stop> <stop offset="0.3" stop-color="#c0c5d6"></stop> <stop offset="0.32" stop-color="#b6bace"></stop> <stop offset="0.34" stop-color="#a3a9c2"></stop> <stop offset="0.34" stop-color="#a0a6c0"></stop> <stop offset="0.99" stop-color="#a0a6c0"></stop> <stop offset="0.99" stop-color="#b4b9cd"></stop> <stop offset="1" stop-color="#c0c4d5"></stop> <stop offset="1" stop-color="#c4c8d8"></stop> </linearGradient> <linearGradient id="Безымянный_градиент_92" x1="63.94" y1="27.25" x2="189.08" y2="152.4" gradientUnits="userSpaceOnUse"> <stop offset="0.17" stop-color="#caceff"></stop> <stop offset="0.52" stop-color="#ccd6fd"></stop> <stop offset="1" stop-color="#ceddfb"></stop> </linearGradient> <linearGradient id="Безымянный_градиент_92-2" x1="85.83" y1="5.36" x2="210.97" y2="130.5" xlink:href="#Безымянный_градиент_92"></linearGradient> <linearGradient id="Безымянный_градиент_92-3" x1="107.01" y1="-15.83" x2="232.16" y2="109.32" xlink:href="#Безымянный_градиент_92"></linearGradient> <linearGradient id="Безымянный_градиент_92-4" x1="122.31" y1="-31.13" x2="247.46" y2="94.02" xlink:href="#Безымянный_градиент_92"></linearGradient> <linearGradient id="Безымянный_градиент_92-5" x1="129.28" y1="-38.1" x2="254.43" y2="87.05" xlink:href="#Безымянный_градиент_92"></linearGradient> <linearGradient id="Безымянный_градиент_92-6" x1="126.9" y1="-35.72" x2="252.05" y2="89.43" xlink:href="#Безымянный_градиент_92"></linearGradient> <linearGradient id="Безымянный_градиент_92-7" x1="115.49" y1="-24.3" x2="240.64" y2="100.84" xlink:href="#Безымянный_градиент_92"></linearGradient> <linearGradient id="Безымянный_градиент_92-8" x1="96.84" y1="-5.66" x2="221.99" y2="119.49" xlink:href="#Безымянный_градиент_92"></linearGradient> <linearGradient id="Безымянный_градиент_92-9" x1="73.85" y1="17.34" x2="198.99" y2="142.49" xlink:href="#Безымянный_градиент_92"></linearGradient> <linearGradient id="Безымянный_градиент_92-10" x1="50.1" y1="41.08" x2="175.25" y2="166.23" xlink:href="#Безымянный_градиент_92"></linearGradient> <linearGradient id="Безымянный_градиент_92-11" x1="29.76" y1="61.42" x2="154.91" y2="186.57" xlink:href="#Безымянный_градиент_92"></linearGradient> <linearGradient id="Безымянный_градиент_92-12" x1="15.86" y1="75.33" x2="141" y2="200.48" xlink:href="#Безымянный_градиент_92"></linearGradient> <linearGradient id="Безымянный_градиент_92-13" x1="10.42" y1="80.77" x2="135.57" y2="205.91" xlink:href="#Безымянный_градиент_92"></linearGradient> <linearGradient id="Безымянный_градиент_92-14" x1="14.68" y1="76.5" x2="139.83" y2="201.65" xlink:href="#Безымянный_градиент_92"></linearGradient> <linearGradient id="Безымянный_градиент_92-15" x1="27.59" y1="63.59" x2="152.74" y2="188.74" xlink:href="#Безымянный_градиент_92"></linearGradient> <linearGradient id="Безымянный_градиент_92-16" x1="45.37" y1="45.81" x2="170.52" y2="170.96" xlink:href="#Безымянный_градиент_92"></linearGradient> <linearGradient id="Безымянный_градиент_2" x1="46.55" y1="120.69" x2="78.86" y2="93.3" gradientUnits="userSpaceOnUse"> <stop offset="0.09" stop-color="#379ed6"></stop> <stop offset="0.3" stop-color="#58aee5"></stop> <stop offset="0.54" stop-color="#76bdf3"></stop> <stop offset="0.75" stop-color="#88c6fc"></stop> <stop offset="0.9" stop-color="#8fc9ff"></stop> </linearGradient> <linearGradient id="Безымянный_градиент_51" x1="47.95" y1="119.5" x2="77.5" y2="94.45" gradientTransform="translate(45.64 -15.99) rotate(22.5)" gradientUnits="userSpaceOnUse"> <stop offset="0.09" stop-color="#7282b5"></stop> <stop offset="0.23" stop-color="#7489c8"></stop> <stop offset="0.5" stop-color="#7695e6"></stop> <stop offset="0.73" stop-color="#779cf8"></stop> <stop offset="0.9" stop-color="#789eff"></stop> </linearGradient> <linearGradient id="Безымянный_градиент_99" x1="49.88" y1="120.76" x2="77.5" y2="90.51" gradientUnits="userSpaceOnUse"> <stop offset="0.09" stop-color="#7cab71"></stop> <stop offset="0.23" stop-color="#86be78"></stop> <stop offset="0.5" stop-color="#95dc84"></stop> <stop offset="0.73" stop-color="#9fee8b"></stop> <stop offset="0.9" stop-color="#a2f58e"></stop> </linearGradient> </defs> <title>Ресурс 12</title> <g class="cls-1"> <g id="Слой_2" data-name="Слой 2"> <g id="Layer_1" data-name="Layer 1"> <ellipse class="cls-2" cx="131.69" cy="84.87" rx="76.03" ry="131.69" transform="translate(46.11 216.1) rotate(-89.69)"></ellipse> <path class="cls-3" d="M161.69,130l47.8-27.6c3.76-2.17,3.29-6-1.06-8.5L111.12,37.7c-4.35-2.51-11-2.78-14.74-.61l-47.8,27.6c-3.76,2.17-3.28,6,1.06,8.5L147,129.38C151.3,131.89,157.93,132.16,161.69,130Z"></path> <path class="cls-4" d="M46,58.36l3,1.29L96.38,32.32c3.76-2.17,10.39-1.89,14.74.61l97.31,56.19.54.34,3.06-.89V94h0a4.4,4.4,0,0,1-2.53,3.62l-47.8,27.6c-3.76,2.17-10.39,1.89-14.73-.62L49.64,68.43c-2.34-1.35-3.55-3.08-3.58-4.74h0Z"></path> <path class="cls-5" d="M161.69,120l47.8-27.6c3.76-2.18,3.29-6-1.06-8.51L111.12,27.67c-4.35-2.5-11-2.78-14.74-.61l-47.8,27.6c-3.76,2.17-3.28,6,1.06,8.51L147,119.35C151.3,121.86,157.93,122.14,161.69,120Z"></path> <path class="cls-6" d="M49.64,62.63,147,118.82c4.34,2.51,11,2.78,14.73.61l47.8-27.6A4.49,4.49,0,0,0,212,88.41c.11,1.48-.71,2.91-2.52,4L161.69,120c-3.76,2.17-10.39,1.89-14.73-.62L49.64,63.17c-2.51-1.45-3.72-3.34-3.58-5.09C46.18,59.68,47.38,61.33,49.64,62.63Z"></path> <path class="cls-7" d="M49.11,60.34a7,7,0,0,0,2.4,2.14L75.2,76.16l30.16,17.41,42.79,24.7c3.64,2.11,9.18,2.34,12.32.52l43.69-25.22,3.29-1.9c3.15-1.82,2.74-5-.89-7.12L192,76.16l-27.4-15.82L127.09,38.66l-17.17-9.9c-3.63-2.11-9.18-2.33-12.33-.52l-18,10.42L50.63,55.36C48.43,56.63,48,58.57,49.11,60.34Z"></path> <path class="cls-8" d="M49.75,59.93a2.86,2.86,0,0,0,.3.41,6.3,6.3,0,0,0,1.83,1.49L76.69,76.16l3.43,2,26.74,15.43,4.59,2.66,22.29,12.86,14.79,8.54a13.56,13.56,0,0,0,6.6,1.65,10.12,10.12,0,0,0,5-1.14l9.79-5.65,32.77-18.92L207.07,91a3,3,0,0,0,1.75-2.44c0-1.2-1-2.42-2.63-3.4l-15.66-9L163.14,60.34l-2.9-1.67-34.67-20-5-2.86-11.06-6.39a13.48,13.48,0,0,0-6.61-1.63,11.59,11.59,0,0,0-3.66.54,6.57,6.57,0,0,0-1.32.57L81.05,38.66l-7.26,4.19L51,56a3.28,3.28,0,0,0-1.7,2A2.45,2.45,0,0,0,49.75,59.93Z"></path> <path class="cls-9" d="M120.61,35.8l13.13,73.28,14.79,8.54a13.56,13.56,0,0,0,6.6,1.65,10.12,10.12,0,0,0,5-1.14l9.79-5.65-9.65-53.81-34.67-20Z"></path> <path class="cls-9" d="M73.79,42.85l6.33,35.28,26.74,15.43,4.59,2.66L99.28,28.32a6.57,6.57,0,0,0-1.32.57L81.05,38.66Z"></path> <path class="cls-10" d="M54.52,60.75c.08.14.19.25.29.39a6.29,6.29,0,0,0,1.72,1.4L79.84,76l3.23,1.86,25.12,14.49,4.32,2.5,20.94,12.08,15.63,9a12.65,12.65,0,0,0,6.19,1.55,9.54,9.54,0,0,0,4.67-1.07l9.21-5.31,30.79-17.77L204.09,91a2.79,2.79,0,0,0,1.64-2.29c0-1.13-.91-2.28-2.47-3.2L186.82,76,161.08,61.14l-2.72-1.57L125.78,40.76l-4.66-2.69-10.4-6a12.62,12.62,0,0,0-6.21-1.54,10.58,10.58,0,0,0-3.44.52,5.52,5.52,0,0,0-1.24.53l-7.38,4.6.17,4.7L76.48,50.21l-7-.43L55.71,57.06a3.07,3.07,0,0,0-1.6,1.83A2.36,2.36,0,0,0,54.52,60.75Z"></path> <path class="cls-7" d="M73.18,48.06,85,41.26c.22-.12.19-.34-.06-.48h0a1,1,0,0,0-.84,0l-11.77,6.8c-.22.13-.19.35.06.49h0A.93.93,0,0,0,73.18,48.06Z"></path> <path class="cls-8" d="M85.05,41.18a.53.53,0,0,0-.16-.13.93.93,0,0,0-.84,0l-11.77,6.8a.18.18,0,0,0-.09.08.22.22,0,0,1,.09-.35l11.77-6.8a1,1,0,0,1,.84,0C85.09,40.89,85.14,41.06,85.05,41.18Z"></path> <path class="cls-8" d="M88,38.82a2.82,2.82,0,0,0,2.56,0,.78.78,0,0,0,0-1.48,2.85,2.85,0,0,0-2.56,0C87.32,37.75,87.31,38.41,88,38.82Z"></path> <path class="cls-11" d="M88.49,38.54a1.78,1.78,0,0,0,1.62,0c.45-.26.45-.68,0-.93a1.76,1.76,0,0,0-1.61,0C88.05,37.87,88,38.29,88.49,38.54Z"></path> <path class="cls-7" d="M85.57,40.44a2,2,0,0,0,1.81,0c.5-.29.51-.76,0-1a2,2,0,0,0-1.81,0A.55.55,0,0,0,85.57,40.44Z"></path> <path class="cls-12" d="M57.08,71.67l7,4c.57.33,1,0,1-.79h0a2.49,2.49,0,0,0-1-2l-7-4c-.57-.33-1,0-1,.78h0A2.5,2.5,0,0,0,57.08,71.67Z"></path> <path class="cls-13" d="M56.55,72l7,4c.57.32,1,0,1-.79h0a2.49,2.49,0,0,0-1-2l-7-4c-.57-.33-1,0-1,.78h0A2.49,2.49,0,0,0,56.55,72Z"></path> <path class="cls-12" d="M101.53,97.32l7,4c.57.33,1,0,1-.78h0a2.5,2.5,0,0,0-1-2l-7-4c-.57-.33-1,0-1,.78h0A2.49,2.49,0,0,0,101.53,97.32Z"></path> <path class="cls-13" d="M101,97.65l7,4c.57.33,1,0,1-.78h0a2.5,2.5,0,0,0-1-2l-7-4c-.57-.33-1,0-1,.78h0A2.5,2.5,0,0,0,101,97.65Z"></path> <path class="cls-13" d="M182,110.85c0,.65.4.94.89.66l6-3.45a2.14,2.14,0,0,0,.89-1.7c0-.65-.4-1-.89-.68l-.59.34-5.41,3.12a2.08,2.08,0,0,0-.83,1.24A2,2,0,0,0,182,110.85Z"></path> <path class="cls-14" d="M182.1,110.38l5.41-3.13a2,2,0,0,0,.83-1.23l-5.41,3.12A2.08,2.08,0,0,0,182.1,110.38Z"></path> <polygon class="cls-15" points="175.25 51.83 175.03 52.47 164.82 49.32 132.78 30.84 175.25 51.83"></polygon> <polygon class="cls-15" points="132.78 30.84 99.33 50.15 85.49 51.02 85.3 50.33 132.78 30.84"></polygon> <polygon class="cls-16" points="110.84 58.39 131.36 96.2 109.41 96.2 77.37 77.71 110.84 58.39"></polygon> <polygon class="cls-17" points="131.36 96.2 164.82 76.88 164.82 48.62 131.36 67.93 131.36 96.2"></polygon> <polygon class="cls-18" points="164.82 48.62 131.36 67.93 149.07 58.28 164.82 48.62"></polygon> <polygon class="cls-15" points="131.36 96.2 99.31 77.69 99.31 49.43 131.36 67.93 131.36 96.2"></polygon> <path class="cls-18" d="M129.7,93.56l-7.19-4.15V81.16l7.19,4.15ZM123,89.14l6.24,3.6V85.58L123,82Z"></path> <polygon class="cls-18" points="126.9 90.92 125.31 90 125.31 85.85 126.9 86.76 126.9 90.92"></polygon> <polygon class="cls-18" points="128.46 88.45 123.76 85.74 126.11 84.26 128.46 88.45"></polygon> <polygon class="cls-19" points="88.89 64.72 131.36 67.93 131.36 68.64 121.16 83.57 89.13 65.09 88.89 64.72"></polygon> <polygon class="cls-19" points="178.59 66.09 145.13 85.41 131.37 68.63 131.36 67.93 178.85 65.7 178.59 66.09"></polygon> <polygon class="cls-20" points="99.33 49.45 131.36 67.93 120.93 83.21 88.89 64.72 99.33 49.45"></polygon> <polygon class="cls-20" points="143.22 33.35 175.25 51.83 164.82 48.62 132.78 30.13 143.22 33.35"></polygon> <polygon class="cls-21" points="132.79 30.13 164.83 48.61 131.36 67.93 99.33 49.45 132.79 30.13"></polygon> <polygon class="cls-17" points="100.16 49.43 132.78 30.6 163.97 48.6 131.35 67.43 100.16 49.43"></polygon> <polygon class="cls-22" points="178.85 65.7 145.39 85.01 131.37 67.93 164.82 48.62 178.85 65.7"></polygon> <polygon class="cls-21" points="132.78 30.14 99.33 49.45 85.3 50.33 118.75 31.02 132.78 30.14"></polygon> <polygon class="cls-23" points="149 57.87 148.72 58.02 148.62 57.95 148.89 57.8 149 57.87"></polygon> <polygon class="cls-24" points="125.09 63.81 131.35 67.43 139.05 62.98 132.78 59.37 125.09 63.81"></polygon> <polygon class="cls-15" points="132.78 59.37 132.78 30.6 163.97 48.6 139.05 62.98 132.78 59.37"></polygon> <polygon class="cls-25" points="155.45 53.52 131.35 67.42 116.78 59.02 113.16 56.92 109.32 54.71 112.44 54.01 117.44 49.83 123.46 47.92 127.28 44.68 132.79 42.89 135.9 43.47 139.05 45.45 143.55 46.79 147.75 48.62 151.47 51.72 155.45 53.52"></polygon> <path class="cls-26" d="M119.28,53.27h-2.2a1.45,1.45,0,0,0,0,2.89h2.2a1.45,1.45,0,0,0,0-2.89Z"></path> <path class="cls-26" d="M128.53,63l1.95-1a1.44,1.44,0,0,0-1.31-2.57l-2,1A1.45,1.45,0,0,0,128.53,63Z"></path> <path class="cls-26" d="M135.36,51.35l1.27,1.78A1.45,1.45,0,0,0,139,51.46l-1.28-1.79a1.44,1.44,0,1,0-2.35,1.68Z"></path> <path class="cls-26" d="M144.35,55.45l2-1A1.44,1.44,0,0,0,145,51.88l-2,1a1.44,1.44,0,1,0,1.32,2.57Z"></path> <path class="cls-27" d="M134,61.83l2.16.4a1.44,1.44,0,0,0,1.68-1.15,1.45,1.45,0,0,0-1.15-1.69L134.49,59a1.45,1.45,0,0,0-.53,2.85Z"></path> <path class="cls-27" d="M129.85,54.35l-1.67,1.42a1.44,1.44,0,0,0,1.87,2.2l1.67-1.42a1.44,1.44,0,1,0-1.87-2.2Z"></path> <path class="cls-27" d="M133.29,43.23l-1.68,1.43a1.45,1.45,0,0,0,1.88,2.2l1.67-1.42a1.45,1.45,0,0,0-1.87-2.21Z"></path> <path class="cls-28" d="M141.92,54.47l-1.85-1.18a1.45,1.45,0,1,0-1.56,2.44l1.85,1.18a1.45,1.45,0,0,0,1.56-2.44Z"></path> <path class="cls-28" d="M144.86,55l-1.51,1.59a1.45,1.45,0,0,0,2.1,2L147,57a1.45,1.45,0,1,0-2.1-2Z"></path> <path class="cls-28" d="M138.87,46.16,137,45a1.45,1.45,0,1,0-1.56,2.44l1.85,1.18a1.45,1.45,0,0,0,1.55-2.44Z"></path> <path class="cls-28" d="M122.34,56l-2.19-.11a1.45,1.45,0,1,0-.15,2.89l2.2.1a1.44,1.44,0,0,0,.14-2.88Z"></path> <path class="cls-28" d="M129.19,45.16,127,45.05a1.45,1.45,0,0,0-.15,2.89L129,48a1.44,1.44,0,1,0,.15-2.88Z"></path> <path class="cls-29" d="M143.24,47.64l-1.93,1a1.45,1.45,0,0,0,1.39,2.54l1.92-1.06a1.44,1.44,0,1,0-1.38-2.53Z"></path> <path class="cls-29" d="M131.69,62.61l-2.16.38a1.45,1.45,0,1,0,.5,2.85l2.16-.38a1.45,1.45,0,0,0-.5-2.85Z"></path> <path class="cls-29" d="M117.57,57.48a1.46,1.46,0,0,1-.79,1.54l-3.62-2.1a1.37,1.37,0,0,1,.58-.25l2.16-.37A1.44,1.44,0,0,1,117.57,57.48Z"></path> <path class="cls-29" d="M151.45,51.45l-2.16.38a1.45,1.45,0,1,0,.5,2.85L152,54.3a1.45,1.45,0,0,0-.5-2.85Z"></path> <path class="cls-29" d="M129.79,48.07l-2.16.37a1.45,1.45,0,0,0,.49,2.85l2.16-.37a1.46,1.46,0,0,0,1.18-1.67A1.45,1.45,0,0,0,129.79,48.07Z"></path> <path class="cls-29" d="M123,49.23l-2.19-.11a1.45,1.45,0,0,0-.14,2.89l2.19.1a1.44,1.44,0,1,0,.14-2.88Z"></path> <path class="cls-30" d="M126.61,55.53l-1.85-1.18a1.45,1.45,0,0,0-1.55,2.44L125.06,58a1.45,1.45,0,0,0,1.55-2.44Z"></path> <path class="cls-30" d="M131.08,54.07l2.1-.62a1.45,1.45,0,0,0-.81-2.78l-2.11.62a1.45,1.45,0,0,0,.82,2.78Z"></path> <path class="cls-30" d="M135.38,58.83l2.1-.62a1.43,1.43,0,0,0,1-1.79,1.45,1.45,0,0,0-1.79-1l-2.1.61a1.45,1.45,0,1,0,.81,2.78Z"></path> <path class="cls-30" d="M135.53,48.86l1.07-1.92a1.45,1.45,0,0,0-2.53-1.4L133,47.46a1.44,1.44,0,0,0,2.52,1.4Z"></path> <path class="cls-30" d="M114.22,54.17l1.56-1.54a1.45,1.45,0,0,0-2-2.06l-1.56,1.54a1.45,1.45,0,1,0,2,2.06Z"></path> <path class="cls-30" d="M140.9,60.68l2.1-.61a1.45,1.45,0,1,0-.81-2.78l-2.1.62a1.44,1.44,0,0,0,.81,2.77Z"></path> <path class="cls-31" d="M87.58,67.93h-2.2a1.45,1.45,0,0,0,0,2.9h2.2a1.45,1.45,0,0,0,0-2.9Z"></path> <path class="cls-31" d="M167.05,90.15l2.15-.42a1.45,1.45,0,1,0-.55-2.84l-2.15.42A1.45,1.45,0,0,0,165.35,89,1.47,1.47,0,0,0,167.05,90.15Z"></path> <path class="cls-31" d="M137.14,105.29l2-1a1.45,1.45,0,0,0-1.31-2.58l-2,1a1.44,1.44,0,1,0,1.32,2.57Z"></path> <path class="cls-32" d="M121.17,99.17l2.15.41a1.45,1.45,0,0,0,.54-2.84l-2.16-.41A1.47,1.47,0,0,0,120,97.49,1.45,1.45,0,0,0,121.17,99.17Z"></path> <path class="cls-32" d="M147.25,94.4l-1.67,1.43a1.45,1.45,0,0,0,1.88,2.2l1.67-1.42a1.45,1.45,0,0,0-1.88-2.21Z"></path> <path class="cls-28" d="M133.81,103.68,132,102.5a1.45,1.45,0,0,0-1.56,2.44l1.85,1.18a1.45,1.45,0,1,0,1.56-2.44Z"></path> <path class="cls-31" d="M110.11,90l2.16.4a1.44,1.44,0,1,0,.53-2.84l-2.15-.41a1.45,1.45,0,0,0-.54,2.85Z"></path> <path class="cls-28" d="M104.57,85.89l-1.67,1.42a1.44,1.44,0,1,0,1.87,2.2l1.67-1.42a1.44,1.44,0,1,0-1.87-2.2Z"></path> <path class="cls-28" d="M130.07,98.83l-1.85-1.18a1.44,1.44,0,1,0-1.56,2.43l1.85,1.18a1.44,1.44,0,1,0,1.56-2.43Z"></path> <path class="cls-28" d="M159.7,92.21l2,.89a1.45,1.45,0,0,0,1.16-2.65l-2-.88a1.44,1.44,0,0,0-1.16,2.64Z"></path> <path class="cls-31" d="M157.41,99.26l2-1a1.45,1.45,0,1,0-1.25-2.61l-2,1a1.44,1.44,0,0,0,1.24,2.61Z"></path> <path class="cls-28" d="M92.06,72.42l-2.19-.11a1.45,1.45,0,0,0-.15,2.89l2.19.11a1.45,1.45,0,0,0,.15-2.89Z"></path> <path class="cls-33" d="M83.6,72.53l-1.85-1.18a1.44,1.44,0,0,0-1.55,2.43L82.05,75a1.44,1.44,0,0,0,1.55-2.43Z"></path> <path class="cls-33" d="M166.22,95.34h2.2a1.45,1.45,0,0,0,1.44-1.45,1.46,1.46,0,0,0-1.46-1.44h-2.19a1.46,1.46,0,0,0-1.44,1.46A1.45,1.45,0,0,0,166.22,95.34Z"></path> <path class="cls-34" d="M64.61,38.47l.2-.12L62,36.48a126.66,126.66,0,0,1,15.72-6.55l2.19,2.14A120,120,0,0,0,64.61,38.47Z"></path> <path class="cls-35" d="M118.42,24.53q-1.62.11-3.21.27l-3.19.31-3.16.39-1.59.2-1.56.24-3.12.48L99.5,27c-2.07.35-4,.84-6.08,1.26L91.81,26c2.11-.44,4.18-1,6.34-1.32l3.21-.59,3.26-.51,1.62-.25,1.65-.2,3.3-.41,3.32-.32c1.11-.12,2.22-.21,3.34-.28Z"></path> <path class="cls-36" d="M159.06,26.28l-3.13-.49-3.17-.41c-2.1-.3-4.25-.45-6.38-.68-4.28-.32-8.59-.6-12.92-.62l.07-2.47c4.5,0,9,.31,13.46.65,2.21.23,4.45.39,6.64.71l3.3.42,3.26.51Z"></path> <path class="cls-37" d="M195.36,37.07c-1.72-.76-3.4-1.55-5.2-2.25-.9-.35-1.77-.72-2.68-1.06l-2.75-1c-.91-.34-1.85-.65-2.8-.95l-2.83-.92-2.91-.83c-1-.29-1.94-.56-2.94-.8L175,27c1,.25,2,.54,3.06.83l3,.88,3,.95q1.49.46,2.91,1l2.87,1c.94.36,1.86.74,2.79,1.11,1.88.73,3.63,1.55,5.42,2.35Z"></path> <path class="cls-38" d="M221.57,55.17A74.3,74.3,0,0,0,206.42,43l3.13-1.68A77.58,77.58,0,0,1,225.33,54Z"></path> <path class="cls-39" d="M233.46,77.71a40.06,40.06,0,0,0-5.7-14.58l4-.83a41.6,41.6,0,0,1,5.94,15.19Z"></path> <path class="cls-40" d="M229.17,101.08a37.33,37.33,0,0,0,4.6-14.67l4.28.14a38.94,38.94,0,0,1-4.8,15.29Z"></path> <path class="cls-41" d="M209.36,121.55a77,77,0,0,0,7.82-5.93,62.93,62.93,0,0,0,6.4-6.48l3.85,1.1a65.18,65.18,0,0,1-6.67,6.75,80.41,80.41,0,0,1-8.14,6.18Z"></path> <path class="cls-42" d="M177.24,135.89c3.9-1.06,7.59-2.35,11.22-3.69s7.06-2.86,10.28-4.51l2.81,1.87c-3.36,1.73-7,3.24-10.71,4.71s-7.63,2.73-11.7,3.84Z"></path> <path class="cls-43" d="M137.87,141.78a170.75,170.75,0,0,0,25.41-2.66l1.32,2.36a178.34,178.34,0,0,1-26.48,2.77Z"></path> <path class="cls-44" d="M97.54,138.31a172,172,0,0,0,25.26,3.29l-.38,2.46a177.65,177.65,0,0,1-26.31-3.43Z"></path> <path class="cls-45" d="M62.72,126a119.51,119.51,0,0,0,21,8.74l-2,2.17a124.34,124.34,0,0,1-21.94-9.1Z"></path> <path class="cls-46" d="M38.88,106.84c.42.57.89,1.14,1.38,1.69l1.45,1.68,1.59,1.64A22.92,22.92,0,0,0,45,113.46l1.72,1.59c.6.53,1.24,1,1.85,1.55,1.2,1,2.58,2,3.9,3l-3.34,1.54c-1.38-1-2.8-2-4.06-3.13-.64-.54-1.31-1.06-1.92-1.61l-1.8-1.65c-.62-.55-1.18-1.11-1.72-1.69l-1.66-1.7-1.5-1.75A21.06,21.06,0,0,1,35,107.84Z"></path> <path class="cls-47" d="M29.92,83.87A35.9,35.9,0,0,0,31,91.32c.4,1.23.66,2.47,1.18,3.69l.71,1.82.85,1.81-4.12.66-.89-1.89L28,95.51c-.54-1.27-.82-2.56-1.23-3.84a37.62,37.62,0,0,1-1.11-7.77Z"></path> <path class="cls-48" d="M37.14,60.75c-.73,1.17-1.58,2.31-2.19,3.51L34,66l-.84,1.8-.41.9-.35.92-.68,1.82-.53,1.85a15.15,15.15,0,0,0-.46,1.85l-4.25-.33a14.57,14.57,0,0,1,.48-1.92L27.48,71l.71-1.9.36-.95.44-.94.87-1.88,1-1.86c.63-1.24,1.52-2.44,2.28-3.66Z"></path> <path class="cls-49" d="M54.85,44.09A75.43,75.43,0,0,0,43.75,53l-3.7-1.26A77.71,77.71,0,0,1,51,42.88l3.21,1.6Z"></path> <path class="cls-3" d="M200,124.2c-4.15,2.4-4.13,6.31.05,8.72a16.69,16.69,0,0,0,15.11,0c4.16-2.4,4.14-6.31,0-8.72A16.69,16.69,0,0,0,200,124.2Z"></path> <path class="cls-50" d="M197.6,110.36l-.9,15h0c.07,1.56,1.12,3.1,3.18,4.29,4.26,2.46,11.14,2.48,15.37,0a5.5,5.5,0,0,0,3.1-4h.06l-.9-14.89Z"></path> <ellipse class="cls-51" cx="207.56" cy="110.79" rx="5.75" ry="9.97" transform="translate(95.65 317.75) rotate(-89.69)"></ellipse> <ellipse class="cls-52" cx="207.56" cy="110.58" rx="5.49" ry="9.5" transform="translate(95.86 317.54) rotate(-89.69)"></ellipse> <path class="cls-53" d="M201.78,108.5v2h0a2.94,2.94,0,0,0,1.7,2.28,9,9,0,0,0,8.17,0,2.9,2.9,0,0,0,1.65-2.15h0v-1.84Z"></path> <path class="cls-54" d="M202.78,104c-2.63,1.51-2.61,4,0,5.5a10.52,10.52,0,0,0,9.54,0c2.62-1.51,2.61-4,0-5.51A10.55,10.55,0,0,0,202.78,104Z"></path> <path class="cls-50" d="M199.88,103.12v3.71h0a3.9,3.9,0,0,0,2.24,3,12,12,0,0,0,10.87,0,3.93,3.93,0,0,0,2.2-2.87h0v-3.53Z"></path> <path class="cls-51" d="M202.11,99.72c-3,1.72-3,4.53,0,6.27A12,12,0,0,0,213,106c3-1.73,3-4.54,0-6.27A12,12,0,0,0,202.11,99.72Z"></path> <path class="cls-52" d="M202.32,99.8c-2.83,1.63-2.82,4.3,0,5.94a11.37,11.37,0,0,0,10.3,0c2.83-1.64,2.82-4.3,0-6A11.42,11.42,0,0,0,202.32,99.8Z"></path> <ellipse class="cls-3" cx="189.1" cy="134.74" rx="3.52" ry="6.1" transform="translate(53.33 323.11) rotate(-89.69)"></ellipse> <path class="cls-50" d="M183.17,124.39l-.17,8.27h0a3.08,3.08,0,0,0,1.79,2.41,9.52,9.52,0,0,0,8.62,0,3.08,3.08,0,0,0,1.74-2.28h0l-.17-8.35Z"></path> <path class="cls-51" d="M184.89,122c-2.31,1.34-2.3,3.5,0,4.85a9.29,9.29,0,0,0,8.39,0c2.3-1.33,2.29-3.5,0-4.84A9.29,9.29,0,0,0,184.89,122Z"></path> <path class="cls-52" d="M185.09,122c-2.21,1.27-2.2,3.34,0,4.62a8.84,8.84,0,0,0,8,0c2.2-1.27,2.19-3.34,0-4.62A8.84,8.84,0,0,0,185.09,122Z"></path> <path class="cls-53" d="M185.66,123.11v1.17h0a1.75,1.75,0,0,0,1,1.36,5.36,5.36,0,0,0,4.87,0,1.73,1.73,0,0,0,1-1.28h0v-1.1Z"></path> <path class="cls-54" d="M186.25,120.43c-1.56.9-1.56,2.37,0,3.28a6.31,6.31,0,0,0,5.68,0c1.56-.91,1.55-2.37,0-3.28A6.25,6.25,0,0,0,186.25,120.43Z"></path> <path class="cls-50" d="M184.52,119.91v2.21h0a2.33,2.33,0,0,0,1.34,1.8,7.13,7.13,0,0,0,6.47,0,2.32,2.32,0,0,0,1.31-1.7h0v-2.1Z"></path> <path class="cls-51" d="M185.85,117.88c-1.78,1-1.77,2.7,0,3.74a7.16,7.16,0,0,0,6.47,0c1.78-1,1.78-2.7,0-3.74A7.16,7.16,0,0,0,185.85,117.88Z"></path> <path class="cls-52" d="M186,117.93c-1.69,1-1.68,2.56,0,3.54a6.79,6.79,0,0,0,6.13,0c1.69-1,1.68-2.56,0-3.54A6.76,6.76,0,0,0,186,117.93Z"></path> <path class="cls-55" d="M221.57,50.26a9.2,9.2,0,0,1-8.32,0c-2.3-1.33-2.32-3.48,0-4.8a9.2,9.2,0,0,1,8.32,0C223.85,46.78,223.86,48.93,221.57,50.26Z"></path> <path class="cls-56" d="M222.1,2.34h0c-1.79-.74-4.12-.48-6.67,1-5.63,3.25-10.19,11.12-10.19,17.58,0,8.8,10.19,18.8,10.19,18.8L219,41.54,225.68,4.2Z"></path> <path class="cls-56" d="M219,5.16c5.63-3.25,10.19-.65,10.19,5.82,0,8.79-10.19,30.56-10.19,30.56s-10.2-10-10.2-18.79C208.75,16.28,213.32,8.41,219,5.16Z"></path> <path class="cls-57" d="M213,20.27c0,3.74,2.65,5.25,5.91,3.37a13,13,0,0,0,5.91-10.19c0-3.74-2.65-5.25-5.91-3.37A13,13,0,0,0,213,20.27Z"></path> <path class="cls-58" d="M209.06,23.07c0-6.39,4.51-14.17,10.08-17.39C224,2.88,228,4.48,229,9.17c-.79-5.11-5-6.93-10.05-4-5.63,3.25-10.2,11.12-10.2,17.59,0,8.79,10.2,18.79,10.2,18.79l0,0C217.72,40.22,209.06,31.14,209.06,23.07Z"></path> <path class="cls-59" d="M242.75,11h0a1.25,1.25,0,0,0-1.27,0l-3.9,2.24c-.33-2.86-1.57-5-3.59-6.2a7.42,7.42,0,0,0-6-.47l.49-5.37L227.1.3a1.73,1.73,0,0,0-.32-.2h0a1.3,1.3,0,0,0-.49-.1,1.4,1.4,0,0,0-1.4,1.4V8c-6,3.68-10.57,11.75-10.59,18.66l-4.49,2.6a1.29,1.29,0,0,0-.48,1.77,1.18,1.18,0,0,0,.39.41h0l1.64,1,3.4-2.36a7.16,7.16,0,0,0,3.23,4.4,6.66,6.66,0,0,0,3.38.88,9.69,9.69,0,0,0,3.52-.75v6.44a1.35,1.35,0,0,0,.62,1.12v0l1.64,1,.1-1.17a1.36,1.36,0,0,0,.45-1V37l.36-4.12a24.54,24.54,0,0,0,9.52-16.28l3.4-2.36,1.8-1a1.18,1.18,0,0,0,.5-.56l1-.71Zm-11.6,5.95a1.3,1.3,0,0,0-.48,1.77,1.42,1.42,0,0,0,.4.41h0l1.49,1,.89-1.42,0,0,1.09-.64c0,.17-.05.34-.09.5l-.06.22c-.14.54-.3,1.07-.49,1.61,0,.07,0,.14-.07.21-.21.58-.45,1.15-.71,1.72l-.09.2a23.48,23.48,0,0,1-2,3.4l-.06.09a21.72,21.72,0,0,1-2.57,3c-.24.22-.47.44-.71.64v-.18l.89-1.85-1.55-1h0a1.43,1.43,0,0,0-.73-.23,1.4,1.4,0,0,0-1.4,1.4v3.82a7.72,7.72,0,0,1-3.58,1q-.36,0-.69-.06a3.42,3.42,0,0,1-1.93-1l-.13-.14a4.35,4.35,0,0,1-.57-.75h0a5.27,5.27,0,0,1-.43-1,.56.56,0,0,1,0-.12,7.7,7.7,0,0,1-.29-1.17c0-.13,0-.26-.05-.4l4.23-2.44s0,0,0,0l.34.18L223,24.36l-1.7-1.12,0,0a1.28,1.28,0,0,0-1.17,0L217.2,25c0-.34.1-.68.16-1v-.06h0a21.24,21.24,0,0,1,2.09-5.79h0c.39-.72.81-1.43,1.26-2.11h0a20.58,20.58,0,0,1,4.15-4.58v3.32a1.38,1.38,0,0,0,.78,1.23h0l1.45.92.95-1.3-.5-.27a1.46,1.46,0,0,0,.14-.59V9.66l.05,0a8.13,8.13,0,0,1,2-.61,4.8,4.8,0,0,1,.91-.08,4.76,4.76,0,0,1,2,.5c1.46.85,2.28,2.74,2.29,5.34Z"></path> <path class="cls-60" d="M222.74,36.29a6.69,6.69,0,0,1-3.37-.87c-2.38-1.38-3.7-4.15-3.7-7.81,0-7.08,4.83-15.41,11-19,3.21-1.85,6.3-2.11,8.7-.73s3.69,4.15,3.69,7.81c0,7.08-4.83,15.41-11,19A10.74,10.74,0,0,1,222.74,36.29ZM232,9.83a8.13,8.13,0,0,0-3.92,1.23c-5.29,3.06-9.59,10.48-9.59,16.55,0,2.62.82,4.53,2.29,5.38s3.6.61,5.91-.73c5.29-3,9.59-10.47,9.59-16.54,0-2.62-.81-4.53-2.29-5.38A3.88,3.88,0,0,0,232,9.83Z"></path> <path class="cls-60" d="M227.66,17h0a1.4,1.4,0,0,1-1.4-1.4V2.29A1.4,1.4,0,0,1,227.66.9h0a1.4,1.4,0,0,1,1.4,1.39V15.62A1.4,1.4,0,0,1,227.66,17Z"></path> <path class="cls-60" d="M227.66,43.38h0a1.4,1.4,0,0,1-1.4-1.4V28.65a1.4,1.4,0,0,1,1.4-1.39h0a1.4,1.4,0,0,1,1.4,1.39V42A1.4,1.4,0,0,1,227.66,43.38Z"></path> <path class="cls-60" d="M232.07,19.6h0a1.3,1.3,0,0,1,.47-1.78l10.31-6a1.3,1.3,0,0,1,1.77.48h0a1.29,1.29,0,0,1-.47,1.77l-10.31,6A1.29,1.29,0,0,1,232.07,19.6Z"></path> <path class="cls-60" d="M210.7,31.93h0a1.29,1.29,0,0,1,.48-1.77l10.3-5.95a1.3,1.3,0,0,1,1.78.47h0a1.29,1.29,0,0,1-.48,1.77l-10.3,5.95A1.3,1.3,0,0,1,210.7,31.93Z"></path> <path class="cls-55" d="M75.14,36.61a9.2,9.2,0,0,1-8.32,0c-2.31-1.33-2.32-3.48,0-4.8a9.2,9.2,0,0,1,8.32,0C77.42,33.13,77.43,35.28,75.14,36.61Z"></path> <ellipse class="cls-16" cx="61.01" cy="119.84" rx="11.64" ry="20.17" transform="translate(-59.15 180.2) rotate(-89.69)"></ellipse> <circle class="cls-61" cx="63.01" cy="106.73" r="22.08"></circle> <circle class="cls-62" cx="63.01" cy="106.73" r="20.19" transform="translate(-36.05 32.24) rotate(-22.5)"></circle> <path class="cls-63" d="M44.35,111.36h0Z"></path> <path class="cls-64" d="M57.32,87.36a19.51,19.51,0,0,1,5.15-.81l.08.1L62,87.1v.47l-.14.41-.58.35-.52.46-.35.81-.51.77-.33,1-.11.21h-.34L59,91.49l-.1-.2-.25,0-.17.12-.33.08L58,91.08l-.12-.29,0-.25v-.3l-.17-.37-.12-.36v-.45l-.2-.35s0,.35,0-.54S56.79,88.16,57.32,87.36Zm25.44,20.36-.5.32-.73-.27.12-.42,0-.62-.17-.11-.15.23s-.27.54-.27.12v-.42l.13-.26-.23-.43-.28-.57v-.59l.14,0,.07-.27.2.27.18-.22.38,1.21L82,106l.25.33.23.26.31.28.21-.28.19.23v-.1a20.2,20.2,0,0,0-9.55-17.16l-.3.2-.18.41-.24.12-.26.21-.29-.26s.3-.19-.06-.14l-.36,0-.8.27-.08-.05,0-.45-.3,0-.35.23-.19.08L70.3,90l.1-.07v-.13h-.14l-.11,0-.06-.07.06-.09-.09-.15,0-.16.09-.12.17-.19,0-.14s-.06,0,0-.13l0-.14.1-.06.07-.14v-.15l-.06,0-.11,0-.08.14-.12,0-.1,0,0,0-.11,0,0,.07-.11,0-.09,0a.33.33,0,0,1,0,.17l0,.13-.09.19,0,.19,0,.16-.07.07-.05.15s.07.11.12,0l0-.07.08,0-.07.11h-.06l0,.11.12,0,0,.1s0-.1-.1,0l-.08.12-.08,0,0-.06,0-.09s0,0-.09,0l-.06,0h-.08L69,90l0,.08-.11,0-.13,0s.06,0,0-.05l0-.06-.15,0-.08.09,0,0-.14.06v.12l0,.13-.14.12-.09.12-.06.06-.11,0h-.09l-.2.12-.11.09h-.11l-.12,0-.1.12.07.07,0,.12-.06.06-.18.13-.08,0H66.7l-.06,0-.09.08v.15h-.11l-.06,0-.09,0h-.11l0,0,0,0,0-.05,0-.06,0,0-.08,0,0,0v0l0,0v0l0,.06,0,.07,0,.1v.07l0,0v0l0,.08v0l0,0v0l0,0-.06,0-.13-.06-.09,0h0v-.1l-.08-.05h-.15l-.06,0h-.11l-.1,0H65l-.08,0,0,0,0,.07s0,0,0,0l0,0L65,92V92l0,0,0,.1.06,0h.08l.06,0,0,0h.06l.09.07,0,0h0s0,0,0,.06l0,.05h.06l.08,0v0l0,0v.06l0,0,.08,0,0,.05-.05,0,0,.07v.08l0,0,0,0V93h0l.07,0,0,.08,0,0-.06.11.05.08,0,.06,0,.11,0,.13-.07.06,0,.17v.14l-.11.16-.05.12,0,.07h-.09l0,0h-.13l-.06,0,0-.09h0l0,0-.05,0-.11-.1h-.33l-.1,0,0,0-.05,0H64l-.11,0-.07,0L63.75,94h-.18V94s.09,0,0-.07l-.11,0h-.09l-.06,0-.05.06v0s0,0,0,0h0l-.09,0-.14.06-.06.07,0,.12.06,0v.07l0,0-.05,0-.08.18,0,.15V95l0,.11-.05.22-.07.22-.09.07-.14.2-.13.16-.1.23.06.22.12,0,.06,0v.06l-.06.08-.09.12v.14l-.06.09v.09l-.09.13,0,0,.08,0,.14,0,0,0,0,0,.16,0,0-.08.09,0,0,0v.06l.17.09,0,.06,0,.1,0,.1v.07l.05.07,0,0v.1l.06,0,.09,0,.08,0,.09,0,.06-.08.09-.08.08,0,.1,0,.16,0h.22l.13.08.11,0h.13l0-.06,0,0,0-.14.21-.09.07,0,0,0H65v-.22l.07-.11,0-.07.07,0,.05,0h.1V97l.11,0v-.06l-.08-.08-.07,0V96.5l.07-.09.12-.1.31-.29,0-.13,0-.07h.24s0,0,.09,0l.07-.07h.14l.09,0,0-.07.16,0,.05-.06v-.14l0-.12,0-.09.06-.13.06-.07.07-.08h.08l0,0s0,0,0,0l.05,0,.08,0,.14.06h.1l.09.07.13.07.11,0,.17,0L68,95h.07l0,0s0,0,0,0h0l.06,0,.06-.11,0-.07.08-.09,0-.06.1,0h0l.05,0,.15,0,0,0,0,.07,0,.05s-.09,0,0,.1L69,95h.06l0,.07,0,.14,0,.12.07,0,0,.09,0,0H69l0,.07,0,0,.06,0,.08,0,.06-.12,0,0,0,.07.06.06v.19a.21.21,0,0,1,.12,0l.06,0,0,.07,0,.07,0,.06h0v.16l.09.09.13,0v.07l.1,0,.07.08.08.16.07.06.09,0-.07.1.06,0h.09l.06,0,0,.12.09.07,0,.08.11,0,.06,0,0,.14,0,.18,0,.09,0,.11,0,.08h0l0,.15-.06,0h-.1l-.07,0h-.09l-.08,0-.12.06s0,0-.12,0l-.15,0s.08-.06,0-.11l-.13,0-.05,0s0-.11-.07,0l-.1.08v.28l.16.05.1.11.11.09.1.11.06,0,.06.15.1,0h.11l0-.11.09-.14,0-.11v-.13l.08-.11.06-.07,0,0v.06l.07,0,.07,0,0-.08v-.09l.08,0,0,0,.05,0v-.06s-.09,0,0-.12l.08-.11.06,0,0,0,0,0,.06-.06v-.09l.08-.14,0-.07-.09,0-.1-.07,0-.09v-.06l.16-.21,0,0h.07l0,.06,0,0,.11,0v0l0,0,0,0,0,.13,0,.13.08,0,.07-.09v-.14l0-.15L71.35,97l-.17-.11,0-.11L71,96.71l-.13,0-.07-.12v-.05h.11v-.06l0-.11-.08-.06h-.16l-.06,0h-.08l0,0-.22-.4,0-.18,0-.13,0-.11-.11-.19L70,95.13,69.91,95l0-.07,0-.13v-.11H70l0,0v-.13h0v-.08l0-.05h.13l.07-.1h0l0,0,0,0v.08s-.12,0,0,.08l.1,0,0,0v.11l-.06.06.08.1h0l0-.08,0,.07v.06l0,.05.06,0h0l0-.15.09.15.06.1-.06.06,0,.06v.07l0,0,.16.07.09.11,0,.07,0,.08,0,0v.07h.08s.08-.07.05,0,0,.06,0,.1l0,0,0,0,.14,0,.06,0,.14,0s.06,0,.09.09l0,.09.14.16s.09-.06.1.08v.23l.1,0h0s-.06.13-.11.15l0,0,0,.09,0,.21-.05.1,0,.16.07,0,0,.07H72l0,.08v0h-.08v0l0,.07s0,0,0,.06,0,.07,0,.07l.08.08.13,0,0,.08.11.12v0s-.11-.09,0,.09a1.44,1.44,0,0,0,.06.18v.08l.13,0,0-.06.15.06.14.06h.09l0,0h.1l.06,0v.23l.1.06h.06l.08.15.1,0,0-.12-.06-.08v-.09l0,0,0,.12.13.06.06-.07,0,0v-.12H73.3l0,0,0-.13-.06-.07-.06-.08v-.07l-.09-.06L73,97.91l-.08-.08,0-.12,0-.14,0-.1h0s0,0,0,0l0,0,.09.1,0,0h.11l.06-.06,0,0,0-.08.09,0,0-.09.09,0h.12l0,.08.07,0,.07.06.15,0v.08s-.15,0,0,.07l.13.09h.09v0l0,.09,0,0-.06,0,0-.06-.08,0,0,.06v.22l0,.07,0,0h0l-.08.06,0,.05,0,0,.09,0H74l0,0,.06,0,0-.1.07-.09h.06l0,0,0,.11-.06.1.06.08-.07,0-.07,0-.07,0-.06,0h-.06l0,0,0,.07v.08s0,.1,0,.12h.09l0-.08,0,0,0,.07v.12s0,.06,0,0h.13l.09.09,0,.07,0,0-.11-.05-.06,0,0,.09v.08l0,0,.08,0,0,0v.1l.08,0-.07,0s0,0,0,.07l0,0-.07,0,0,.09-.06.09h.12l0-.09,0,0,0-.11h.13s.16,0,.1,0l-.06,0H74.3l-.06.07,0,.06.11,0,0,.1s0-.07-.06,0-.08.08-.08.08v.13l.06,0,.14-.07,0-.06,0-.09v-.13l.1,0v.1l.08.06,0,0,.07,0v.1l-.05.08,0,.11.11.07.1,0,.06,0h.1l.06-.1.06-.09,0-.15.09-.08.1,0,.06.08.25.12v.11l.09.15.25.11.1,0,.08,0,.13,0,0-.16.06-.06.12-.1.06.14.1,0,.11,0,0-.08.08-.09,0,0,.08,0,0,.09-.11,0,0,.11v.08l-.1.16,0,.13.12.22-.11.09v.07l0,.09-.1.09-.15.33,0,.18-.11.15-.25.7-.15.13H76s0-.08-.23,0l-.25,0-.15-.31-.16,0-.12-.09-.23,0-.12.1-.19.07-.11.11h-.15l-.08-.16-.19,0-.41-.31-.56-.11-.24-.38-.45-.17-.25-.42-.43.1-.39.06v.46l0,.42-.3.07-.24-.28-.2-.34-.43,0-.26-.41,0-.34-.35-.15-.35,0-.6-.29-.27-.51.24-.43.17-.18-.07-.4.28-.5-.24-.13-.16.1-.06-.2s.14-.19-.33,0l-.47.16-.38-.16L66.68,98,65.57,98l-.79.22-.41.21-.47-.12-.3-.27-.2.14-.16-.2H63l-.16.34-.26.32-.53.28-.57.37-.25.68.07.42-.39.53-.54.27-.63.22-.27.43-.49.23-.21.71-.54.43-.32.7-.37.43.05.35.32.11-.19.35-.07.27,0,.5-.22.6-.16.34-.07.24-.36.48.18.56-.18.41-.08.41.19.34.2-.06.11.4.22.55.13.06-.07.85.45.77.43.59.4.74.43.41.45-.11.2-.22.76.05.31.37.38.11.17-.25.17.1.44-.3.38,0,.88-.11.43.13.07.57,0,.44.3.13.15-.08.55,0,.33.3.07.52-.12.75-.19.22,0,.36-.27.34-.14.66.62,1.76.26.52-.32.3.36.94-.2.5.23,1-.24.72-.35.14-.43.39-.12.81-.22.72-.1.59.15.55,0,.26a20.12,20.12,0,0,0,10.34-3.6v-.63l.25-.16-.19-.43.49-.89.36-.71.35-.24.27-.24.23-.55L77,119l.72-.55.71-.55.57-.76.36-.47.42-.85.36-.57.15-.4.25-.15.13-.25-.19-.1.12-.41.1-.07-.26-.07-.08-.1-.08.21-.15.07-.24,0h-.17l-.32-.1-.39,0-.23.29-.33-.26-.22.17-.37-.1v-.3l-.11-.15h-.23l.07-.18.15-.05.12-.11-.05-.14.06-.32-.19-.09-.18-.16v-.22l-.15-.26,0-.2-.2-.18-.24-.12-.19-.32,0-.55-.11-.18.08-.45-.22-.17-.19,0L76,108.11l0-1.84L75.41,105l-.25-1.36.29-.15.62.9.2.46a5.94,5.94,0,0,1,.41,1.61l.14,1,.49,1.47.87,1.5-.29,1.18.29,1.24,1.15-.14,1.31-.43.61-.31v-.47l.92,0,.4-.26.15-.18a19.94,19.94,0,0,0,.48-4.05ZM53.31,89v.07l.35.18.32.07s.14.23.34-.18l.19-.42.25-.23.36-.13-.22.69.2.31.2.26-.41.42.16.34.31.06,0,.2.43.15.07.18-.11.23,0,.18.34.12L55.9,92l.08.26a.6.6,0,0,0-.59.13l-.24.26-.2,0-.55.31-.14.18-.62,0-.06-.21-.71-.06-.35.21-.25.21-.72.12-.17.31-.2.26-.49.36h.49l.44-.36.3-.29.28-.15.27-.07.22,0h.41l.21.06L53,93.8l-.42.27,0,.3.26.33.38.19.11-.07.32-.22.12-.4h.37s-.37.26-.25.41l.12.14-.11.31-.38.09-.11.21-.51.08-.34,0-.14.23-.37.27h-.33l0-.25.44-.21.09-.24s0-.29-.23-.07-.19.17-.19.17l-.29.13-.45.14-.26,0s-.08-.12-.33.27l-.26.38,0,.19-.22,0,.17.22.26-.08,0,.22-.13.11-.22.06h-.14l-.16-.09-.07,0-.42,0-.1.2.24.14-.21.12-.3,0,0,.4-.35.17-.06.2-.14-.23-.13-.11.06.24.14.19-.12.2-.17.2-.17.22s-.13.06,0-.17.18-.09.1-.24l-.07-.14s.06-.68-.07,0c-.07.35-.15.35-.19.32l.06.1a.86.86,0,0,1,.07.14s.11,0,.12.22l0,.31-.24.11v.22l-.13.15-.13-.06,0,.17-.14.15h-.15l-.14.13-.09.18-.21,0-.11.1-.16.28-.46.28s-.16-.18-.26.24a2.8,2.8,0,0,1-.09.39l-.12.22.07.32,0,.35-.07.17.12.14-.05.24,0,.34.12.16-.12.27-.19.2v.22l-.16.07-.15-.12-.09-.28-.12-.16v-.19l0-.17a.33.33,0,0,1-.1-.28l0-.16.12-.34v-.32l-.13,0-.21-.24-.08-.15-.13.09v.22l-.15,0-.1-.21-.05-.14-.22-.09,0,.09-.18-.06-.13.09-.14-.05.06-.21s-.16-.1-.16,0v.11h-.06A20.25,20.25,0,0,1,53.31,89ZM55,125.25a20.27,20.27,0,0,1-11.21-12.47v0l0-.06.17-.07,0-.08-.07-.07v-.13l.08,0,.06,0,0-.13,0-.13.11-.06.11-.06.1-.06,0-.08c0-.09,0-.1,0-.1l.2-.24-.05,0-.08.06-.08,0h0s0,0,0,0,0,0,0-.08,0-.11,0-.11l.07,0,.06,0V111l.1-.06,0-.16a.46.46,0,0,0-.05-.17l0-.13,0-.06h.06v-.11l-.08-.07v-.1l.06-.08v-.2l-.09-.18-.22-.26v-.36l-.08,0,0-.11-.11,0h-.1l-.09.29h-.17l-.06,0,.07.08,0,0s.1.11.1.11l0,.09,0,0-.06.1-.06,0h-.2l-.06,0c-.06-.06,0-.13,0-.13h-.13v.11l-.07,0-.08,0v-.08l0-.07,0,0,0-.09,0-.08-.08,0-.09,0,0-.09h0c0-.19,0-.39-.07-.59l.07.06c.08.07,0,.08,0,.08l0,.07h.08c.09,0,.09,0,.09,0l.08,0,0,.11h.11l.13-.11,0-.09.14,0,.06,0,0-.08c0-.09,0-.07,0-.07l.09,0h.12v.07l0,0,.13,0,.19.06.09.17.15.2,0,.15,0,.12c0,.12.08.06.08.06l.08-.07,0-.12-.06-.08,0-.07,0-.06.13,0,.05-.17.15-.09.1,0v-.06l0-.15.06-.35.12-.1.1-.12h.06l.11.08,0,0,0-.14.11-.06.1.07H46l.11-.13.06-.11.15,0,0-.1.08-.21.21,0,.11.16,0,.17-.11.13h-.15v.14l.09.06.05-.13.08.13.06-.13.16,0,.1,0v-.08l-.06-.14v-.1l.08-.11c.09-.11.1,0,.1,0l.06.14c.06.13-.06.07-.06.07l0,.11.23.06.32.13-.08.19.08.13.35,0,.17-.06.35.3h.18l.15-.23-.19-.24.17-.14.26,0h.2l.34.17-.34.25.12.17h.21l.26,0,.2.27-.11.14-.15.26.47.23.33.76.31.15.57.28L52,111l0,.83-.33,1.08v.61s0-.61.38.78l.22.35.58.32-.27.43-.18.53.18.53h.56l.09.53.1.7.15.25.4.18-.07.88.28,1.41-.47.85.26.09.45.44-.12.53-.59.38.26.32.63.41.43.42.09,1.09A1.59,1.59,0,0,1,55,125.25Z"></path> <path class="cls-65" d="M75.85,96.38c-.93,1.21-3.4.86-5.52-.78s-3.07-3.94-2.14-5.14,3.4-.86,5.52.77S76.78,95.18,75.85,96.38Z"></path> <path class="cls-66" d="M63,86.54a20.19,20.19,0,1,0,20.2,20.19A20.19,20.19,0,0,0,63,86.54Zm-11.29,31.1c-7.48-7.4-8-19-1.14-26s18.48-6.56,26,.84,8,19,1.13,26S59.2,125,51.72,117.64Z"></path> <path class="cls-56" d="M83.39,99.91A18.14,18.14,0,0,1,89.13,102a7,7,0,0,1,2.5,2.4,5,5,0,0,1,.41,4,13.56,13.56,0,0,1-4,5.6,30.43,30.43,0,0,1-2.45,2c-.42.32-.84.65-1.27.93l-.63.45-.33.22c-.1.08-.25.06-.1.66L80,111.82c.37.49.43.35.54.31l.33-.12.65-.23c.44-.16.86-.34,1.28-.51a24.21,24.21,0,0,0,2.47-1.14A9.67,9.67,0,0,0,89,107.19a2.13,2.13,0,0,0,.29-1.72,4.66,4.66,0,0,0-1.32-2,15.71,15.71,0,0,0-4.8-2.87Z"></path> <polygon class="cls-17" points="77.07 123.73 84.52 119.43 84.52 110.89 77.07 115.19 77.07 123.73"></polygon> <polygon class="cls-18" points="84.52 110.89 77.07 115.19 81.09 113.04 84.52 110.89"></polygon> <polygon class="cls-15" points="77.07 123.73 69.63 119.43 69.63 110.89 77.07 115.19 77.07 123.73"></polygon> <polygon class="cls-21" points="77.07 115.19 69.63 110.89 77.07 106.59 84.52 110.89 77.07 115.19"></polygon> <polygon class="cls-67" points="80.43 116.63 81.62 115.94 81.62 112.56 80.43 113.25 80.43 116.63"></polygon> <polygon class="cls-68" points="80.43 113.25 72.98 108.95 74.18 108.26 81.62 112.56 80.43 113.25"></polygon> <polygon class="cls-18" points="69.63 110.89 77.07 115.19 73.06 113.04 69.63 110.89"></polygon> <polygon class="cls-69" points="73.84 116.7 72.65 116.01 72.65 112.64 73.84 113.33 73.84 116.7"></polygon> <polygon class="cls-70" points="73.84 113.33 81.29 109.03 80.09 108.34 72.65 112.64 73.84 113.33"></polygon> <polygon class="cls-23" points="73.29 113.01 80.73 108.71 80.65 108.66 73.21 112.96 73.29 113.01"></polygon> <polygon class="cls-15" points="73.84 113.33 73.84 113.47 73.12 113.07 72.65 112.78 72.65 112.64 73.84 113.33"></polygon> <polygon class="cls-15" points="81.09 113.04 80.43 113.39 80.43 113.25 81.62 112.56 81.62 112.71 81.09 113.04"></polygon> <path class="cls-56" d="M73.79,118.23a2.59,2.59,0,0,1-2.18,3.14,89,89,0,0,1-11.28.83,60.05,60.05,0,0,1-14.06-1.37,32.39,32.39,0,0,1-6.76-2.33,23.13,23.13,0,0,1-3.12-1.8A8.39,8.39,0,0,1,33.68,114a4.49,4.49,0,0,1-.57-2,4.36,4.36,0,0,1,.43-2,8.65,8.65,0,0,1,2.3-2.93,24,24,0,0,1,6-3.68l.32.68a23.33,23.33,0,0,0-5.39,4A7.33,7.33,0,0,0,35,110.48a2.7,2.7,0,0,0,.28,2.52c1,1.5,3.22,2.49,5.2,3.3A29.82,29.82,0,0,0,46.83,118a56.92,56.92,0,0,0,13.31.26,87.44,87.44,0,0,0,11.21-1.75,2,2,0,0,1,2.37,1.47Z"></path> </g> </g> </g> </svg> 