<?xml version="1.0" encoding="UTF-8"?> <svg xmlns="http://www.w3.org/2000/svg" xmlns:xlink="http://www.w3.org/1999/xlink" viewBox="0 0 263.39 201.78"> <defs> <style>.cls-1{isolation:isolate;}.cls-2{fill:#6772ff;}.cls-3{fill:#becdd4;}.cls-18,.cls-20,.cls-21,.cls-28,.cls-3{mix-blend-mode:multiply;}.cls-4{fill:#ffc536;}.cls-5{fill:#dd9a36;}.cls-6{fill:#ffe25b;}.cls-7{fill:#c99a6b;}.cls-8{fill:#ae835b;}.cls-9{fill:#e8b687;}.cls-10{fill:#9c754e;}.cls-11{fill:#54493e;mix-blend-mode:screen;}.cls-12{fill:#87623f;}.cls-13{fill:#d1a986;}.cls-14{fill:#5e2638;}.cls-15{fill:#febfbf;}.cls-16{fill:#ffdc6e;}.cls-17{fill:#7282b5;}.cls-18{fill:#e8d0c8;}.cls-19{fill:#fdd249;}.cls-20{fill:#ffeecf;}.cls-21{fill:#dedede;}.cls-22{fill:#ffadb7;}.cls-23{fill:url(#Безымянный_градиент_46);}.cls-24{fill:#754554;}.cls-25{fill:url(#Безымянный_градиент_43);}.cls-26{fill:url(#Безымянный_градиент_46-2);}.cls-27{fill:#fecb4c;}.cls-28{fill:#fcf5e8;}.cls-29{fill:#725e6d;}.cls-30{fill:#5c6467;}.cls-31{fill:#ebe7e3;}.cls-32{fill:#d9d3cc;}.cls-33{fill:#ded8d1;}.cls-34{fill:#c5c9d8;}.cls-35{fill:#dadae8;}.cls-36{fill:#e7e7f0;}.cls-37{fill:#f4f5fa;}.cls-38{fill:#57565e;}.cls-39{fill:#e5e8f5;}.cls-40{fill:url(#Безымянный_градиент_1914);}.cls-41{fill:#d3d3e3;}.cls-42{fill:#eff0f5;}.cls-43{fill:#fa9698;}.cls-44{fill:#a0978f;}.cls-45{fill:#fcfbfa;}.cls-46{fill:#f1d6bc;}.cls-47{fill:#3f3436;}.cls-48{fill:#e6f1ff;}.cls-49{fill:#c98398;}.cls-50{fill:#8a5757;}.cls-51{fill:#504f60;}.cls-52{fill:#975f5f;}.cls-53{fill:#dde8f6;}.cls-54{fill:#fec7c6;}.cls-55{fill:url(#Безымянный_градиент_43-2);}.cls-56{fill:#3b4549;}.cls-57{fill:#fff98b;}</style> <linearGradient id="Безымянный_градиент_46" x1="145.71" y1="68.93" x2="149.48" y2="73.7" gradientUnits="userSpaceOnUse"> <stop offset="0.12" stop-color="#fca4b5"></stop> <stop offset="0.99" stop-color="#ffadb7"></stop> </linearGradient> <linearGradient id="Безымянный_градиент_43" x1="1993.38" y1="64.93" x2="1997.2" y2="63.2" gradientTransform="matrix(-1, 0, 0, 1, 2138.04, 0)" gradientUnits="userSpaceOnUse"> <stop offset="0.12" stop-color="#feb9b8"></stop> <stop offset="1" stop-color="#ffdede"></stop> </linearGradient> <linearGradient id="Безымянный_градиент_46-2" x1="1995.29" y1="63.56" x2="1994.22" y2="64.91" gradientTransform="matrix(-1, 0, 0, 1, 2138.04, 0)" xlink:href="#Безымянный_градиент_46"></linearGradient> <linearGradient id="Безымянный_градиент_1914" x1="169.19" y1="102.88" x2="187.51" y2="71.15" gradientUnits="userSpaceOnUse"> <stop offset="0.01" stop-color="#a0a6c0"></stop> <stop offset="0.4" stop-color="#a0a6c0"></stop> <stop offset="0.4" stop-color="#a2a8c2"></stop> <stop offset="0.41" stop-color="#b8bcd0"></stop> <stop offset="0.41" stop-color="#c5c8d9"></stop> <stop offset="0.42" stop-color="#c9ccdc"></stop> <stop offset="0.43" stop-color="#d7d9e6"></stop> <stop offset="0.43" stop-color="#e7e7f0"></stop> </linearGradient> <linearGradient id="Безымянный_градиент_43-2" x1="4633.99" y1="42.73" x2="4635.46" y2="42.73" gradientTransform="matrix(-1, 0.02, 0.02, 1, 4836.18, -49.29)" xlink:href="#Безымянный_градиент_43"></linearGradient> </defs> <title>Ресурс 11</title> <g class="cls-1"> <g id="Слой_2" data-name="Слой 2"> <g id="Layer_1" data-name="Layer 1"> <ellipse class="cls-2" cx="131.69" cy="125.74" rx="76.03" ry="131.69" transform="translate(5.24 256.75) rotate(-89.69)"></ellipse> <polygon class="cls-3" points="67.77 129.56 43.61 115.61 111.22 76.54 135.39 90.49 67.77 129.56"></polygon> <polygon class="cls-4" points="113.86 6.94 113.86 37.33 112.02 38.4 112.02 8.01 113.86 6.94"></polygon> <polygon class="cls-5" points="112.02 8.01 112.02 38.4 110.52 37.54 110.52 7.14 112.02 8.01"></polygon> <polygon class="cls-6" points="112.02 8.01 110.52 7.14 112.37 6.08 113.87 6.94 112.02 8.01"></polygon> <polygon class="cls-4" points="131.53 17.14 131.53 47.54 129.68 48.6 129.68 18.21 131.53 17.14"></polygon> <polygon class="cls-5" points="129.68 18.21 129.68 48.6 128.19 47.74 128.19 17.35 129.68 18.21"></polygon> <polygon class="cls-6" points="129.69 18.21 128.19 17.35 130.03 16.28 131.53 17.14 129.69 18.21"></polygon> <polygon class="cls-4" points="131.53 15.29 131.53 17.14 129.69 18.21 129.69 16.36 131.53 15.29"></polygon> <polygon class="cls-5" points="129.69 16.36 129.69 18.21 110.52 7.14 110.52 5.29 129.69 16.36"></polygon> <polygon class="cls-6" points="129.69 16.36 110.52 5.3 112.37 4.23 131.54 15.29 129.69 16.36"></polygon> <polygon class="cls-4" points="113.86 71.43 113.86 81.19 112.02 82.25 112.02 72.5 113.86 71.43"></polygon> <polygon class="cls-5" points="112.02 72.5 112.02 82.25 110.52 81.39 110.52 71.63 112.02 72.5"></polygon> <polygon class="cls-6" points="112.02 72.5 110.52 71.64 112.37 70.57 113.87 71.43 112.02 72.5"></polygon> <polygon class="cls-4" points="131.53 81.64 131.53 91.39 129.68 92.46 129.68 82.7 131.53 81.64"></polygon> <polygon class="cls-5" points="129.68 82.7 129.68 92.46 128.19 91.59 128.19 81.84 129.68 82.7"></polygon> <polygon class="cls-6" points="129.69 82.7 128.19 81.84 130.03 80.77 131.53 81.63 129.69 82.7"></polygon> <polygon class="cls-4" points="131.53 79.78 131.53 81.63 129.69 82.7 129.69 80.85 131.53 79.78"></polygon> <polygon class="cls-5" points="129.69 80.85 129.69 82.7 110.52 71.64 110.52 69.78 129.69 80.85"></polygon> <polygon class="cls-6" points="129.69 80.85 110.52 69.79 112.37 68.72 131.54 79.78 129.69 80.85"></polygon> <polygon class="cls-4" points="129.69 80.85 129.69 82.7 68.87 117.84 68.87 116 129.69 80.85"></polygon> <polygon class="cls-5" points="68.87 116 68.87 117.84 49.71 106.78 49.71 104.93 68.87 116"></polygon> <polygon class="cls-6" points="68.88 116 49.71 104.93 110.52 69.78 129.69 80.85 68.88 116"></polygon> <polygon class="cls-4" points="51.2 107.64 51.2 117.4 49.35 118.47 49.35 108.71 51.2 107.64"></polygon> <polygon class="cls-5" points="49.35 108.71 49.35 118.47 47.86 117.6 47.86 107.85 49.35 108.71"></polygon> <polygon class="cls-6" points="49.36 108.71 47.86 107.85 49.7 106.78 51.2 107.64 49.36 108.71"></polygon> <polygon class="cls-4" points="68.87 117.85 68.87 127.6 67.02 128.67 67.02 118.92 68.87 117.85"></polygon> <polygon class="cls-5" points="67.02 118.92 67.02 128.67 65.52 127.81 65.52 118.05 67.02 118.92"></polygon> <polygon class="cls-6" points="67.02 118.92 65.52 118.05 67.37 116.98 68.87 117.85 67.02 118.92"></polygon> <polygon class="cls-4" points="68.87 116 68.87 117.85 67.02 118.91 67.02 117.06 68.87 116"></polygon> <polygon class="cls-5" points="67.02 117.06 67.02 118.91 47.86 107.85 47.86 106 67.02 117.06"></polygon> <polygon class="cls-6" points="67.03 117.06 47.86 106 49.7 104.93 68.87 116 67.03 117.06"></polygon> <polygon class="cls-4" points="113.86 39.19 113.86 69.58 112.02 70.65 112.02 40.25 113.86 39.19"></polygon> <polygon class="cls-5" points="112.02 40.25 112.02 70.65 110.52 69.78 110.52 39.39 112.02 40.25"></polygon> <polygon class="cls-6" points="112.02 40.26 110.52 39.39 112.37 38.32 113.87 39.19 112.02 40.26"></polygon> <polygon class="cls-4" points="131.53 49.39 131.53 79.78 129.68 80.85 129.68 50.46 131.53 49.39"></polygon> <polygon class="cls-5" points="129.68 50.46 129.68 80.85 128.19 79.98 128.19 49.59 129.68 50.46"></polygon> <polygon class="cls-6" points="129.69 50.46 128.19 49.59 130.03 48.52 131.53 49.39 129.69 50.46"></polygon> <polygon class="cls-4" points="131.53 47.54 131.53 49.39 129.69 50.45 129.69 48.6 131.53 47.54"></polygon> <polygon class="cls-5" points="129.69 48.6 129.69 50.45 110.52 39.39 110.52 37.54 129.69 48.6"></polygon> <polygon class="cls-6" points="129.69 48.61 110.52 37.54 112.37 36.47 131.54 47.54 129.69 48.61"></polygon> <polygon class="cls-3" points="109.82 86.98 98.2 80.27 109.82 73.57 113.67 86.98 109.82 86.98"></polygon> <polygon class="cls-7" points="113.67 86.98 125.29 80.27 125.29 71.94 113.67 78.65 113.67 86.98"></polygon> <polygon class="cls-8" points="113.67 86.98 102.06 80.27 102.06 71.94 113.67 78.65 113.67 86.98"></polygon> <polygon class="cls-9" points="113.67 78.65 102.06 71.94 113.67 65.23 125.29 71.94 113.67 78.65"></polygon> <polygon class="cls-10" points="108.69 81.03 106.82 79.96 106.82 74.69 108.69 75.77 108.69 81.03"></polygon> <polygon class="cls-11" points="108.69 75.77 120.3 69.06 118.44 67.98 106.82 74.69 108.69 75.77"></polygon> <polygon class="cls-12" points="102.06 71.94 113.67 78.65 107.41 75.3 102.06 71.94"></polygon> <polygon class="cls-13" points="107.82 75.27 119.44 68.56 119.31 68.49 107.69 75.2 107.82 75.27"></polygon> <polygon class="cls-3" points="94.7 95.71 83.08 89 94.7 82.29 98.56 95.71 94.7 95.71"></polygon> <polygon class="cls-7" points="98.56 95.71 110.18 89 110.18 80.67 98.56 87.38 98.56 95.71"></polygon> <polygon class="cls-8" points="98.56 95.71 86.94 89 86.94 80.67 98.56 87.38 98.56 95.71"></polygon> <polygon class="cls-9" points="98.56 87.38 86.94 80.67 98.56 73.96 110.18 80.67 98.56 87.38"></polygon> <polygon class="cls-10" points="93.57 89.76 91.7 88.69 91.7 83.42 93.57 84.5 93.57 89.76"></polygon> <polygon class="cls-11" points="93.57 84.5 105.19 77.79 103.32 76.71 91.7 83.42 93.57 84.5"></polygon> <polygon class="cls-12" points="86.94 80.67 98.56 87.38 92.29 84.02 86.94 80.67"></polygon> <polygon class="cls-13" points="92.7 84 104.32 77.29 104.2 77.22 92.58 83.92 92.7 84"></polygon> <polygon class="cls-3" points="79.59 104.44 67.97 97.73 79.59 91.02 83.44 104.44 79.59 104.44"></polygon> <polygon class="cls-7" points="83.44 104.44 95.06 97.73 95.06 89.4 83.44 96.1 83.44 104.44"></polygon> <polygon class="cls-8" points="83.44 104.44 71.83 97.73 71.83 89.4 83.44 96.1 83.44 104.44"></polygon> <polygon class="cls-9" points="83.44 96.1 71.83 89.4 83.44 82.69 95.06 89.4 83.44 96.1"></polygon> <polygon class="cls-10" points="78.45 98.49 76.59 97.41 76.59 92.14 78.45 93.22 78.45 98.49"></polygon> <polygon class="cls-11" points="78.45 93.22 90.07 86.52 88.2 85.44 76.59 92.14 78.45 93.22"></polygon> <polygon class="cls-12" points="71.83 89.4 83.44 96.1 77.17 92.75 71.83 89.4"></polygon> <polygon class="cls-13" points="77.59 92.72 89.21 86.02 89.08 85.94 77.46 92.65 77.59 92.72"></polygon> <polygon class="cls-3" points="64.47 113.16 52.85 106.46 64.47 99.75 68.33 113.16 64.47 113.16"></polygon> <polygon class="cls-7" points="68.33 113.16 79.95 106.46 79.95 98.12 68.33 104.83 68.33 113.16"></polygon> <polygon class="cls-8" points="68.33 113.16 56.71 106.46 56.71 98.12 68.33 104.83 68.33 113.16"></polygon> <polygon class="cls-9" points="68.33 104.83 56.71 98.12 68.33 91.42 79.95 98.12 68.33 104.83"></polygon> <polygon class="cls-10" points="63.34 107.22 61.47 106.14 61.47 100.87 63.34 101.95 63.34 107.22"></polygon> <polygon class="cls-11" points="63.34 101.95 74.96 95.24 73.09 94.16 61.47 100.87 63.34 101.95"></polygon> <polygon class="cls-12" points="56.71 98.12 68.33 104.83 62.06 101.48 56.71 98.12"></polygon> <polygon class="cls-13" points="62.47 101.45 74.09 94.74 73.96 94.67 62.34 101.38 62.47 101.45"></polygon> <polygon class="cls-7" points="113.67 78.22 125.29 71.51 125.29 63.18 113.67 69.89 113.67 78.22"></polygon> <polygon class="cls-8" points="113.67 78.22 102.06 71.51 102.06 63.18 113.67 69.89 113.67 78.22"></polygon> <polygon class="cls-9" points="113.67 69.89 102.06 63.18 113.67 56.47 125.29 63.18 113.67 69.89"></polygon> <polygon class="cls-10" points="108.69 72.27 106.82 71.19 106.82 65.93 108.69 67 108.69 72.27"></polygon> <polygon class="cls-11" points="108.69 67 120.3 60.3 118.44 59.22 106.82 65.93 108.69 67"></polygon> <polygon class="cls-12" points="102.06 63.18 113.67 69.89 107.41 66.53 102.06 63.18"></polygon> <polygon class="cls-13" points="107.82 66.51 119.44 59.8 119.31 59.73 107.69 66.43 107.82 66.51"></polygon> <polygon class="cls-7" points="98.56 86.95 110.18 80.24 110.18 71.91 98.56 78.61 98.56 86.95"></polygon> <polygon class="cls-8" points="98.56 86.95 86.94 80.24 86.94 71.91 98.56 78.61 98.56 86.95"></polygon> <polygon class="cls-9" points="98.56 78.61 86.94 71.91 98.56 65.2 110.18 71.91 98.56 78.61"></polygon> <polygon class="cls-10" points="93.57 81 91.7 79.92 91.7 74.66 93.57 75.73 93.57 81"></polygon> <polygon class="cls-11" points="93.57 75.73 105.19 69.02 103.32 67.95 91.7 74.66 93.57 75.73"></polygon> <polygon class="cls-12" points="86.94 71.91 98.56 78.61 92.29 75.26 86.94 71.91"></polygon> <polygon class="cls-13" points="92.7 75.23 104.32 68.53 104.2 68.45 92.58 75.16 92.7 75.23"></polygon> <polygon class="cls-7" points="83.44 95.67 95.06 88.97 95.06 80.63 83.44 87.34 83.44 95.67"></polygon> <polygon class="cls-8" points="83.44 95.67 71.83 88.97 71.83 80.63 83.44 87.34 83.44 95.67"></polygon> <polygon class="cls-9" points="83.44 87.34 71.83 80.63 83.44 73.92 95.06 80.63 83.44 87.34"></polygon> <polygon class="cls-10" points="78.45 89.73 76.59 88.65 76.59 83.38 78.45 84.46 78.45 89.73"></polygon> <polygon class="cls-11" points="78.45 84.46 90.07 77.75 88.2 76.67 76.59 83.38 78.45 84.46"></polygon> <polygon class="cls-12" points="71.83 80.63 83.44 87.34 77.17 83.99 71.83 80.63"></polygon> <polygon class="cls-13" points="77.59 83.96 89.21 77.25 89.08 77.18 77.46 83.89 77.59 83.96"></polygon> <polygon class="cls-7" points="68.33 104.4 79.95 97.69 79.95 89.36 68.33 96.07 68.33 104.4"></polygon> <polygon class="cls-8" points="68.33 104.4 56.71 97.69 56.71 89.36 68.33 96.07 68.33 104.4"></polygon> <polygon class="cls-9" points="68.33 96.07 56.71 89.36 68.33 82.65 79.95 89.36 68.33 96.07"></polygon> <polygon class="cls-10" points="63.34 98.45 61.47 97.38 61.47 92.11 63.34 93.19 63.34 98.45"></polygon> <polygon class="cls-11" points="63.34 93.19 74.96 86.48 73.09 85.4 61.47 92.11 63.34 93.19"></polygon> <polygon class="cls-12" points="56.71 89.36 68.33 96.07 62.06 92.71 56.71 89.36"></polygon> <polygon class="cls-13" points="62.47 92.69 74.09 85.98 73.96 85.91 62.34 92.61 62.47 92.69"></polygon> <polygon class="cls-4" points="129.69 48.61 129.69 50.46 68.87 85.6 68.87 83.75 129.69 48.61"></polygon> <polygon class="cls-5" points="68.87 83.75 68.87 85.6 49.71 74.54 49.71 72.69 68.87 83.75"></polygon> <polygon class="cls-6" points="68.88 83.75 49.71 72.69 110.52 37.54 129.69 48.6 68.88 83.75"></polygon> <polygon class="cls-4" points="51.2 75.4 51.2 105.79 49.35 106.86 49.35 76.47 51.2 75.4"></polygon> <polygon class="cls-5" points="49.35 76.47 49.35 106.86 47.86 106 47.86 75.6 49.35 76.47"></polygon> <polygon class="cls-6" points="49.36 76.47 47.86 75.6 49.7 74.53 51.2 75.4 49.36 76.47"></polygon> <polygon class="cls-4" points="68.87 85.6 68.87 116 67.02 117.06 67.02 86.67 68.87 85.6"></polygon> <polygon class="cls-5" points="67.02 86.67 67.02 117.06 65.52 116.2 65.52 85.81 67.02 86.67"></polygon> <polygon class="cls-6" points="67.02 86.67 65.52 85.81 67.37 84.74 68.87 85.6 67.02 86.67"></polygon> <polygon class="cls-4" points="68.87 83.75 68.87 85.6 67.02 86.67 67.02 84.82 68.87 83.75"></polygon> <polygon class="cls-5" points="67.02 84.82 67.02 86.67 47.86 75.6 47.86 73.75 67.02 84.82"></polygon> <polygon class="cls-6" points="67.03 84.82 47.86 73.75 49.7 72.69 68.87 83.75 67.03 84.82"></polygon> <polygon class="cls-3" points="109.82 54.09 98.2 47.38 109.82 40.67 113.67 54.09 109.82 54.09"></polygon> <polygon class="cls-7" points="113.67 54.09 125.29 47.38 125.29 39.04 113.67 45.75 113.67 54.09"></polygon> <polygon class="cls-8" points="113.67 54.09 102.06 47.38 102.06 39.04 113.67 45.75 113.67 54.09"></polygon> <polygon class="cls-9" points="113.67 45.75 102.06 39.04 113.67 32.34 125.29 39.04 113.67 45.75"></polygon> <polygon class="cls-10" points="108.69 48.14 106.82 47.06 106.82 41.79 108.69 42.87 108.69 48.14"></polygon> <polygon class="cls-11" points="108.69 42.87 120.3 36.16 118.44 35.09 106.82 41.79 108.69 42.87"></polygon> <polygon class="cls-12" points="102.06 39.04 113.67 45.75 107.41 42.4 102.06 39.04"></polygon> <polygon class="cls-13" points="107.82 42.37 119.44 35.66 119.31 35.59 107.69 42.3 107.82 42.37"></polygon> <polygon class="cls-3" points="94.7 62.81 83.08 56.1 94.7 49.4 98.56 62.81 94.7 62.81"></polygon> <polygon class="cls-7" points="98.56 62.81 110.18 56.1 110.18 47.77 98.56 54.48 98.56 62.81"></polygon> <polygon class="cls-8" points="98.56 62.81 86.94 56.1 86.94 47.77 98.56 54.48 98.56 62.81"></polygon> <polygon class="cls-9" points="98.56 54.48 86.94 47.77 98.56 41.06 110.18 47.77 98.56 54.48"></polygon> <polygon class="cls-10" points="93.57 56.87 91.7 55.79 91.7 50.52 93.57 51.6 93.57 56.87"></polygon> <polygon class="cls-11" points="93.57 51.6 105.19 44.89 103.32 43.81 91.7 50.52 93.57 51.6"></polygon> <polygon class="cls-12" points="86.94 47.77 98.56 54.48 92.29 51.13 86.94 47.77"></polygon> <polygon class="cls-13" points="92.7 51.1 104.32 44.39 104.2 44.32 92.58 51.03 92.7 51.1"></polygon> <polygon class="cls-3" points="64.47 80.27 52.85 73.56 64.47 66.85 68.33 80.27 64.47 80.27"></polygon> <polygon class="cls-7" points="68.33 80.27 79.95 73.56 79.95 65.23 68.33 71.93 68.33 80.27"></polygon> <polygon class="cls-8" points="68.33 80.27 56.71 73.56 56.71 65.23 68.33 71.93 68.33 80.27"></polygon> <polygon class="cls-9" points="68.33 71.93 56.71 65.23 68.33 58.52 79.95 65.23 68.33 71.93"></polygon> <polygon class="cls-10" points="63.34 74.32 61.47 73.24 61.47 67.97 63.34 69.05 63.34 74.32"></polygon> <polygon class="cls-11" points="63.34 69.05 74.96 62.34 73.09 61.27 61.47 67.97 63.34 69.05"></polygon> <polygon class="cls-12" points="56.71 65.23 68.33 71.93 62.06 68.58 56.71 65.23"></polygon> <polygon class="cls-13" points="62.47 68.55 74.09 61.85 73.96 61.77 62.34 68.48 62.47 68.55"></polygon> <polygon class="cls-7" points="113.67 45.32 125.29 38.61 125.29 30.28 113.67 36.99 113.67 45.32"></polygon> <polygon class="cls-8" points="113.67 45.32 102.06 38.61 102.06 30.28 113.67 36.99 113.67 45.32"></polygon> <polygon class="cls-9" points="113.67 36.99 102.06 30.28 113.67 23.57 125.29 30.28 113.67 36.99"></polygon> <polygon class="cls-10" points="108.69 39.38 106.82 38.3 106.82 33.03 108.69 34.11 108.69 39.38"></polygon> <polygon class="cls-11" points="108.69 34.11 120.3 27.4 118.44 26.32 106.82 33.03 108.69 34.11"></polygon> <polygon class="cls-12" points="102.06 30.28 113.67 36.99 107.41 33.63 102.06 30.28"></polygon> <polygon class="cls-13" points="107.82 33.61 119.44 26.9 119.31 26.83 107.69 33.53 107.82 33.61"></polygon> <polygon class="cls-7" points="98.56 54.05 110.18 47.34 110.18 39.01 98.56 45.72 98.56 54.05"></polygon> <polygon class="cls-8" points="98.56 54.05 86.94 47.34 86.94 39.01 98.56 45.72 98.56 54.05"></polygon> <polygon class="cls-9" points="98.56 45.72 86.94 39.01 98.56 32.3 110.18 39.01 98.56 45.72"></polygon> <polygon class="cls-10" points="93.57 48.1 91.7 47.02 91.7 41.76 93.57 42.84 93.57 48.1"></polygon> <polygon class="cls-11" points="93.57 42.84 105.19 36.13 103.32 35.05 91.7 41.76 93.57 42.84"></polygon> <polygon class="cls-12" points="86.94 39.01 98.56 45.72 92.29 42.36 86.94 39.01"></polygon> <polygon class="cls-13" points="92.7 42.34 104.32 35.63 104.2 35.55 92.58 42.26 92.7 42.34"></polygon> <polygon class="cls-7" points="68.33 71.5 79.95 64.8 79.95 56.46 68.33 63.17 68.33 71.5"></polygon> <polygon class="cls-8" points="68.33 71.5 56.71 64.8 56.71 56.46 68.33 63.17 68.33 71.5"></polygon> <polygon class="cls-9" points="68.33 63.17 56.71 56.46 68.33 49.76 79.95 56.46 68.33 63.17"></polygon> <polygon class="cls-10" points="63.34 65.56 61.47 64.48 61.47 59.21 63.34 60.29 63.34 65.56"></polygon> <polygon class="cls-11" points="63.34 60.29 74.96 53.58 73.09 52.5 61.47 59.21 63.34 60.29"></polygon> <polygon class="cls-12" points="56.71 56.46 68.33 63.17 62.06 59.82 56.71 56.46"></polygon> <polygon class="cls-13" points="62.47 59.79 74.09 53.08 73.96 53.01 62.34 59.72 62.47 59.79"></polygon> <polygon class="cls-4" points="129.69 16.36 129.69 18.21 68.87 53.36 68.87 51.51 129.69 16.36"></polygon> <polygon class="cls-5" points="68.87 51.51 68.87 53.36 49.71 42.29 49.71 40.44 68.87 51.51"></polygon> <polygon class="cls-6" points="68.88 51.51 49.71 40.44 110.52 5.29 129.69 16.36 68.88 51.51"></polygon> <polygon class="cls-4" points="51.2 43.16 51.2 73.55 49.35 74.61 49.35 44.22 51.2 43.16"></polygon> <polygon class="cls-5" points="49.35 44.22 49.35 74.61 47.86 73.75 47.86 43.36 49.35 44.22"></polygon> <polygon class="cls-6" points="49.36 44.22 47.86 43.36 49.7 42.29 51.2 43.15 49.36 44.22"></polygon> <polygon class="cls-4" points="68.87 53.36 68.87 83.75 67.02 84.82 67.02 54.42 68.87 53.36"></polygon> <polygon class="cls-5" points="67.02 54.42 67.02 84.82 65.52 83.95 65.52 53.56 67.02 54.42"></polygon> <polygon class="cls-6" points="67.02 54.43 65.52 53.56 67.37 52.49 68.87 53.36 67.02 54.43"></polygon> <polygon class="cls-4" points="68.87 51.51 68.87 53.36 67.02 54.42 67.02 52.57 68.87 51.51"></polygon> <polygon class="cls-5" points="67.02 52.57 67.02 54.42 47.86 43.36 47.86 41.51 67.02 52.57"></polygon> <polygon class="cls-6" points="67.03 52.58 47.86 41.51 49.7 40.44 68.87 51.51 67.03 52.58"></polygon> <polygon class="cls-3" points="109.82 21.79 98.2 15.08 109.82 8.37 113.67 21.79 109.82 21.79"></polygon> <polygon class="cls-7" points="113.67 21.79 125.29 15.08 125.29 6.74 113.67 13.45 113.67 21.79"></polygon> <polygon class="cls-8" points="113.67 21.79 102.06 15.08 102.06 6.74 113.67 13.45 113.67 21.79"></polygon> <polygon class="cls-9" points="113.67 13.45 102.06 6.74 113.67 0.04 125.29 6.74 113.67 13.45"></polygon> <polygon class="cls-10" points="108.69 15.84 106.82 14.76 106.82 9.49 108.69 10.57 108.69 15.84"></polygon> <polygon class="cls-11" points="108.69 10.57 120.3 3.86 118.44 2.79 106.82 9.49 108.69 10.57"></polygon> <polygon class="cls-12" points="102.06 6.74 113.67 13.45 107.41 10.1 102.06 6.74"></polygon> <polygon class="cls-13" points="107.82 10.07 119.44 3.36 119.31 3.29 107.69 10 107.82 10.07"></polygon> <polygon class="cls-3" points="94.7 30.51 83.08 23.8 94.7 17.1 98.56 30.51 94.7 30.51"></polygon> <polygon class="cls-7" points="98.56 30.51 110.18 23.8 110.18 15.47 98.56 22.18 98.56 30.51"></polygon> <polygon class="cls-8" points="98.56 30.51 86.94 23.8 86.94 15.47 98.56 22.18 98.56 30.51"></polygon> <polygon class="cls-9" points="98.56 22.18 86.94 15.47 98.56 8.76 110.18 15.47 98.56 22.18"></polygon> <polygon class="cls-10" points="93.57 24.57 91.7 23.49 91.7 18.22 93.57 19.3 93.57 24.57"></polygon> <polygon class="cls-11" points="93.57 19.3 105.19 12.59 103.32 11.51 91.7 18.22 93.57 19.3"></polygon> <polygon class="cls-12" points="86.94 15.47 98.56 22.18 92.29 18.82 86.94 15.47"></polygon> <polygon class="cls-13" points="92.7 18.8 104.32 12.09 104.2 12.02 92.58 18.73 92.7 18.8"></polygon> <polygon class="cls-3" points="79.59 39.24 67.97 32.53 79.59 25.82 83.44 39.24 79.59 39.24"></polygon> <polygon class="cls-7" points="83.44 39.24 95.06 32.53 95.06 24.2 83.44 30.91 83.44 39.24"></polygon> <polygon class="cls-8" points="83.44 39.24 71.83 32.53 71.83 24.2 83.44 30.91 83.44 39.24"></polygon> <polygon class="cls-9" points="83.44 30.91 71.83 24.2 83.44 17.49 95.06 24.2 83.44 30.91"></polygon> <polygon class="cls-10" points="78.45 33.29 76.59 32.21 76.59 26.95 78.45 28.02 78.45 33.29"></polygon> <polygon class="cls-11" points="78.45 28.02 90.07 21.32 88.2 20.24 76.59 26.95 78.45 28.02"></polygon> <polygon class="cls-12" points="71.83 24.2 83.44 30.91 77.17 27.55 71.83 24.2"></polygon> <polygon class="cls-13" points="77.59 27.53 89.21 20.82 89.08 20.74 77.46 27.45 77.59 27.53"></polygon> <polygon class="cls-3" points="64.47 47.97 52.85 41.26 64.47 34.55 68.33 47.97 64.47 47.97"></polygon> <polygon class="cls-7" points="68.33 47.97 79.95 41.26 79.95 32.92 68.33 39.63 68.33 47.97"></polygon> <polygon class="cls-8" points="68.33 47.97 56.71 41.26 56.71 32.92 68.33 39.63 68.33 47.97"></polygon> <polygon class="cls-9" points="68.33 39.63 56.71 32.92 68.33 26.22 79.95 32.92 68.33 39.63"></polygon> <polygon class="cls-10" points="63.34 42.02 61.47 40.94 61.47 35.67 63.34 36.75 63.34 42.02"></polygon> <polygon class="cls-11" points="63.34 36.75 74.96 30.04 73.09 28.97 61.47 35.67 63.34 36.75"></polygon> <polygon class="cls-12" points="56.71 32.92 68.33 39.63 62.06 36.28 56.71 32.92"></polygon> <polygon class="cls-13" points="62.47 36.25 74.09 29.55 73.96 29.47 62.34 36.18 62.47 36.25"></polygon> <polygon class="cls-7" points="98.56 21.75 110.18 15.04 110.18 6.71 98.56 13.42 98.56 21.75"></polygon> <polygon class="cls-8" points="98.56 21.75 86.94 15.04 86.94 6.71 98.56 13.42 98.56 21.75"></polygon> <polygon class="cls-9" points="98.56 13.42 86.94 6.71 98.56 0 110.18 6.71 98.56 13.42"></polygon> <polygon class="cls-10" points="93.57 15.8 91.7 14.72 91.7 9.46 93.57 10.54 93.57 15.8"></polygon> <polygon class="cls-11" points="93.57 10.54 105.19 3.83 103.32 2.75 91.7 9.46 93.57 10.54"></polygon> <polygon class="cls-12" points="86.94 6.71 98.56 13.42 92.29 10.06 86.94 6.71"></polygon> <polygon class="cls-13" points="92.7 10.04 104.32 3.33 104.2 3.25 92.58 9.96 92.7 10.04"></polygon> <path class="cls-14" d="M147.11,59.61s0-3.46-3.44-2.42c-1.95.59-4.43,3.37-3,8.73s-2.95,9.17-2.95,9.17,3.37,0,4.73-.87,1.14-1.93,1.56-5.37S147.11,59.61,147.11,59.61Z"></path> <path class="cls-15" d="M152.94,70s1.6-.91,3,2.43,2.86,10.91,3.53,12,0,2.38-3.64,3.31S152.94,70,152.94,70Z"></path> <path class="cls-16" d="M158,78.9a1.84,1.84,0,0,1-1.57.73c-1.14,0-8.31-9.37-6.63-10a6.17,6.17,0,0,1,4.18.28C155.14,70.43,156.45,72.36,158,78.9Z"></path> <path class="cls-17" d="M158.1,145c-2.83-1.88-4.14-1.71-4.14-1.71s-2.26.18-3-.85h0a1.31,1.31,0,0,1-.17-.95c.34-2.09.88-3.25.85-4-.18-4.53-2.24-11.91-1.7-15.47.81-5.41-1.82-12-1.48-16.14a5.69,5.69,0,0,1,.19-1.12c1.07-4,8.4-5.17,8.4-5.17a38.42,38.42,0,0,1-.23,11.61c-1.72,10-2,24.21-2,27.39,0,1.31,1.77,2.37,2.58,2.83,1.16.64,3.4,2.08,3.4,2.08S161,146.88,158.1,145Z"></path> <path class="cls-18" d="M151.31,127.61c.45,3.57,1.16,8.62,1,9.78s-1.32,3.5-1.28,5a1.31,1.31,0,0,1-.17-.95c.34-2.09.88-3.25.85-4-.18-4.53-2.24-11.91-1.7-15.47.81-5.41-1.82-12-1.48-16.14a10.19,10.19,0,0,1,4.2-.67,3.58,3.58,0,0,1-.85,2.56l-1.07,1.52a72.49,72.49,0,0,1,.54,10.14C151.18,124.42,150.88,124,151.31,127.61Z"></path> <path class="cls-17" d="M152.87,105.5a3.79,3.79,0,0,1-2.38,2.1s-.5,14-1.69,17-2,14.06-2,14.5a7.88,7.88,0,0,0,2.33,5.23c2.16,2.07,3.09,2.44,3.08,2.76a2.64,2.64,0,0,1-3,1.65c-2-.3-2.58-.43-3.57-1.45-.38-.38-.75-.71-1.09-1a3.3,3.3,0,0,1-1.11-1.48c-.16-.81.5-2.4,0-3.92s-1.54-11-1.31-13.48c.53-5.57,1.17-5,1-6.59S140.5,111,140.5,102a1.09,1.09,0,0,1,.08-.45c1-2.8,12.22.15,12.22.15A6.9,6.9,0,0,1,152.87,105.5Z"></path> <path class="cls-18" d="M144.6,146.23a3.3,3.3,0,0,1-1.11-1.48c-.16-.81.5-2.4,0-3.92s-1.54-11-1.31-13.48c.53-5.57,1.17-5,1-6.59S140.5,111,140.5,102a1.09,1.09,0,0,1,.08-.45,3.28,3.28,0,0,1,1,.31,32.8,32.8,0,0,0,0,7.57c.48,4.28,2.39,11.2,2.39,12.08s-1.12,3.41-1.08,8.11,1.43,11.33,1.34,12.28C144.16,142.52,143.31,144.13,144.6,146.23Z"></path> <path class="cls-19" d="M157.53,82.2a12.34,12.34,0,0,1-.15,2.06h0a1.81,1.81,0,0,0,0,.23,12.68,12.68,0,0,1-.52,2.19c-.05.19-.11.36-.15.47-.67,1.83.71,11.82.5,12.62s-.72,1.59-4.11,2.68a17.92,17.92,0,0,1-3.14.67c-.28,0-.56.07-.85.09a24.83,24.83,0,0,1-3,.12,4.7,4.7,0,0,1-.53,0l-.84,0a12.19,12.19,0,0,1-3-.52,3.43,3.43,0,0,1-.92-.45,1.18,1.18,0,0,1-.38-.35s.4-7.47.17-10.37c-.14-1.78-1.17-4.11-2.14-6.41-.43-1-.83-2-1.15-3-.13-.39-.24-.77-.34-1.13-1.55-6,.74-6.74,2.54-8.14a19.09,19.09,0,0,1,5.73-3.27,17,17,0,0,1,6.39,0c.82.07,2.7.56,3.75,4.12s1.92,6,2.06,7.71A6.61,6.61,0,0,1,157.53,82.2Z"></path> <path class="cls-20" d="M157.53,82.2a12.34,12.34,0,0,1-.15,2.06h0a1.81,1.81,0,0,0,0,.23c-.18.83-.38,1.64-.52,2.19-.05.19-.11.36-.15.47-.67,1.83.71,11.82.5,12.62s-.72,1.59-4.11,2.68a17.92,17.92,0,0,1-3.14.67c-.28,0-.56.07-.85.09a24.83,24.83,0,0,1-3,.12,4.7,4.7,0,0,1-.53,0,10.18,10.18,0,0,1-4.71-1,1.18,1.18,0,0,1-.38-.35s.4-7.47.17-10.37c-.14-1.78-1.17-4.11-2.14-6.41,1.84-2.57,3.52-4.12,3.31-3-.48,2.51-.49,6,2.77,6.08,4.6.12,5.75-1.68,7.94-2.47C155.61,84.62,157,83.15,157.53,82.2Z"></path> <path class="cls-21" d="M151.48,86.43s-6.88,3.7-9.44,0h0c0-2.61-.17-5.42-.17-5.42a7.85,7.85,0,0,0-4.5,1.16c.32,1,.72,2,1.15,3,1,2.3,2,4.63,2.14,6.41.23,2.9-.16,10.37-.16,10.37a2.62,2.62,0,0,0,1.29.79,36.77,36.77,0,0,1-.57-4.83c-.23-5,.75-5.69.83-8.24,0-.49,0-1.12,0-1.82C143.3,88.5,146.41,89.42,151.48,86.43Z"></path> <path class="cls-15" d="M140.9,92.23s1.48-10.91.77-14.26-3-3.4-4-3-1.5,1.54-1.16,6.6.94,11.5,1.09,12.39S140.9,92.23,140.9,92.23Z"></path> <path class="cls-22" d="M150,64.9s0,3.92.18,5.39.71,2.34-.94,2.88c-.95.3-4.5-.67-6-2.33-.13-.2.26-.46.59-1.61a10.54,10.54,0,0,0,.58-4c0-2.28.1-4.36.1-4.36Z"></path> <path class="cls-23" d="M150.16,70.42a3.16,3.16,0,0,1-1.13-.14c-2.25-.57-2.87-.68-3.55,0s-.43,1.42.33,2.23a7,7,0,0,1-2.6-1.67c-.13-.2.26-.46.6-1.62a10.7,10.7,0,0,0,.57-4V64.16L150,69.33a9.22,9.22,0,0,0,.1,1A.51.51,0,0,0,150.16,70.42Z"></path> <path class="cls-15" d="M147.67,54.06s3.75.79,4.73,3.66.82,3,.75,4.14a19.68,19.68,0,0,1-.13,4.63c-.44,1.87-.88,3.46-1.73,3.74s-5.7-.69-7.47-4-3.43-6.34-2.08-9.42C142.69,54.66,145.78,53.59,147.67,54.06Z"></path> <path class="cls-24" d="M141.46,57c.71-1.87,1.62-2.24,1.62-2.24s.88-1,3.36-1a7.82,7.82,0,0,1,5.38,2.27c1.33,1.46.78,2.24.78,2.24v0a.54.54,0,0,0-.72-.29c-.64.25-.9.75-1.42.93-3.64,1.29-4.37.31-4.67,2s-.46,2.3-1.23,2c-1.22-.43-1.17-.16-1.76.67a20.27,20.27,0,0,0,.82,2.38s0,.77-1.43-2.31C141.64,62.43,140.28,60.72,141.46,57Z"></path> <path class="cls-25" d="M144.09,63.39a1.5,1.5,0,0,0-1.73-.79c-1.21.33-1,1.71.31,2.93s1.61-.22,1.67-.31S143.77,64.24,144.09,63.39Z"></path> <path class="cls-26" d="M143.65,63.56s-.53-.63-1.05-.36c-.79.42.36,1.72.47,1.89s.7.1.76-.3S143.25,64.06,143.65,63.56Z"></path> <path class="cls-16" d="M138.38,74.66s-1.7-.09-2.07,2.33.32,8.09.32,8.09a17.46,17.46,0,0,1,2.9-.24,8.36,8.36,0,0,1,2.33.24,45.34,45.34,0,0,0,0-7.08C141.51,75.84,140.71,74.42,138.38,74.66Z"></path> <path class="cls-27" d="M153.78,58.31l-.26.34-6.33,1.64c-.31.08-.49.27-1.09.47h0a8,8,0,0,1-1.91.33,14.68,14.68,0,0,1-3.52-.15,13.15,13.15,0,0,1,0-3.29,6,6,0,0,1,4.49-4.22,6.78,6.78,0,0,1,1.27-.24c2.82-.29,5.44.9,6.33,2.27A7.13,7.13,0,0,1,153.78,58.31Z"></path> <path class="cls-28" d="M146.09,60.76a8,8,0,0,1-1.91.33,14.68,14.68,0,0,1-3.52-.15,13.15,13.15,0,0,1,0-3.29,6,6,0,0,1,4.49-4.22,2.47,2.47,0,0,0-1.52,2C143.49,56.84,143.48,60.16,146.09,60.76Z"></path> <path class="cls-29" d="M146,60.7s4.55,2.87,6.14,1.69c2-1.52,3.46-1.54,4.53-1.22l1.08.32a.27.27,0,0,0,.19-.31,42.08,42.08,0,0,0-4.15-2.88S151.45,56.56,146,60.7Z"></path> <path class="cls-30" d="M148.88,143.62a2.17,2.17,0,0,0-1.1,0,6.1,6.1,0,0,0-1.24.44c-.4.18-.41.34-.39.71-.51-.25-2.12-1.06-2.34-1.6a4.91,4.91,0,0,1-.11-1.4s0,.17-.09.82-.22,2.33-.19,2.78,2.37,2.35,3,2.81c1.69,1.18,2.25,1.62,4.6,1.7s2.22-1.54,2.2-1.92-2.35-2.37-3-2.85a4.49,4.49,0,0,1-.91-1.16A.87.87,0,0,0,148.88,143.62Z"></path> <path class="cls-30" d="M155.83,140.22c.66-.19,1.31.74,1.77,1.15a37.2,37.2,0,0,1,3.64,2.34,2.57,2.57,0,0,1,.15,1.27,2.91,2.91,0,0,1-3.12.69c-1.77-.64-2.41-1.25-3.59-1.54s-3.52-.77-3.82-1.41a8.32,8.32,0,0,1,0-2.8s.38-.14.52.12a3.5,3.5,0,0,0,1.64,1.28,3.92,3.92,0,0,0,1.77.06c0-.16-.1-.32,0-.47a1.59,1.59,0,0,1,.33-.25c.16-.1.3-.24.46-.35A.88.88,0,0,1,155.83,140.22Z"></path> <polygon class="cls-3" points="115.02 172.86 76.69 150.73 101.08 136.66 108.44 146.04 133.52 172.86 115.02 172.86"></polygon> <polygon class="cls-31" points="98.59 152.69 98.59 114.73 133.52 134.89 171.2 101.58 171.2 72.82 215.46 87.6 215.46 125.57 133.52 172.86 98.59 152.69"></polygon> <polygon class="cls-32" points="98.59 152.69 98.59 114.73 133.52 134.89 171.2 101.58 171.2 72.82 215.46 87.6 215.46 95.88 133.52 143.18 98.59 152.69"></polygon> <polygon class="cls-9" points="98.59 114.73 107.92 109.34 119.68 116.14 182.96 79.61 171.2 72.82 180.53 67.43 215.46 87.6 201.65 95.58 133.52 134.89 98.59 114.73"></polygon> <polygon class="cls-33" points="98.59 114.73 133.52 134.89 133.52 172.86 98.59 152.69 98.59 114.73"></polygon> <polygon class="cls-7" points="218.85 86.65 218.85 91.64 206.13 98.97 206.13 93.98 218.85 86.65"></polygon> <polygon class="cls-8" points="206.13 93.98 206.13 98.97 167.81 76.85 167.81 71.86 206.13 93.98"></polygon> <polygon class="cls-9" points="206.13 93.98 167.81 71.86 180.53 64.52 218.85 86.64 206.13 93.98"></polygon> <polygon class="cls-7" points="206.13 93.98 206.13 98.97 146.24 133.54 146.24 128.55 206.13 93.98"></polygon> <polygon class="cls-8" points="146.24 128.55 146.24 133.54 119.68 118.21 119.68 113.22 146.24 128.55"></polygon> <polygon class="cls-9" points="146.25 128.55 119.69 113.22 179.57 78.65 206.14 93.98 146.25 128.55"></polygon> <polygon class="cls-7" points="146.24 128.55 146.24 133.54 133.52 140.88 133.52 135.89 146.24 128.55"></polygon> <polygon class="cls-8" points="133.52 135.89 133.52 140.88 95.2 118.76 95.2 113.77 133.52 135.89"></polygon> <polygon class="cls-9" points="133.52 135.89 95.2 113.77 107.92 106.43 146.24 128.55 133.52 135.89"></polygon> <path class="cls-15" d="M156.88,88.37a29.78,29.78,0,0,0,4.47,3.3s.16.2.37.43h0a2.66,2.66,0,0,0,.69.56c.45.21,1.35,1.36,1.57,1.41s.43-.18.66-.12a.22.22,0,0,0,.14,0h0l0,0h0l0,0,0,0h0l0,0a1.77,1.77,0,0,0,.1-.17l.15-.1.24-.15,0,0h0l0,0,.07,0h0l0,0h.15a.57.57,0,0,0,.3-.14,9.4,9.4,0,0,0,1.07-1.1.5.5,0,0,0,0-.59,3.49,3.49,0,0,1-.2-.44v0a.09.09,0,0,1,0,0,3.4,3.4,0,0,0-.64-.86l0,0c-.28-.31-.58-.62-.76-.81l-.08-.09h0l0,0,0,0h0l-.48.08a2.36,2.36,0,0,0-.67-.29c-.24,0-.71.34-1.15.32h0a.55.55,0,0,1-.3-.09c-.53-.31-2.57-4.06-3.14-4.35s-1.43.4-1.43.4C156.35,86.39,155.9,87.25,156.88,88.37Z"></path> <path class="cls-34" d="M176.05,92.82l-5.89-3.4a.75.75,0,0,0-.71,0L154.63,98l-.67.16v.34h0a.25.25,0,0,0,.14.22l6,3.48a.81.81,0,0,0,.71,0l15.34-8.92a.28.28,0,0,0,.15-.2h0v-.36Z"></path> <path class="cls-35" d="M154.11,98.4l6,3.49a.81.81,0,0,0,.71,0L176.18,93c.2-.11.2-.29,0-.4l-6-3.49a.81.81,0,0,0-.71,0L154.11,98C153.91,98.11,153.92,98.29,154.11,98.4Z"></path> <path class="cls-36" d="M174.68,92.46v-.08h-.07l-.67-.39a.33.33,0,0,0-.24,0l-.67.39H173v.08h0s0,.05.05.07l.68.39a.28.28,0,0,0,.25,0l.68-.39S174.68,92.49,174.68,92.46Z"></path> <path class="cls-36" d="M170.38,90V89.9h-.07l-.67-.39a.25.25,0,0,0-.24,0l-.67.39h-.06V90h0s0,0,.05.07l.68.39a.28.28,0,0,0,.25,0l.68-.39A.1.1,0,0,0,170.38,90Z"></path> <path class="cls-36" d="M169.32,90.59v-.08h-.07l-.67-.38a.25.25,0,0,0-.24,0l-.67.39h-.06v.07h0a.1.1,0,0,0,0,.07l.68.39a.28.28,0,0,0,.25,0l.68-.39A.1.1,0,0,0,169.32,90.59Z"></path> <path class="cls-36" d="M168.26,91.21v-.08h-.07l-.67-.38a.25.25,0,0,0-.24,0l-.67.38h-.06v.08h0s0,0,0,.06l.68.39a.31.31,0,0,0,.25,0l.68-.4S168.26,91.24,168.26,91.21Z"></path> <path class="cls-36" d="M167.2,91.83v-.08h-.07l-.67-.39a.25.25,0,0,0-.24,0l-.67.39h-.06v.08h0s0,0,0,.07l.68.39a.28.28,0,0,0,.25,0l.67-.39A.1.1,0,0,0,167.2,91.83Z"></path> <path class="cls-36" d="M173.62,93.08V93h-.07l-.67-.39a.25.25,0,0,0-.24,0L172,93h-.06v.08h0a.1.1,0,0,0,.05.07l.68.39a.28.28,0,0,0,.25,0l.68-.39A.1.1,0,0,0,173.62,93.08Z"></path> <path class="cls-36" d="M172,92.81v-.08h-.07l-.66-.39a.28.28,0,0,0-.25,0l-.67.39h-.06v.08h0s0,0,0,.07l.68.39a.28.28,0,0,0,.25,0l.68-.39A.1.1,0,0,0,172,92.81Z"></path> <path class="cls-36" d="M170.89,93.42v-.08h-.07l-.66-.38a.28.28,0,0,0-.25,0l-.67.39h-.06v.07h0a.1.1,0,0,0,0,.07l.68.39a.28.28,0,0,0,.25,0l.68-.39A.1.1,0,0,0,170.89,93.42Z"></path> <path class="cls-36" d="M170.34,92.49v-.08h-.07L169.6,92a.25.25,0,0,0-.24,0l-.67.39h-.06v.07h0s0,0,.05.06l.68.4a.28.28,0,0,0,.25,0l.68-.4S170.34,92.52,170.34,92.49Z"></path> <path class="cls-36" d="M169.25,91.87v-.08h-.06l-.67-.39a.25.25,0,0,0-.24,0l-.67.39h-.06v.08h0s0,0,0,.07l.68.39a.28.28,0,0,0,.25,0l.67-.39A.08.08,0,0,0,169.25,91.87Z"></path> <path class="cls-36" d="M168.19,92.48V92.4h-.06l-.67-.38a.28.28,0,0,0-.25,0l-.66.39h-.06v.07h0a.07.07,0,0,0,0,.06l.68.4a.28.28,0,0,0,.25,0l.67-.4S168.19,92.51,168.19,92.48Z"></path> <path class="cls-36" d="M167.13,93.1V93h-.06l-.67-.39a.36.36,0,0,0-.25,0l-.67.39h0v.08h0s0,.05,0,.07l.68.39a.28.28,0,0,0,.25,0l.67-.39S167.13,93.13,167.13,93.1Z"></path> <path class="cls-36" d="M166.07,93.72v-.08H166l-.67-.39a.28.28,0,0,0-.25,0l-.67.39h0v.08h0s0,0,0,.07l.68.39a.25.25,0,0,0,.24,0l.68-.39A.08.08,0,0,0,166.07,93.72Z"></path> <path class="cls-36" d="M165,94.33v-.08H165l-.67-.38a.28.28,0,0,0-.25,0l-.67.39h-.06v.07h0a.06.06,0,0,0,.05.06l.68.4a.25.25,0,0,0,.24,0l.68-.4S165,94.36,165,94.33Z"></path> <path class="cls-36" d="M164,95v-.08h-.06l-.67-.39a.28.28,0,0,0-.25,0l-.67.39h-.06V95h0a.1.1,0,0,0,.06.07l.68.39a.26.26,0,0,0,.24,0l.68-.39A.1.1,0,0,0,164,95Z"></path> <path class="cls-36" d="M162.89,95.57v-.08h-.07l-.66-.39a.28.28,0,0,0-.25,0l-.67.39h-.06v.08h0a.15.15,0,0,0,0,.07l.69.39a.25.25,0,0,0,.24,0l.68-.39A.1.1,0,0,0,162.89,95.57Z"></path> <path class="cls-36" d="M161.83,96.18V96.1h-.07l-.66-.38a.28.28,0,0,0-.25,0l-.67.39h-.06v.07h0a.07.07,0,0,0,0,.06l.68.4a.28.28,0,0,0,.25,0l.68-.4S161.83,96.21,161.83,96.18Z"></path> <path class="cls-36" d="M159.06,96.8v.08h.07l.66.38a.28.28,0,0,0,.25,0l.67-.39h.06V96.8h0s0,0-.05-.06l-.68-.4a.28.28,0,0,0-.25,0l-.68.4S159.06,96.77,159.06,96.8Z"></path> <path class="cls-36" d="M159.63,96.22v-.08h-.06l-.67-.38a.28.28,0,0,0-.25,0l-.67.39h0v.07h0s0,0,0,.06l.68.4a.25.25,0,0,0,.24,0l.68-.4S159.63,96.25,159.63,96.22Z"></path> <path class="cls-36" d="M158.57,96.84v-.08h-.06l-.67-.39a.28.28,0,0,0-.25,0l-.67.39h-.06v.08h0s0,0,0,.07l.68.39a.25.25,0,0,0,.24,0l.68-.39A.1.1,0,0,0,158.57,96.84Z"></path> <path class="cls-36" d="M156.42,98.09V98h-.06l-.67-.39a.28.28,0,0,0-.25,0l-.67.39h-.05v.08h0s0,0,.05.07l.68.39a.28.28,0,0,0,.25,0l.67-.39A.08.08,0,0,0,156.42,98.09Z"></path> <path class="cls-36" d="M157.52,98.57l-.67-.39a.25.25,0,0,0-.24,0l-.1.06h0l-.57.33h-.06v0l0,0h-.06v.07h0a.06.06,0,0,0,.05.06l.68.4a.25.25,0,0,0,.24,0l.78-.45a.1.1,0,0,0,.05-.07v-.08Z"></path> <path class="cls-36" d="M159.71,97.41v-.07h-.07L159,97a.25.25,0,0,0-.24,0l-.67.39H158v.07h0a.1.1,0,0,0,.05.07l.68.39a.28.28,0,0,0,.25,0l.68-.39A.1.1,0,0,0,159.71,97.41Z"></path> <path class="cls-36" d="M158.65,98V98h-.07l-.67-.38a.25.25,0,0,0-.24,0L157,98h-.06V98h0s0,0,.05.06l.68.4a.28.28,0,0,0,.25,0l.68-.4S158.65,98.06,158.65,98Z"></path> <path class="cls-36" d="M169.28,93.11V93h-.07l-.67-.39a.25.25,0,0,0-.24,0l-.67.39h-.06v.08h0s0,0,.05.07l.68.39a.28.28,0,0,0,.25,0l.68-.39A.1.1,0,0,0,169.28,93.11Z"></path> <path class="cls-36" d="M168.22,93.72v-.08h-.07l-.67-.39a.25.25,0,0,0-.24,0l-.67.39h-.06v.07h0a.1.1,0,0,0,.05.07l.68.39a.28.28,0,0,0,.25,0l.67-.39A.09.09,0,0,0,168.22,93.72Z"></path> <path class="cls-36" d="M167.15,94.34v-.08h-.06l-.67-.38a.25.25,0,0,0-.24,0l-.67.39h-.06v.07h0s0,0,.05.06l.68.4a.28.28,0,0,0,.25,0l.67-.4S167.15,94.37,167.15,94.34Z"></path> <path class="cls-36" d="M166.09,95v-.08H166l-.67-.39a.28.28,0,0,0-.25,0l-.67.39h-.05V95h0s0,.05.05.07l.68.39a.28.28,0,0,0,.25,0L166,95A.08.08,0,0,0,166.09,95Z"></path> <path class="cls-36" d="M165,95.57v-.08H165l-.67-.38a.28.28,0,0,0-.25,0l-.67.39h0v.07h0a.1.1,0,0,0,0,.07l.68.39a.28.28,0,0,0,.25,0l.67-.39A.08.08,0,0,0,165,95.57Z"></path> <path class="cls-36" d="M164,96.19v-.08h-.06l-.67-.38a.28.28,0,0,0-.25,0l-.67.38h-.06v.08h0s0,0,0,.06l.68.39a.29.29,0,0,0,.24,0l.68-.4S164,96.22,164,96.19Z"></path> <path class="cls-36" d="M162.91,96.81v-.08h-.06l-.67-.39a.28.28,0,0,0-.25,0l-.67.39h-.06v.08h0s0,0,0,.07l.68.39a.25.25,0,0,0,.24,0l.68-.39A.1.1,0,0,0,162.91,96.81Z"></path> <path class="cls-36" d="M161.85,97.42v-.08h-.06l-.67-.38a.28.28,0,0,0-.25,0l-.67.39h-.06v.07h0s0,0,.05.06l.69.4a.26.26,0,0,0,.24,0l.68-.4A.08.08,0,0,0,161.85,97.42Z"></path> <path class="cls-36" d="M160.79,98V98h-.07l-.66-.39a.36.36,0,0,0-.25,0l-.67.39h-.06V98h0a.12.12,0,0,0,0,.07l.69.39a.25.25,0,0,0,.24,0l.68-.39S160.79,98.07,160.79,98Z"></path> <path class="cls-36" d="M169.83,94V94h-.07l-.67-.38a.25.25,0,0,0-.24,0l-.67.39h-.06V94h0s0,0,0,.06l.68.4a.28.28,0,0,0,.25,0l.68-.4S169.83,94.07,169.83,94Z"></path> <path class="cls-36" d="M168.77,94.66v-.08h-.07l-.67-.39a.25.25,0,0,0-.24,0l-.67.39h-.06v.08h0s0,0,.05.07l.68.39a.28.28,0,0,0,.25,0l.68-.39A.1.1,0,0,0,168.77,94.66Z"></path> <path class="cls-36" d="M167.71,95.27v-.08h-.07l-.67-.38a.25.25,0,0,0-.24,0l-.67.39H166v.07h0a.1.1,0,0,0,.05.07l.68.39a.28.28,0,0,0,.25,0l.68-.39A.1.1,0,0,0,167.71,95.27Z"></path> <path class="cls-36" d="M166.64,95.89v-.08h-.06l-.67-.38a.25.25,0,0,0-.24,0l-.67.38h-.06v.08h0s0,0,.05.07l.68.39a.31.31,0,0,0,.25,0l.67-.4S166.65,95.92,166.64,95.89Z"></path> <path class="cls-36" d="M165.58,96.51v-.08h-.06l-.67-.39a.28.28,0,0,0-.25,0l-.66.39h-.06v.08h0s0,0,.05.07l.68.39a.28.28,0,0,0,.25,0l.67-.39A.08.08,0,0,0,165.58,96.51Z"></path> <path class="cls-36" d="M164.52,97.12V97h-.06l-.67-.38a.28.28,0,0,0-.25,0l-.67.39h-.05v.07h0a.07.07,0,0,0,.05.06l.68.4a.28.28,0,0,0,.25,0l.67-.4S164.52,97.15,164.52,97.12Z"></path> <path class="cls-36" d="M163.46,97.74v-.08h-.06l-.67-.39a.36.36,0,0,0-.25,0l-.67.39h-.05v.08h0s0,.05.05.07l.68.39a.25.25,0,0,0,.24,0l.68-.39S163.46,97.77,163.46,97.74Z"></path> <path class="cls-36" d="M162.4,98.36v-.08h-.06l-.67-.39a.28.28,0,0,0-.25,0l-.67.39h-.06v.08h0s0,0,.05.07l.68.39a.25.25,0,0,0,.24,0l.68-.39A.08.08,0,0,0,162.4,98.36Z"></path> <path class="cls-36" d="M161.34,99v-.08h-.06l-.67-.38a.28.28,0,0,0-.25,0l-.67.39h-.06V99h0a.09.09,0,0,0,.06.06l.68.4a.25.25,0,0,0,.24,0l.68-.4S161.34,99,161.34,99Z"></path> <path class="cls-36" d="M172.56,93.69v-.08h-.07l-.67-.38a.25.25,0,0,0-.24,0l-.67.39h-.06v.07h0a.07.07,0,0,0,.05.06l.68.4a.28.28,0,0,0,.25,0l.67-.4S172.56,93.72,172.56,93.69Z"></path> <path class="cls-36" d="M171.49,94.31v-.08h-.06l-.67-.39a.25.25,0,0,0-.24,0l-.67.39h-.06v.08h0s0,0,.05.07l.68.39a.28.28,0,0,0,.25,0l.67-.39A.08.08,0,0,0,171.49,94.31Z"></path> <path class="cls-36" d="M170.43,94.93v-.08h-.06l-.67-.39a.28.28,0,0,0-.25,0l-.67.39h-.05v.08h0a.1.1,0,0,0,.05.07l.68.39a.28.28,0,0,0,.25,0l.67-.39A.08.08,0,0,0,170.43,94.93Z"></path> <path class="cls-36" d="M169.37,95.54v-.08h-.06l-.67-.38a.28.28,0,0,0-.25,0l-.67.39h-.05v.07h0s0,0,.05.06l.68.4a.28.28,0,0,0,.25,0l.67-.4S169.37,95.57,169.37,95.54Z"></path> <path class="cls-36" d="M168.31,96.16v-.08h-.06l-.67-.39a.28.28,0,0,0-.25,0l-.67.39h-.06v.08h0s0,0,0,.07l.68.39a.25.25,0,0,0,.24,0l.68-.39A.08.08,0,0,0,168.31,96.16Z"></path> <path class="cls-36" d="M167.25,96.77V96.7h-.06l-.67-.39a.28.28,0,0,0-.25,0l-.67.39h-.06v.07h0a.13.13,0,0,0,.06.07l.68.39a.25.25,0,0,0,.24,0l.68-.39A.1.1,0,0,0,167.25,96.77Z"></path> <path class="cls-36" d="M166.19,97.39v-.08h-.06l-.67-.38a.28.28,0,0,0-.25,0l-.67.39h-.06v.07h0a.13.13,0,0,0,.05.06l.69.4a.26.26,0,0,0,.24,0l.68-.4S166.19,97.42,166.19,97.39Z"></path> <path class="cls-36" d="M165.13,98v-.08h-.07l-.66-.39a.28.28,0,0,0-.25,0l-.67.39h-.06V98h0a.12.12,0,0,0,.05.07l.69.39a.25.25,0,0,0,.24,0l.68-.39A.1.1,0,0,0,165.13,98Z"></path> <path class="cls-36" d="M164.07,98.62v-.08H164l-.66-.38a.28.28,0,0,0-.25,0l-.67.39h-.06v.07h0a.1.1,0,0,0,0,.07l.68.39a.28.28,0,0,0,.25,0l.68-.39A.1.1,0,0,0,164.07,98.62Z"></path> <path class="cls-36" d="M163,99.24v-.08h-.07l-.66-.38a.28.28,0,0,0-.25,0l-.67.38h-.06v.08h0s0,0,0,.06l.68.4a.36.36,0,0,0,.25,0l.68-.4S163,99.27,163,99.24Z"></path> <path class="cls-36" d="M162,99.86v-.08h-.07l-.67-.39a.25.25,0,0,0-.24,0l-.67.39h-.06v.08h0s0,0,0,.07l.68.39a.28.28,0,0,0,.25,0l.68-.39A.1.1,0,0,0,162,99.86Z"></path> <path class="cls-36" d="M160.89,100.39h-.07l-.67-.38a.25.25,0,0,0-.24,0l-.83.48H159v.07h0s0,0,0,.06l.68.39a.28.28,0,0,0,.25,0l.84-.49s0,0,0-.07h0Z"></path> <path class="cls-36" d="M166.13,92.44v-.08h-.06L165.4,92a.24.24,0,0,0-.19,0l-.05,0-.67.39h-.06v0l-4.72,2.74h0l-.67.39h0v.08h0v0h0v0h0s0,0,0,0h0l.68.39.06,0h.06a.28.28,0,0,0,.13,0l.67-.39h0l5.44-3.17S166.14,92.47,166.13,92.44Z"></path> <path class="cls-36" d="M174,93.5h0v-.08H174l-.18-.11a.28.28,0,0,0-.25,0l-.63.37-.1,0v.08a.12.12,0,0,0,.05.07l.19.11a.33.33,0,0,0,.24,0l.68-.4s.05,0,.05-.07Z"></path> <path class="cls-36" d="M173,94.12h0V94h-.05l-.18-.11a.28.28,0,0,0-.25,0l-.63.36-.1,0v.08a.1.1,0,0,0,.05.07l.19.1a.25.25,0,0,0,.24,0l.68-.39a.1.1,0,0,0,.05-.07Z"></path> <path class="cls-36" d="M171.9,94.73h0v-.07h-.05l-.18-.1a.28.28,0,0,0-.25,0l-.63.36-.1,0V95s0,0,.05.07l.19.11a.25.25,0,0,0,.24,0l.68-.4a.07.07,0,0,0,.05-.06h0Z"></path> <path class="cls-36" d="M170.84,95.35h0v-.08h-.05l-.19-.11a.25.25,0,0,0-.24,0l-.63.37-.1,0v.08s0,0,.05.07l.19.1a.25.25,0,0,0,.24,0l.68-.39s.05,0,.05-.07Z"></path> <path class="cls-36" d="M169.78,96h0v-.08h-.05l-.19-.1a.25.25,0,0,0-.24,0l-.63.36-.1,0v.08a.07.07,0,0,0,.05.06l.18.11a.28.28,0,0,0,.25,0l.68-.39a.1.1,0,0,0,.05-.07Z"></path> <path class="cls-36" d="M168.72,96.58h0v-.07h-.05l-.19-.1a.25.25,0,0,0-.24,0l-.63.36-.1,0v.08s0,0,.05.07l.18.11a.28.28,0,0,0,.25,0l.68-.4a.08.08,0,0,0,.05-.07Z"></path> <path class="cls-36" d="M167.66,97.2h0v-.08h0l-.19-.11a.25.25,0,0,0-.24,0l-.63.37-.1,0v.08a.1.1,0,0,0,.05.07l.18.1a.28.28,0,0,0,.25,0l.68-.39s0,0,0-.07Z"></path> <path class="cls-36" d="M166.6,97.82h0v-.07h-.06l-.18-.1a.28.28,0,0,0-.25,0l-.62.36-.1,0v.08a.07.07,0,0,0,.05.06l.18.11a.28.28,0,0,0,.25,0l.68-.39a.1.1,0,0,0,0-.07Z"></path> <path class="cls-36" d="M165.54,98.43h0v-.07h-.06l-.18-.11a.36.36,0,0,0-.25,0l-.62.37-.1,0v.08s0,0,0,.07l.18.11a.28.28,0,0,0,.25,0l.68-.4s0,0,0-.07Z"></path> <path class="cls-36" d="M164.47,99.05h0V99h-.05l-.18-.11a.28.28,0,0,0-.25,0l-.62.37-.1,0v.08a.1.1,0,0,0,0,.07l.18.1a.28.28,0,0,0,.25,0l.67-.39s.05,0,.05-.07Z"></path> <path class="cls-36" d="M163.41,99.67h0v-.07h0l-.18-.1a.28.28,0,0,0-.25,0l-.62.36-.11,0V100a.06.06,0,0,0,0,.06l.18.11a.28.28,0,0,0,.25,0l.67-.39a.08.08,0,0,0,0-.07Z"></path> <path class="cls-36" d="M162.35,100.28h0v-.07h0l-.18-.11a.28.28,0,0,0-.25,0l-.62.37-.11,0v.08a.1.1,0,0,0,.06.07l.18.11a.28.28,0,0,0,.25,0l.67-.4s0,0,0-.07Z"></path> <path class="cls-36" d="M161.29,100.9h0v-.08h0l-.18-.11a.28.28,0,0,0-.25,0l-.63.36-.1,0v.08a.13.13,0,0,0,.06.07l.18.1a.28.28,0,0,0,.25,0l.67-.39s0,0,0-.07Z"></path> <path class="cls-36" d="M173.6,91.76h0l-.68-.4a.28.28,0,0,0-.25,0l-1.26.74h-.06v.07h0s0,0,0,.07l.68.39a.25.25,0,0,0,.24,0l1.28-.74a.08.08,0,0,0,0-.07h0Z"></path> <path class="cls-36" d="M172.53,91.14h-.05l-.69-.4a.25.25,0,0,0-.24,0l-1.77,1-.09,0v.08h0a.1.1,0,0,0,.05.07l.68.39a.28.28,0,0,0,.25,0l1.81-1a.1.1,0,0,0,.05-.07h0Z"></path> <path class="cls-36" d="M171.45,90.51l0,0h0l-.68-.39a.25.25,0,0,0-.24,0l-1.77,1-.09,0v.07h0s0,0,0,.07l.68.4a.36.36,0,0,0,.25,0l1.8-1.06s.06,0,.05-.07h0Z"></path> <path class="cls-36" d="M160.27,99.51h-.05l-.68-.39a.28.28,0,0,0-.25,0l-1.28.74-.07,0V100h0s0,0,.05.07l.68.39a.28.28,0,0,0,.25,0l1.3-.75a.08.08,0,0,0,.05-.08h0Z"></path> <path class="cls-36" d="M159.68,98.58l-.68-.39a.28.28,0,0,0-.25,0l-1.83,1.07c-.07,0-.07.1,0,.14l.68.39a.28.28,0,0,0,.25,0l1.83-1.06a.08.08,0,0,0,0-.15Z"></path> <path class="cls-36" d="M157.51,97.46h0v-.07h0l-.18-.1a.28.28,0,0,0-.25,0l-.63.36-.1,0v.08a.07.07,0,0,0,0,.06l.19.11a.25.25,0,0,0,.24,0l.68-.39a.1.1,0,0,0,0-.07Z"></path> <path class="cls-36" d="M157,97.17h0v-.08h0l-.18-.11a.28.28,0,0,0-.25,0l-.63.36-.1,0v.08a.13.13,0,0,0,.06.07l.18.1a.28.28,0,0,0,.25,0l.67-.39a.08.08,0,0,0,0-.07Z"></path> <path class="cls-36" d="M175.25,92.79h0V92.7l-.05,0h0l-.19-.11a.28.28,0,0,0-.25,0l-.78.45-.11,0v.08h0a.06.06,0,0,0,.05.06l.18.11a.28.28,0,0,0,.25,0l.84-.49A.1.1,0,0,0,175.25,92.79Z"></path> <path class="cls-37" d="M173,92.47l.68.39a.28.28,0,0,0,.25,0l.68-.39a.09.09,0,0,0,0-.15l-.69-.39a.25.25,0,0,0-.24,0l-.68.39a.08.08,0,0,0,0,.15Z"></path> <path class="cls-37" d="M172,93.08l.68.4a.28.28,0,0,0,.25,0l.68-.4c.06,0,.06-.1,0-.14l-.68-.39a.25.25,0,0,0-.24,0l-.68.39c-.07,0-.07.1,0,.14Z"></path> <path class="cls-37" d="M170.9,93.7l.68.39a.28.28,0,0,0,.25,0l.67-.39c.07,0,.07-.1,0-.14l-.68-.4a.25.25,0,0,0-.24,0l-.68.4c-.07,0-.07.1,0,.14Z"></path> <path class="cls-37" d="M169.84,94.32l.68.39a.28.28,0,0,0,.25,0l.67-.39a.08.08,0,0,0,0-.15l-.68-.39a.28.28,0,0,0-.25,0l-.67.39a.08.08,0,0,0,0,.15Z"></path> <path class="cls-37" d="M168.78,94.93l.68.4a.31.31,0,0,0,.25,0l.67-.39c.07,0,.07-.1,0-.14l-.68-.39a.28.28,0,0,0-.25,0l-.67.39c-.07,0-.07.1,0,.14Z"></path> <path class="cls-37" d="M167.72,95.55l.68.39a.28.28,0,0,0,.25,0l.67-.39c.07,0,.07-.11,0-.14l-.68-.4a.28.28,0,0,0-.25,0l-.67.4c-.07,0-.07.1,0,.14Z"></path> <path class="cls-37" d="M166.66,96.16l.68.4a.25.25,0,0,0,.24,0l.68-.4c.07,0,.07-.1,0-.14l-.68-.39a.28.28,0,0,0-.25,0l-.67.39c-.07,0-.07.11,0,.14Z"></path> <path class="cls-37" d="M165.6,96.78l.68.39a.25.25,0,0,0,.24,0l.68-.39c.07,0,.07-.1,0-.14l-.68-.39a.31.31,0,0,0-.25,0l-.68.4c-.06,0-.06.1,0,.14Z"></path> <path class="cls-37" d="M164.54,97.4l.68.39a.25.25,0,0,0,.24,0l.68-.39a.08.08,0,0,0,0-.15l-.68-.39a.28.28,0,0,0-.25,0l-.68.39a.08.08,0,0,0,0,.15Z"></path> <path class="cls-37" d="M163.47,98l.69.4a.25.25,0,0,0,.24,0l.68-.4c.07,0,.07-.1,0-.14l-.68-.39a.28.28,0,0,0-.25,0l-.68.39a.08.08,0,0,0,0,.14Z"></path> <path class="cls-37" d="M162.41,98.63l.68.39a.28.28,0,0,0,.25,0l.68-.39c.07,0,.07-.1,0-.14l-.68-.4a.28.28,0,0,0-.25,0l-.68.4c-.07,0-.06.1,0,.14Z"></path> <path class="cls-37" d="M169.23,93.43l.68.39a.28.28,0,0,0,.25,0l.68-.39c.06,0,.07-.1,0-.14l-.68-.4a.36.36,0,0,0-.25,0l-.68.4c-.07,0-.07.1,0,.14Z"></path> <path class="cls-37" d="M168.17,94.05l.68.39a.28.28,0,0,0,.25,0l.68-.39a.09.09,0,0,0,0-.15l-.69-.39a.25.25,0,0,0-.24,0l-.68.39a.08.08,0,0,0,0,.15Z"></path> <path class="cls-37" d="M167.11,94.66l.68.4a.28.28,0,0,0,.25,0l.68-.4c.06,0,.06-.1,0-.14l-.68-.39a.26.26,0,0,0-.24,0l-.68.39c-.07,0-.07.1,0,.14Z"></path> <path class="cls-37" d="M166.05,95.28l.68.39a.28.28,0,0,0,.25,0l.67-.39c.07,0,.07-.1,0-.14l-.68-.4a.25.25,0,0,0-.24,0l-.68.4c-.07,0-.07.1,0,.14Z"></path> <path class="cls-37" d="M165,95.9l.68.39a.28.28,0,0,0,.25,0l.67-.39a.08.08,0,0,0,0-.15l-.68-.39a.25.25,0,0,0-.24,0l-.68.39a.08.08,0,0,0,0,.15Z"></path> <path class="cls-37" d="M163.93,96.51l.68.4a.28.28,0,0,0,.25,0l.67-.4c.07,0,.07-.1,0-.14l-.68-.39a.28.28,0,0,0-.25,0l-.67.39c-.07,0-.07.1,0,.14Z"></path> <path class="cls-37" d="M162.87,97.13l.68.39a.28.28,0,0,0,.25,0l.67-.39c.07,0,.07-.1,0-.14l-.68-.4a.28.28,0,0,0-.25,0l-.67.4c-.07,0-.07.1,0,.14Z"></path> <path class="cls-37" d="M161.81,97.75l.68.39a.28.28,0,0,0,.25,0l.67-.39a.08.08,0,0,0,0-.15l-.68-.39a.28.28,0,0,0-.25,0l-.67.39a.08.08,0,0,0,0,.15Z"></path> <path class="cls-37" d="M160.75,98.36l.68.4a.25.25,0,0,0,.24,0l.68-.4c.07,0,.07-.1,0-.14l-.68-.39a.28.28,0,0,0-.25,0l-.67.39c-.07,0-.07.1,0,.14Z"></path> <path class="cls-37" d="M159.69,99l.68.39a.25.25,0,0,0,.24,0l.68-.39c.07,0,.07-.1,0-.14l-.68-.4a.28.28,0,0,0-.25,0l-.68.4c-.06,0-.06.1,0,.14Z"></path> <path class="cls-37" d="M161.35,99.25l.68.39a.28.28,0,0,0,.25,0l.68-.39a.08.08,0,0,0,0-.15l-.68-.39a.28.28,0,0,0-.25,0l-.68.39a.08.08,0,0,0,0,.15Z"></path> <path class="cls-37" d="M160.29,99.86l.68.4a.28.28,0,0,0,.25,0l.68-.4a.08.08,0,0,0,0-.14l-.68-.39a.28.28,0,0,0-.25,0l-.68.39c-.07,0-.07.1,0,.14Z"></path> <path class="cls-37" d="M168.72,90l.68.4a.28.28,0,0,0,.25,0l.68-.4a.08.08,0,0,0,0-.14l-.69-.39a.25.25,0,0,0-.24,0l-.68.39c-.07,0-.07.1,0,.14Z"></path> <path class="cls-37" d="M167.66,90.6l.68.39a.28.28,0,0,0,.25,0l.68-.39a.08.08,0,0,0,0-.14l-.69-.4a.25.25,0,0,0-.24,0l-.68.4c-.07,0-.07.1,0,.14Z"></path> <path class="cls-37" d="M166.6,91.22l.68.39a.28.28,0,0,0,.25,0l.68-.39a.08.08,0,0,0,0-.15l-.68-.39a.25.25,0,0,0-.24,0l-.68.39a.08.08,0,0,0,0,.15Z"></path> <path class="cls-37" d="M165.54,91.83l.68.4a.28.28,0,0,0,.25,0l.67-.4c.07,0,.07-.1,0-.14l-.68-.39a.25.25,0,0,0-.24,0l-.68.39c-.07,0-.07.1,0,.14Z"></path> <path class="cls-37" d="M170.29,92.81l.68.4a.28.28,0,0,0,.25,0l.68-.4c.07,0,.07-.1,0-.14l-.68-.39a.28.28,0,0,0-.25,0l-.68.39c-.07,0-.07.1,0,.14Z"></path> <path class="cls-37" d="M159.07,100.58l.68.39a.28.28,0,0,0,.25,0l.84-.49a.08.08,0,0,0,0-.14l-.69-.4a.25.25,0,0,0-.24,0l-.84.49a.08.08,0,0,0,0,.15Z"></path> <path class="cls-37" d="M159,95.61l.68.4a.36.36,0,0,0,.25,0l6.11-3.56c.07,0,.07-.1,0-.14l-.68-.4a.28.28,0,0,0-.25,0L159,95.47c-.07,0-.07.1,0,.14Z"></path> <path class="cls-37" d="M172.86,93.79l.19.11a.25.25,0,0,0,.24,0l.68-.39a.08.08,0,0,0,0-.15l-.18-.1a.28.28,0,0,0-.25,0l-.68.39a.08.08,0,0,0,0,.14Z"></path> <path class="cls-37" d="M171.8,94.41l.19.11a.25.25,0,0,0,.24,0l.68-.4c.07,0,.07-.1,0-.14l-.18-.11a.31.31,0,0,0-.25,0l-.68.4c-.07,0-.06.1,0,.14Z"></path> <path class="cls-37" d="M170.74,95l.19.1a.25.25,0,0,0,.24,0l.68-.39c.07,0,.07-.1,0-.14l-.18-.11a.28.28,0,0,0-.25,0l-.68.39a.08.08,0,0,0,0,.15Z"></path> <path class="cls-37" d="M169.68,95.64l.19.11a.25.25,0,0,0,.24,0l.68-.39a.08.08,0,0,0,0-.15l-.19-.1a.25.25,0,0,0-.24,0l-.68.39c-.07,0-.07.1,0,.14Z"></path> <path class="cls-37" d="M168.62,96.26l.18.11a.28.28,0,0,0,.25,0l.68-.4c.07,0,.07-.1,0-.14l-.19-.11a.26.26,0,0,0-.24,0l-.68.4c-.07,0-.07.1,0,.14Z"></path> <path class="cls-37" d="M167.56,96.88l.18.1a.28.28,0,0,0,.25,0l.68-.39c.07,0,.07-.1,0-.14l-.19-.11a.25.25,0,0,0-.24,0l-.68.39a.08.08,0,0,0,0,.15Z"></path> <path class="cls-37" d="M166.5,97.49l.18.11a.28.28,0,0,0,.25,0l.68-.39a.09.09,0,0,0,0-.15l-.19-.1a.25.25,0,0,0-.24,0l-.68.39c-.07,0-.07.1,0,.14Z"></path> <path class="cls-37" d="M165.44,98.11l.18.11a.36.36,0,0,0,.25,0l.68-.4a.08.08,0,0,0,0-.14l-.19-.11a.28.28,0,0,0-.25,0l-.67.4c-.07,0-.07.1,0,.14Z"></path> <path class="cls-37" d="M164.38,98.73l.18.1a.28.28,0,0,0,.25,0l.68-.39c.06,0,.06-.1,0-.14l-.18-.11a.28.28,0,0,0-.25,0l-.67.39a.08.08,0,0,0,0,.15Z"></path> <path class="cls-37" d="M163.32,99.34l.18.11a.28.28,0,0,0,.25,0l.67-.39a.08.08,0,0,0,0-.15l-.18-.1a.28.28,0,0,0-.25,0l-.67.39c-.07,0-.07.1,0,.14Z"></path> <path class="cls-37" d="M162.26,100l.18.1a.31.31,0,0,0,.25,0l.67-.4c.07,0,.07-.1,0-.14l-.18-.11a.28.28,0,0,0-.25,0l-.67.4c-.07,0-.07.1,0,.14Z"></path> <path class="cls-37" d="M161.2,100.58l.18.1a.28.28,0,0,0,.25,0l.67-.39a.08.08,0,0,0,0-.15l-.18-.1a.28.28,0,0,0-.25,0l-.68.39a.08.08,0,0,0,0,.15Z"></path> <path class="cls-37" d="M160.14,101.19l.18.11a.28.28,0,0,0,.25,0l.67-.4c.07,0,.07-.1,0-.14l-.18-.1a.28.28,0,0,0-.25,0l-.68.39c-.06,0-.06.1,0,.14Z"></path> <path class="cls-37" d="M173.93,93.18l.18.1a.28.28,0,0,0,.25,0l.84-.48a.09.09,0,0,0,0-.15l-.19-.1a.28.28,0,0,0-.25,0l-.84.48a.08.08,0,0,0,0,.15Z"></path> <path class="cls-37" d="M171.35,92.19l.68.4a.25.25,0,0,0,.24,0l1.28-.74a.08.08,0,0,0,0-.15l-.68-.39a.28.28,0,0,0-.25,0l-1.27.74c-.07,0-.07.1,0,.14Z"></path> <path class="cls-37" d="M169.74,91.88l.68.39a.28.28,0,0,0,.25,0l1.81-1a.09.09,0,0,0,0-.15l-.69-.39a.25.25,0,0,0-.24,0l-1.81,1c-.07,0-.07.1,0,.14Z"></path> <path class="cls-37" d="M168.66,91.26l.68.39a.28.28,0,0,0,.25,0l1.8-1.05c.07,0,.07-.1,0-.14l-.68-.4a.25.25,0,0,0-.24,0l-1.81,1a.08.08,0,0,0,0,.15Z"></path> <path class="cls-37" d="M158,100l.68.4a.28.28,0,0,0,.25,0l1.3-.76c.07,0,.07-.1,0-.14l-.68-.39a.28.28,0,0,0-.25,0l-1.3.75c-.07,0-.07.11,0,.14Z"></path> <path class="cls-37" d="M156.92,99.33l.68.4a.28.28,0,0,0,.25,0l1.83-1.07c.07,0,.07-.1,0-.14l-.68-.39a.28.28,0,0,0-.25,0l-1.83,1.06c-.07,0-.07.1,0,.14Z"></path> <path class="cls-37" d="M156.35,97.75l.19.1a.25.25,0,0,0,.24,0l.68-.39c.07,0,.07-.1,0-.14l-.19-.11a.25.25,0,0,0-.24,0l-.68.4c-.07,0-.07.1,0,.14Z"></path> <path class="cls-37" d="M155.86,97.46l.18.11a.28.28,0,0,0,.25,0l.67-.4c.07,0,.07-.1,0-.14l-.18-.1a.28.28,0,0,0-.25,0l-.68.39c-.06,0-.06.1,0,.14Z"></path> <path class="cls-37" d="M160.2,97.43l.68.39a.25.25,0,0,0,.24,0l.68-.39c.07,0,.07-.1,0-.14l-.68-.4a.28.28,0,0,0-.25,0l-.68.4c-.06,0-.06.1,0,.14Z"></path> <path class="cls-37" d="M159.13,98.05l.69.39a.25.25,0,0,0,.24,0l.68-.39a.08.08,0,0,0,0-.15l-.68-.39a.28.28,0,0,0-.25,0l-.68.39a.08.08,0,0,0,0,.15Z"></path> <path class="cls-37" d="M159.11,96.8l.68.4a.28.28,0,0,0,.25,0l.68-.39a.08.08,0,0,0,0-.15l-.68-.39a.28.28,0,0,0-.25,0l-.68.39c-.07,0-.07.11,0,.14Z"></path> <path class="cls-37" d="M158.05,97.42l.68.39a.28.28,0,0,0,.25,0l.68-.39a.08.08,0,0,0,0-.14l-.69-.39a.25.25,0,0,0-.24,0l-.68.39c-.07,0-.07.1,0,.14Z"></path> <path class="cls-37" d="M157,98l.68.39a.28.28,0,0,0,.25,0l.68-.39a.08.08,0,0,0,0-.14l-.69-.4a.25.25,0,0,0-.24,0l-.68.39a.08.08,0,0,0,0,.15Z"></path> <path class="cls-37" d="M155.84,98.71l.68.39a.25.25,0,0,0,.24,0l.78-.45c.06,0,.06-.1,0-.14l-.68-.39a.25.25,0,0,0-.24,0l-.77.45c-.07,0-.07.1,0,.14Z"></path> <path class="cls-37" d="M162.32,96.2l.68.39a.25.25,0,0,0,.24,0l.68-.39a.08.08,0,0,0,0-.15l-.68-.39a.28.28,0,0,0-.25,0l-.67.39a.08.08,0,0,0,0,.15Z"></path> <path class="cls-37" d="M161.26,96.81l.68.4a.25.25,0,0,0,.24,0l.68-.4c.07,0,.07-.1,0-.14l-.68-.39a.28.28,0,0,0-.25,0l-.67.39c-.07,0-.07.1,0,.14Z"></path> <path class="cls-37" d="M161.23,95.57l.69.4a.33.33,0,0,0,.24,0l.68-.4c.07,0,.07-.1,0-.14l-.68-.39a.28.28,0,0,0-.25,0l-.68.39a.08.08,0,0,0,0,.14Z"></path> <path class="cls-37" d="M160.17,96.19l.69.39a.25.25,0,0,0,.24,0l.68-.39c.07,0,.07-.1,0-.14l-.68-.4a.28.28,0,0,0-.25,0l-.68.4c-.07,0-.06.1,0,.14Z"></path> <path class="cls-37" d="M164.44,95l.68.4a.28.28,0,0,0,.25,0L166,95c.07,0,.07-.1,0-.14l-.68-.39a.28.28,0,0,0-.25,0l-.67.39c-.07,0-.07.1,0,.14Z"></path> <path class="cls-37" d="M163.38,95.58l.68.39a.28.28,0,0,0,.25,0l.67-.39c.07,0,.07-.1,0-.14l-.68-.4a.28.28,0,0,0-.25,0l-.67.4c-.07,0-.07.1,0,.14Z"></path> <path class="cls-37" d="M163.36,94.34l.68.39a.25.25,0,0,0,.24,0l.68-.39c.07,0,.07-.1,0-.14l-.68-.4a.28.28,0,0,0-.25,0l-.67.4c-.07,0-.07.1,0,.14Z"></path> <path class="cls-37" d="M162.29,95l.69.39a.26.26,0,0,0,.24,0l.68-.39a.08.08,0,0,0,0-.15l-.68-.39a.28.28,0,0,0-.25,0l-.68.39a.08.08,0,0,0,0,.15Z"></path> <path class="cls-37" d="M166.56,93.73l.68.39a.28.28,0,0,0,.25,0l.67-.39c.07,0,.07-.1,0-.14l-.68-.4a.33.33,0,0,0-.24,0l-.68.4c-.07,0-.07.1,0,.14Z"></path> <path class="cls-37" d="M165.5,94.35l.68.39a.28.28,0,0,0,.25,0l.67-.39a.08.08,0,0,0,0-.15l-.68-.39a.28.28,0,0,0-.25,0l-.67.39a.08.08,0,0,0,0,.15Z"></path> <path class="cls-37" d="M165.48,93.11l.68.39a.28.28,0,0,0,.25,0l.67-.39a.08.08,0,0,0,0-.15l-.68-.39a.28.28,0,0,0-.25,0l-.67.39a.08.08,0,0,0,0,.15Z"></path> <path class="cls-37" d="M164.42,93.72l.68.4a.25.25,0,0,0,.24,0l.68-.4c.07,0,.07-.1,0-.14l-.68-.39a.28.28,0,0,0-.25,0l-.67.39c-.07,0-.07.1,0,.14Z"></path> <path class="cls-37" d="M168.68,92.5l.68.39a.28.28,0,0,0,.25,0l.68-.39a.08.08,0,0,0,0-.15L169.6,92a.26.26,0,0,0-.24,0l-.68.39a.08.08,0,0,0,0,.15Z"></path> <path class="cls-37" d="M167.62,93.11l.68.4a.28.28,0,0,0,.25,0l.68-.4c.06,0,.06-.1,0-.14l-.68-.39a.25.25,0,0,0-.24,0l-.68.39c-.07,0-.07.1,0,.14Z"></path> <path class="cls-37" d="M167.6,91.87l.68.4a.28.28,0,0,0,.25,0l.67-.4c.07,0,.07-.1,0-.14l-.68-.39a.25.25,0,0,0-.24,0l-.68.39c-.07,0-.07.1,0,.14Z"></path> <path class="cls-37" d="M166.54,92.49l.68.39a.28.28,0,0,0,.25,0l.67-.39c.07,0,.07-.1,0-.14l-.68-.4a.28.28,0,0,0-.25,0l-.67.4c-.07,0-.07.1,0,.14Z"></path> <path class="cls-37" d="M158,96.23l.68.39a.25.25,0,0,0,.24,0l.68-.39c.07,0,.07-.1,0-.14l-.68-.4a.28.28,0,0,0-.25,0l-.67.4c-.07,0-.07.1,0,.14Z"></path> <path class="cls-37" d="M156.92,96.85l.68.39a.25.25,0,0,0,.24,0l.68-.39a.08.08,0,0,0,0-.15l-.68-.39a.28.28,0,0,0-.25,0l-.68.39a.08.08,0,0,0,0,.15Z"></path> <path class="cls-37" d="M154.77,98.09l.68.4a.28.28,0,0,0,.25,0l.67-.4c.07,0,.07-.1,0-.14l-.68-.39a.28.28,0,0,0-.25,0l-.67.39c-.07,0-.07.1,0,.14Z"></path> <path class="cls-38" d="M156.16,108l4.57-2.64c.33-.19.29-.51-.09-.73l-6.2-3.58a1.38,1.38,0,0,0-1.25,0l-4.58,2.64c-.32.19-.28.51.09.73l6.2,3.58A1.41,1.41,0,0,0,156.16,108Z"></path> <path class="cls-34" d="M154.84,105.83s-2.1-1.23-2.28-1.37c-.43-.33-.33-.5-.15-.73a2.72,2.72,0,0,1,2.35-.72,3.85,3.85,0,0,1,2.3,1.79c.08.28,0,.5-.44.73A2,2,0,0,1,154.84,105.83Z"></path> <path class="cls-39" d="M154.84,105.45s-2.1-1.23-2.28-1.37c-.43-.33-.33-.5-.15-.73a2.72,2.72,0,0,1,2.35-.72,3.85,3.85,0,0,1,2.3,1.79c.08.28,0,.5-.44.73A2,2,0,0,1,154.84,105.45Z"></path> <path class="cls-3" d="M190.59,98.8l-5.13-3a1.25,1.25,0,0,0-1.13,0L184,96l-.36-.21a1.27,1.27,0,0,0-1.14,0l-14.31,8.24a.34.34,0,0,0,0,.65l5.14,3a.91.91,0,0,0,.65.06,7.81,7.81,0,0,0,2-.06l14.62-8.42C190.82,99.15,190.82,98.94,190.59,98.8Z"></path> <path class="cls-34" d="M186.51,100l-3.36-9.88-2.78,1.61v0l0,6-.19,0a2.27,2.27,0,0,0-1.39.29l-4.43,2.42a.68.68,0,0,0-.27.26l-.13,0v.48a.8.8,0,0,0,.4.7l4.6,2.65,0,0a2.59,2.59,0,0,0,.62.27h0l.15,0,.35,0a2.7,2.7,0,0,0,1.34-.25l.08,0,.12-.07,1.9-1.1,2.15-1.23a1.76,1.76,0,0,0,.37-.29,1.94,1.94,0,0,0,.34-.47,1.43,1.43,0,0,0,.08-.22.79.79,0,0,0,.06-.22A1.71,1.71,0,0,0,186.51,100Z"></path> <path class="cls-40" d="M190.54,73l-.78-.54h0a.51.51,0,0,0-.53.07L169.07,84.16a1.89,1.89,0,0,0-.86,1.29l-1.39,15.46a.62.62,0,0,0,.23.64h0l.74.51.84-1.08L187.32,90.2a2.68,2.68,0,0,0,1.22-1.83l1.31-14.49Z"></path> <path class="cls-34" d="M190.69,73.44l-1.4,15.45a2.67,2.67,0,0,1-1.21,1.83L168.57,102c-.61.35-1.06.1-1-.56L169,86a1.62,1.62,0,0,1,.25-.68,1.87,1.87,0,0,1,.61-.61L190,73c.23-.14.43-.15.55-.05A.46.46,0,0,1,190.69,73.44Z"></path> <path class="cls-36" d="M186.05,99.54l-2.83-9.35-2.71,1.57-.46,5.53a2.23,2.23,0,0,0-1.53.26L174.33,100a.78.78,0,0,0,0,1.36l4.39,2.53a2.61,2.61,0,0,0,2.62,0l3.93-2.27A1.73,1.73,0,0,0,186.05,99.54Z"></path> <path class="cls-41" d="M181.12,89.52c-5.36,3.57-9.34,0-11.9-4.23a1.87,1.87,0,0,1,.61-.61L190,73c.23-.14.43-.15.55-.05S191.26,82.78,181.12,89.52Z"></path> <path class="cls-42" d="M186.72,100.91l-.06.22-.09.22a1.9,1.9,0,0,1-.33.47,1.82,1.82,0,0,1-.38.29l-2.14,1.23-1.91,1.1-.12.07-.08,0a2.88,2.88,0,0,1-1.33.24,2.2,2.2,0,0,1-.36,0l-.15,0h0v-.37c.4.06.73-.12.73-.88h0l0-11.72v0l2.79-1.61,3.36,9.88A1.81,1.81,0,0,1,186.72,100.91Z"></path> <path class="cls-34" d="M180.47,103.46v.89c0,.18-.21.34-.33.44h0l-.35,0-.15,0h0a2.59,2.59,0,0,1-.62-.27l0,0c-.1-.19-.25-.57.09-.4.87.43,1-.29,1-.29V95.36l.46-3.6Z"></path> <path class="cls-15" d="M137.71,94.36c1.48,3,15.64,1.78,16.6,1.83s1.23.69,2,1.1a8.56,8.56,0,0,0,2.16.62s1.06-.31,1.57-.49a1.34,1.34,0,0,0,.7-.79l.52.19.83-.14.43-.62-1.15-.48-2.08-1.76a13.85,13.85,0,0,0,1.64,1c.37.11,1.24.08,1.26-.12s0-.37-.81-.73-1.15-.82-1.87-.84-2.06.07-4.75.31-13.67-2-13.67-2-3.38.87-3.45,2.56A1,1,0,0,0,137.71,94.36Z"></path> <path class="cls-43" d="M137.71,94.36c1.48,3,15.64,1.78,16.6,1.83s1.23.69,2,1.1a8.56,8.56,0,0,0,2.16.62s1.06-.31,1.57-.49a1.34,1.34,0,0,0,.7-.79l-1.12-.79-.53-.27s.14.7.39.83,1,.45,1,.45l-.52.46s-1.31.43-1.59.46a11.57,11.57,0,0,1-2.65-1.14A3.92,3.92,0,0,0,154.6,96c-1.14.13-8.66.14-10.27.08a25.41,25.41,0,0,1-4.72-.62,2.76,2.76,0,0,1-2-1.47A1,1,0,0,0,137.71,94.36Z"></path> <path class="cls-15" d="M161.38,91.29a6.79,6.79,0,0,0,.34.81h0a2.66,2.66,0,0,0,.69.56c.45.21,1.35,1.36,1.57,1.41s.43-.18.66-.12a.22.22,0,0,0,.14,0h0l0,0h0l0,0,0,0h0l0,0a1.77,1.77,0,0,0,.1-.17l.15-.1.24-.15,0,0h0l0,0,.07,0h0l0,0h.15a.57.57,0,0,0,.3-.14,9.4,9.4,0,0,0,1.07-1.1.5.5,0,0,0,0-.59,3.49,3.49,0,0,1-.2-.44v0l0,0a5.34,5.34,0,0,0-.64-.86l0,0c-.28-.31-.58-.62-.76-.81l-.08-.09h0l0,0,0,0h0l-.48.08a2.36,2.36,0,0,0-.67-.29c-.24,0-.71.34-1.15.32h0c-.47.33-.93.28-1.17.54S161.17,90.69,161.38,91.29Z"></path> <path class="cls-43" d="M164.1,93.58a3.55,3.55,0,0,0-.34-1c-.24-.36-.77-1-.77-1s-.21-1-.08-1.15.5-.51.5-.51.72,1,.81,1.17a3.88,3.88,0,0,1,0,1,1.56,1.56,0,0,0-.08,1,6.58,6.58,0,0,1,.28.94Z"></path> <path class="cls-43" d="M166,92.69a5.43,5.43,0,0,1-.55.68.37.37,0,0,0,.13.07c.06-.17.79-.94.85-1.07a6.88,6.88,0,0,0,.5-1.13,3.86,3.86,0,0,0-.61-1l0,0a7,7,0,0,1,.41.91A5.76,5.76,0,0,1,166,92.69Z"></path> <path class="cls-43" d="M165,93.76a1.77,1.77,0,0,0,.1-.17l.15-.1c-.1,0-.12-.07-.09-.17l.28-.92a8.06,8.06,0,0,0,.46-1.32,2.72,2.72,0,0,0-1.25-1.5,5,5,0,0,1,.93,1.26,12.81,12.81,0,0,1-.57,2.33S165.06,93.61,165,93.76Z"></path> <polygon class="cls-3" points="136.59 127.49 124.98 120.78 136.59 114.08 140.45 127.49 136.59 127.49"></polygon> <polygon class="cls-31" points="140.45 127.49 152.07 120.78 152.07 112.45 140.45 119.16 140.45 127.49"></polygon> <polygon class="cls-33" points="140.45 127.49 128.83 120.78 128.83 112.45 140.45 119.16 140.45 127.49"></polygon> <polygon class="cls-44" points="128.83 112.45 140.45 119.16 134.18 115.81 128.83 112.45"></polygon> <polygon class="cls-45" points="140.45 119.16 128.83 112.45 140.45 105.74 152.07 112.45 140.45 119.16"></polygon> <polygon class="cls-10" points="135.46 121.54 133.6 120.47 133.6 115.2 135.46 116.28 135.46 121.54"></polygon> <polygon class="cls-46" points="135.46 116.28 147.08 109.57 145.21 108.49 133.6 115.2 135.46 116.28"></polygon> <polygon class="cls-13" points="134.6 115.78 146.22 109.07 146.09 109 134.47 115.7 134.6 115.78"></polygon> <path class="cls-47" d="M145.43,153.12l1.13-4.39h0l-2.49,1.37-.22-.38,3.32-1.83.15.28-1.12,4.37v0L149,151l.21.39-3.58,2Z"></path> <path class="cls-47" d="M151.55,147.92l-1.9,1.05.71,1.28,2.12-1.17.21.38L149.93,151l-2-3.56,2.65-1.46.21.38-2,1.12.62,1.12,1.9-1.05Z"></path> <path class="cls-47" d="M151.58,145.5a10.05,10.05,0,0,1,1.17-.74,2.91,2.91,0,0,1,1.58-.5.9.9,0,0,1,.76.46,1.19,1.19,0,0,1-.42,1.42v0a1.1,1.1,0,0,1,1.12.32,5.49,5.49,0,0,0,.92.76l-.66.37a4.93,4.93,0,0,1-.79-.67,1,1,0,0,0-1.37-.15l-.59.33.85,1.54-.64.35Zm1.52,1.27.65-.36c.68-.37,1-.88.74-1.28s-.83-.41-1.5,0a3.8,3.8,0,0,0-.6.38Z"></path> <path class="cls-47" d="M159.05,143.78l-1.91,1.05.71,1.28,2.12-1.17.22.38-2.76,1.53-2-3.56,2.65-1.46.22.38-2,1.12.62,1.12,1.91-1Z"></path> <path class="cls-47" d="M164.17,141,162.26,142l.71,1.28,2.13-1.17.21.38L162.55,144l-2-3.56,2.65-1.46.21.38-2,1.12.62,1.12,1.91-1.05Z"></path> <path class="cls-47" d="M168.82,140.56l-1.06-.44c-.42-.16-.69-.27-1-.39h0c0,.28-.06.55-.14,1l-.16,1.1-.73.41.51-2.63-2.42-1,.74-.41,1.11.48c.31.13.55.23.78.35h0a7.22,7.22,0,0,1,.12-.85l.2-1.2.73-.41-.54,2.56,2.54,1Z"></path> <path class="cls-47" d="M168.34,136.23a13,13,0,0,1,1.18-.74,3,3,0,0,1,1.54-.46,1,1,0,0,1,.84.5,1,1,0,0,1,0,1,2.81,2.81,0,0,1-1.28,1.22,2.76,2.76,0,0,1-.53.25l.79,1.43-.63.35Zm1.58,1.37a2.93,2.93,0,0,0,.55-.26c.76-.42,1.08-.94.81-1.43s-.84-.45-1.54-.06a4.2,4.2,0,0,0-.58.36Z"></path> <path class="cls-47" d="M172.22,134.1a12.74,12.74,0,0,1,1.17-.75,3,3,0,0,1,1.58-.49.9.9,0,0,1,.76.46,1.19,1.19,0,0,1-.42,1.42v0a1.09,1.09,0,0,1,1.11.32,5.49,5.49,0,0,0,.92.76l-.65.37a4.45,4.45,0,0,1-.8-.67,1,1,0,0,0-1.36-.15l-.6.33.85,1.54-.63.35Zm1.53,1.27.64-.36c.68-.37,1-.88.74-1.28s-.83-.41-1.5,0a4.14,4.14,0,0,0-.6.39Z"></path> <path class="cls-47" d="M179.69,132.38l-1.91,1.05.71,1.28,2.13-1.17.21.38-2.76,1.53-2-3.56,2.65-1.46.21.38-2,1.12.62,1.12,1.91-1.05Z"></path> <path class="cls-47" d="M181.25,133a3.37,3.37,0,0,0,1.27-.4c.65-.35.89-.81.69-1.17s-.55-.38-1.32-.2-1.57.21-1.85-.29.1-1.31,1.05-1.84a3.39,3.39,0,0,1,1.19-.43l0,.47a3.21,3.21,0,0,0-1,.35c-.67.37-.76.8-.63,1s.58.34,1.36.15c1-.22,1.54-.17,1.83.35s0,1.34-1.16,2a3.8,3.8,0,0,1-1.37.46Z"></path> <path class="cls-47" d="M184.84,131a3.27,3.27,0,0,0,1.26-.4c.65-.36.89-.81.7-1.17s-.55-.38-1.32-.2-1.57.21-1.85-.29.1-1.32,1.05-1.84a3.35,3.35,0,0,1,1.18-.43l0,.47a2.91,2.91,0,0,0-1,.35c-.67.37-.76.8-.63,1s.57.33,1.35.15c1-.23,1.54-.17,1.83.35s0,1.34-1.15,2a3.84,3.84,0,0,1-1.38.46Z"></path> <path class="cls-47" d="M193.73,126.65a4.89,4.89,0,0,1-1.2.88c-1.39.76-2.78.7-3.42-.46s0-2.44,1.53-3.28a4,4,0,0,1,1.25-.49l.06.46a3.33,3.33,0,0,0-1.07.4c-1.15.63-1.62,1.59-1.11,2.52s1.48,1,2.68.39a4,4,0,0,0,1-.72Z"></path> <path class="cls-47" d="M194.79,124.75l.11,1.4-.66.36L194,122l.76-.43,3.64,2.64-.68.37-1.14-.83Zm1.41-1.25-1-.75c-.24-.18-.43-.35-.62-.51h0c0,.25.08.51.11.78l.08,1.29Z"></path> <path class="cls-47" d="M197.13,120.34a12.74,12.74,0,0,1,1.17-.75,3,3,0,0,1,1.58-.49.9.9,0,0,1,.76.46,1.17,1.17,0,0,1-.42,1.42v0a1.1,1.1,0,0,1,1.12.32,5.56,5.56,0,0,0,.91.76l-.65.37a4.84,4.84,0,0,1-.8-.67,1,1,0,0,0-1.36-.15l-.6.33.85,1.54-.63.35Zm1.53,1.27.65-.36c.67-.37.95-.88.73-1.28s-.82-.41-1.5,0a4.14,4.14,0,0,0-.6.39Z"></path> <path class="cls-47" d="M206.65,119.45a6.79,6.79,0,0,1-1.4,1,3.56,3.56,0,0,1-2.09.54,1.82,1.82,0,0,1-1.42-.94c-.58-1.07,0-2.4,1.65-3.31a4.89,4.89,0,0,1,1.31-.51l.05.46a3.76,3.76,0,0,0-1.17.45c-1.19.66-1.67,1.63-1.18,2.52s1.54,1,2.69.39a3.46,3.46,0,0,0,.79-.56l-.59-1.06-1,.55-.2-.37,1.62-.9Z"></path> <path class="cls-47" d="M210.9,115c.67,1.22,0,2.44-1.25,3.13s-2.61.49-3.2-.59-.06-2.4,1.25-3.12S210.31,113.89,210.9,115Zm-3.78,2.16a1.8,1.8,0,1,0,.75-2.35A1.65,1.65,0,0,0,207.12,117.11Z"></path> <path class="cls-3" d="M193.67,159c5.74-3.31,15-3.33,20.72,0s5.67,8.65-.07,12-15,3.33-20.72,0S187.93,162.29,193.67,159Z"></path> <path class="cls-15" d="M214,94.42a3.54,3.54,0,0,1,2.64,1.81c1.06,1.74,1.58,14.24-.27,16.62-1.42,1-7-1.07-7-1.07Z"></path> <path class="cls-48" d="M212.18,94.75a2.8,2.8,0,0,1,2.79,0c1.78.79,2.53,3,2.67,3.59s.15,7.49.15,7.49-.82,2-4.08,1.17S212.18,94.75,212.18,94.75Z"></path> <path class="cls-49" d="M208.15,158a7.38,7.38,0,0,0-3.2-1.07c-1.35,0-1.25,1.65-1,2.39s2.55,2.7,2.55,2.7l1.07,1.09a15.89,15.89,0,0,0,1.55,1.53,2.5,2.5,0,0,0,2.2.12c.72-.29.86-.44.91-.51a5.08,5.08,0,0,0,0-3C211.77,159.79,208.15,158,208.15,158Z"></path> <path class="cls-50" d="M214.23,121.48a12.56,12.56,0,0,1-.39,7.69,41.83,41.83,0,0,0-2.05,10.55c0,1.15.84,5.66,1,8.52s.13,6.53.06,9.39-.25,4.24-.25,4.24a2.54,2.54,0,0,1-2.2,1,6.24,6.24,0,0,1-3.59-1.93,8.67,8.67,0,0,1,.17-2.27,30,30,0,0,0,0-8.37c-.63-3.83-2-9.74-2-11.62s1.15-10.23,1.15-10.23Z"></path> <path class="cls-49" d="M193.49,165.8c.29.68.63,1.68,3,2.31s3.09.43,3.61.65a19.06,19.06,0,0,0,1.78.82,6.46,6.46,0,0,0,2.8,0,1.8,1.8,0,0,0,1.11-1,.87.87,0,0,0,.06-.23,5.77,5.77,0,0,0,0-2c-.2-.27-4.82-2.89-4.82-2.89s-3.88.13-4.72.1a7,7,0,0,0-2.36.22,2,2,0,0,0-.46,1.11A1.64,1.64,0,0,0,193.49,165.8Z"></path> <path class="cls-15" d="M200.52,163.86a6.2,6.2,0,0,0-2.09.26c-.44.29-.78,1.28,0,2.52A3.08,3.08,0,0,0,200.9,168a2.35,2.35,0,0,0,1.51-.31,8.06,8.06,0,0,0,.1-2.5Z"></path> <path class="cls-51" d="M193.49,165.8c.29.68.63,1.68,3,2.31s3.09.43,3.61.65a19.06,19.06,0,0,0,1.78.82,6.46,6.46,0,0,0,2.8,0,1.8,1.8,0,0,0,1.11-1,1,1,0,0,0-.36.22c-.66.69-2.75.52-3.45.28a7.22,7.22,0,0,0-2.41-.59,21.81,21.81,0,0,1-2.48-.56,7.38,7.38,0,0,1-2.81-1.38,3.49,3.49,0,0,1-.83-1.69A1.64,1.64,0,0,0,193.49,165.8Z"></path> <path class="cls-52" d="M211.36,129.18a5.66,5.66,0,0,1-.7,3.26c-.91,1.47-3.82,3.54-4,4.61a43.18,43.18,0,0,0-1.11,10.48,108.28,108.28,0,0,1,.45,11.14c-.12,4.61-.07,8-.07,8a3.16,3.16,0,0,1-3,1,3.47,3.47,0,0,1-3.08-2.49c0-.64-.55-12.08-1.51-17.52s-2.2-15.76-1.3-19.62S211.36,129.18,211.36,129.18Z"></path> <path class="cls-53" d="M196.44,128.19s1.2,2.56,5.24,2.9a16.69,16.69,0,0,0,10-2.42c1.67-1.25,2.39-1.48,3-2.44s.46-4.42.36-5.86-1-3.4-.38-6.46,1.9-8.49,2.13-12.85-1.37-5.87-1.82-6.27-3.12-.77-4.63-.64-5.45,1.07-7.18,2.48-4.78,3-5.64,6,0,13.32.14,16.33S196.44,128.19,196.44,128.19Z"></path> <path class="cls-15" d="M200.71,100.88s2.35.52,2.2,3.89A21.45,21.45,0,0,1,199,115.35c-2.24,3.22-2.6,4.16-4,4.5s-2.53-3.63-1.76-5.31a51.87,51.87,0,0,0,2.73-6.62C196.74,105.5,197.86,99.08,200.71,100.88Z"></path> <path class="cls-15" d="M184.88,109.77a10.22,10.22,0,0,1,1.5,1c.18.25,0,.22.41.57a70,70,0,0,0,6.56,3.08c.32,0,3.21,6,1.49,5.46a20.34,20.34,0,0,1-6.33-3.52c-1.44-1.34-2.77-3-3.95-3.58s-2.24-.72-2.92-1.22a34,34,0,0,1-3.5-2.83c-.2-.35.48-.6.48-.6a1.68,1.68,0,0,1,.44-.2,2.39,2.39,0,0,1,.5.11.68.68,0,0,1,.71,0c.38.22,2.64,1.63,3,1.77S184.57,109.59,184.88,109.77Z"></path> <path class="cls-54" d="M181.94,110.15l-.44-.9s-.69-.36-.69-.92.3-.63.3-.63.45.28.52.46a2.11,2.11,0,0,0,.16.35,9.91,9.91,0,0,1,1,.64c.09.13,1.42.7,1.69,1.39s-.74,1.15-1.23,1S182.31,111.31,181.94,110.15Z"></path> <path class="cls-15" d="M210.8,87.22a22.08,22.08,0,0,0-.68,4.58,4.15,4.15,0,0,0,.62,2.06c.31.36.57.62.57.62s-.15,1.12-3,1.56-4.2.43-4.56.52l-.36.1.39-.45s-.36-3.18-.47-3.56-.82-.09-1.65-.27a1,1,0,0,1-.9-1c-.05-.3-.35-3.49-.37-3.75a3.07,3.07,0,0,0-.49-.84l.49-.87a1.92,1.92,0,0,1-.45-1.08c0-.59.18-3.14.84-3.92s5.06-1.23,6.24-.85A6.71,6.71,0,0,1,210.8,87.22Z"></path> <path class="cls-24" d="M200.79,82.13a.89.89,0,0,1,.16.51c0,.36-.35.71-.34,1.24s.12,1.6.12,1.6a.71.71,0,0,1,.65.5,10.46,10.46,0,0,1,.32,1.25v.52l.5.16s.14-1.24,1-1a3.27,3.27,0,0,1,2.11,1.79c.47,1,.59,1.76,1.09,2.09a4.87,4.87,0,0,0,2.72.18,3.35,3.35,0,0,0,1.05-.51,17,17,0,0,0,2-4.25c1.09-3,.48-4.79.08-5.38a4.35,4.35,0,0,0-1.6-1.08s.08-1.33-3-2-6.75,1.91-7.17,2.35a3.44,3.44,0,0,0-.5,1.61Z"></path> <path class="cls-55" d="M202.55,87.57a.9.9,0,0,1,.13-.86c.31-.39,1.16.22,1.28,1.36s-.11,1.93-.56,2.18-.67-.49-.67-.49A2.47,2.47,0,0,0,202.55,87.57Z"></path> <path class="cls-48" d="M193.67,111.05a3.9,3.9,0,0,0,2.08,2.18,11.54,11.54,0,0,0,4.35,1,43.43,43.43,0,0,0,2.88-6.61c.45-2,.83-4.09-1.16-6.12a2.51,2.51,0,0,0-4.17.21c-.48.71-4.29,8.71-4.29,8.71Z"></path> <polygon class="cls-30" points="21.8 97.44 26.48 100.08 25.58 101.61 20.91 98.98 21.8 97.44"></polygon> <polygon class="cls-30" points="34.31 91.03 39.04 93.7 39.85 92.12 35.23 89.51 34.31 91.03"></polygon> <polygon class="cls-3" points="49.11 158.36 25.6 144.78 39.13 136.97 62.64 150.55 49.11 158.36"></polygon> <polygon class="cls-3" points="27.96 153.34 12.31 144.31 27.2 135.71 40.61 135.71 44.46 153.34 27.96 153.34"></polygon> <polygon class="cls-3" points="27.07 146.5 45.41 135.91 38 131.63 19.66 142.22 27.07 146.5"></polygon> <path class="cls-30" d="M35.42,89.92A1.39,1.39,0,0,1,34.79,91c-.35.2-.63,0-.63-.36a1.39,1.39,0,0,1,.63-1.09C35.14,89.36,35.42,89.52,35.42,89.92Z"></path> <path class="cls-30" d="M22,97.85a1.4,1.4,0,0,1-.63,1.08c-.35.21-.64,0-.64-.36a1.38,1.38,0,0,1,.64-1.08C21.71,97.28,22,97.44,22,97.85Z"></path> <path class="cls-56" d="M40.15,91.68l-.42-.24h0a.75.75,0,0,0-.68.09,2.21,2.21,0,0,0-1,1.73.69.69,0,0,0,.29.64h0l.42.24.14-.25.15-.07a2.19,2.19,0,0,0,1-1.73.77.77,0,0,0,0-.15Z"></path> <path class="cls-30" d="M40.44,92.33a2.18,2.18,0,0,1-1,1.73c-.55.32-1,.07-1-.57a2.21,2.21,0,0,1,1-1.73C40,91.44,40.44,91.69,40.44,92.33Z"></path> <path class="cls-4" d="M40.07,92.54a1.39,1.39,0,0,1-.63,1.09c-.35.21-.63,0-.63-.36a1.4,1.4,0,0,1,.63-1.09C39.79,92,40.07,92.14,40.07,92.54Z"></path> <path class="cls-56" d="M26.72,99.61l-.42-.24h0a.7.7,0,0,0-.67.08,2.21,2.21,0,0,0-1,1.74.68.68,0,0,0,.29.63h0l.41.24.15-.24.15-.07a2.23,2.23,0,0,0,1-1.73c0-.06,0-.11,0-.16Z"></path> <path class="cls-30" d="M27,100.25A2.23,2.23,0,0,1,26,102c-.56.32-1,.06-1-.58a2.21,2.21,0,0,1,1-1.73C26.57,99.36,27,99.62,27,100.25Z"></path> <path class="cls-4" d="M26.65,100.47a1.39,1.39,0,0,1-.63,1.09c-.35.2-.64,0-.64-.36a1.4,1.4,0,0,1,.64-1.09C26.37,99.91,26.65,100.07,26.65,100.47Z"></path> <path class="cls-56" d="M37.09,127.84a7.78,7.78,0,0,0,3.52,6.08c2,1.12,3.53.22,3.53-2a7.76,7.76,0,0,0-3.53-6.08C38.67,124.71,37.09,125.61,37.09,127.84Z"></path> <polygon class="cls-56" points="38.25 125.51 36.59 126.46 41.68 134.99 43.29 134.05 41.9 128.26 38.25 125.51"></polygon> <path class="cls-30" d="M35.58,128.71a7.78,7.78,0,0,0,3.53,6.08c1.94,1.12,3.52.22,3.52-2a7.78,7.78,0,0,0-3.52-6.08C37.16,125.58,35.58,126.48,35.58,128.71Z"></path> <path class="cls-4" d="M36.89,129.46a4.88,4.88,0,0,0,2.22,3.83c1.22.71,2.21.14,2.21-1.27a4.89,4.89,0,0,0-2.21-3.82C37.88,127.49,36.89,128.06,36.89,129.46Z"></path> <polygon class="cls-57" points="44.46 136.16 38.61 130.41 39.11 130.12 44.46 131.51 44.46 136.16"></polygon> <polygon class="cls-6" points="43.97 136.45 38.61 131.65 38.61 130.41 43.97 131.79 43.97 136.45"></polygon> <polygon class="cls-4" points="62.64 145.96 49.11 153.77 49.11 154.47 62.64 146.66 62.64 145.96"></polygon> <path class="cls-4" d="M45.33,136.37h-1V101a8.65,8.65,0,0,0-1.74-4.8,7.69,7.69,0,0,0-2.29-2.15l-1.08-.62.51-.88,1.08.62a8.76,8.76,0,0,1,2.6,2.44A9.65,9.65,0,0,1,45.33,101Z"></path> <path class="cls-5" d="M44.86,120.1a.16.16,0,0,0,.06-.14.47.47,0,0,0-.22-.37.14.14,0,0,0-.15,0h0l-13.62,7.86.28.54,13.64-7.87Z"></path> <path class="cls-5" d="M44.86,105.75s.06-.07.06-.14a.49.49,0,0,0-.22-.37.17.17,0,0,0-.15,0h0l-13.62,7.86.28.54,13.64-7.87Z"></path> <polygon class="cls-57" points="30.6 139.04 30.6 142.99 44.13 135.18 44.13 131.23 30.6 139.04"></polygon> <path class="cls-5" d="M39.36,131a.25.25,0,0,0,.11-.23.81.81,0,0,0-.38-.64.26.26,0,0,0-.25,0h0l-12.34,7.13.48.92L39.36,131h0Z"></path> <polygon class="cls-57" points="31.42 143.69 26.07 138.89 26.07 137.65 31.42 139.03 31.42 143.69"></polygon> <polygon class="cls-6" points="49.11 153.77 30.93 143.27 44.46 135.46 62.64 145.96 49.11 153.77"></polygon> <polygon class="cls-5" points="30.93 139.32 30.93 143.27 44.46 135.46 44.46 131.51 30.93 139.32"></polygon> <polygon class="cls-6" points="30.93 143.97 25.58 139.18 25.58 137.94 30.93 139.32 30.93 143.97"></polygon> <polygon class="cls-4" points="49.11 153.77 30.93 143.27 30.93 143.97 49.11 154.47 49.11 153.77"></polygon> <path class="cls-4" d="M31.8,144.18h-1V108.81A8.59,8.59,0,0,0,29.05,104a7.6,7.6,0,0,0-2.29-2.16l-1.08-.62.51-.88,1.08.62a8.76,8.76,0,0,1,2.6,2.44,9.67,9.67,0,0,1,1.93,5.39Z"></path> <path class="cls-56" d="M22.05,136.54a7.75,7.75,0,0,0,3.53,6.08c1.94,1.12,3.52.22,3.52-2a7.8,7.8,0,0,0-3.52-6.08C23.63,133.41,22.05,134.31,22.05,136.54Z"></path> <polygon class="cls-56" points="28.16 142.82 26.57 143.74 24.85 140.04 21.45 135.23 23.15 134.24 28.16 142.82"></polygon> <path class="cls-30" d="M20.55,137.41a7.75,7.75,0,0,0,3.52,6.08c1.95,1.12,3.53.22,3.53-2a7.78,7.78,0,0,0-3.53-6.08C22.12,134.28,20.55,135.18,20.55,137.41Z"></path> <path class="cls-4" d="M21.85,138.17A4.91,4.91,0,0,0,24.07,142c1.23.71,2.22.14,2.22-1.26a4.88,4.88,0,0,0-2.22-3.83C22.85,136.2,21.85,136.76,21.85,138.17Z"></path> <path class="cls-30" d="M23.53,139.13a1.2,1.2,0,0,0,.54.94c.3.17.54,0,.54-.31a1.22,1.22,0,0,0-.54-.94C23.77,138.65,23.53,138.79,23.53,139.13Z"></path> <polygon class="cls-7" points="45.52 151.11 58.06 143.87 58.06 134.88 45.52 142.12 45.52 151.11"></polygon> <polygon class="cls-8" points="45.52 151.11 32.98 143.87 32.98 134.88 45.52 142.12 45.52 151.11"></polygon> <polygon class="cls-9" points="45.52 142.12 32.98 134.88 45.52 127.64 58.06 134.88 45.52 142.12"></polygon> <polygon class="cls-10" points="40.13 144.69 38.12 143.53 38.12 137.84 40.13 139 40.13 144.69"></polygon> <polygon class="cls-11" points="40.13 139 52.67 131.76 50.66 130.6 38.12 137.84 40.13 139"></polygon> <polygon class="cls-12" points="32.98 134.88 45.52 142.12 38.75 138.5 32.98 134.88"></polygon> <polygon class="cls-13" points="39.2 138.47 51.74 131.23 51.6 131.15 39.06 138.39 39.2 138.47"></polygon> <polygon class="cls-7" points="45.52 141.81 58.06 134.57 58.06 125.58 45.52 132.82 45.52 141.81"></polygon> <polygon class="cls-8" points="45.52 141.81 32.98 134.57 32.98 125.58 45.52 132.82 45.52 141.81"></polygon> <polygon class="cls-9" points="45.52 132.82 32.98 125.58 45.52 118.34 58.06 125.58 45.52 132.82"></polygon> <polygon class="cls-10" points="40.13 135.4 38.12 134.23 38.12 128.55 40.13 129.71 40.13 135.4"></polygon> <polygon class="cls-11" points="40.13 129.71 52.67 122.47 50.66 121.31 38.12 128.55 40.13 129.71"></polygon> <polygon class="cls-12" points="32.98 125.58 45.52 132.82 38.75 129.2 32.98 125.58"></polygon> <polygon class="cls-13" points="39.2 129.17 51.74 121.93 51.6 121.85 39.06 129.09 39.2 129.17"></polygon> <polygon class="cls-7" points="45.52 132.52 58.06 125.28 58.06 116.29 45.52 123.53 45.52 132.52"></polygon> <polygon class="cls-8" points="45.52 132.52 32.98 125.28 32.98 116.29 45.52 123.53 45.52 132.52"></polygon> <polygon class="cls-9" points="45.52 123.53 32.98 116.29 45.52 109.05 58.06 116.29 45.52 123.53"></polygon> <polygon class="cls-10" points="40.13 126.1 38.12 124.94 38.12 119.26 40.13 120.42 40.13 126.1"></polygon> <polygon class="cls-11" points="40.13 120.42 52.67 113.18 50.66 112.02 38.12 119.26 40.13 120.42"></polygon> <polygon class="cls-12" points="32.98 116.29 45.52 123.53 38.75 119.91 32.98 116.29"></polygon> <polygon class="cls-13" points="39.2 119.88 51.74 112.64 51.6 112.56 39.06 119.8 39.2 119.88"></polygon> <path class="cls-12" d="M45.07,145.53,42.35,144v-3.12l2.72,1.57Zm-2.54-1.68,2.36,1.36V142.5l-2.36-1.36Z"></path> <polygon class="cls-12" points="44.01 144.52 43.41 144.18 43.41 142.6 44.01 142.95 44.01 144.52"></polygon> <polygon class="cls-12" points="44.6 143.59 42.82 142.56 43.71 142 44.6 143.59"></polygon> <path class="cls-12" d="M45.07,136.32l-2.72-1.58v-3.12l2.72,1.57Zm-2.54-1.68L44.89,136v-2.72l-2.36-1.36Z"></path> <polygon class="cls-12" points="44.01 135.31 43.41 134.97 43.41 133.39 44.01 133.74 44.01 135.31"></polygon> <polygon class="cls-12" points="44.6 134.38 42.82 133.35 43.71 132.79 44.6 134.38"></polygon> <path class="cls-12" d="M45.07,127.11l-2.72-1.58v-3.12L45.07,124Zm-2.54-1.68,2.36,1.37v-2.72l-2.36-1.36Z"></path> <polygon class="cls-12" points="44.01 126.11 43.41 125.76 43.41 124.19 44.01 124.53 44.01 126.11"></polygon> <polygon class="cls-12" points="44.6 125.17 42.82 124.14 43.71 123.58 44.6 125.17"></polygon> </g> </g> </g> </svg> 