<?xml version="1.0" encoding="UTF-8"?> <svg xmlns="http://www.w3.org/2000/svg" xmlns:xlink="http://www.w3.org/1999/xlink" viewBox="0 0 263.39 158.58"> <defs> <style>.cls-1{isolation:isolate;}.cls-2{fill:#6772ff;}.cls-3{fill:#85787c;}.cls-4{fill:url(#Безымянный_градиент_16);}.cls-5{fill:url(#Безымянный_градиент_16-2);}.cls-6{fill:url(#Безымянный_градиент_16-3);}.cls-7{fill:url(#Безымянный_градиент_16-4);}.cls-8{fill:url(#Безымянный_градиент_16-5);}.cls-9{fill:url(#Безымянный_градиент_16-6);}.cls-10{fill:url(#Безымянный_градиент_16-7);}.cls-11{fill:url(#Безымянный_градиент_16-8);}.cls-12{fill:url(#Безымянный_градиент_16-9);}.cls-13{fill:url(#Безымянный_градиент_16-10);}.cls-14{fill:url(#Безымянный_градиент_16-11);}.cls-15{fill:url(#Безымянный_градиент_16-12);}.cls-16{fill:url(#Безымянный_градиент_16-13);}.cls-17{fill:url(#Безымянный_градиент_16-14);}.cls-18{fill:url(#Безымянный_градиент_16-15);}.cls-19{fill:#dfe4eb;}.cls-19,.cls-27,.cls-54,.cls-72,.cls-73,.cls-75,.cls-82{mix-blend-mode:multiply;}.cls-20{fill:#edf4ff;}.cls-21{fill:#dde7f8;}.cls-22{fill:#ebf4ff;}.cls-23{fill:url(#Безымянный_градиент_11);}.cls-24{fill:#ff4c4a;}.cls-25{fill:#fcfbfa;}.cls-26{fill:#ff8685;}.cls-27{fill:#bfb5bf;}.cls-28{fill:#0f0e1b;}.cls-29{fill:#23222d;}.cls-30{fill:#e4dfd9;}.cls-31{fill:#2d2c37;}.cls-32{fill:#504f58;}.cls-33{fill:#c2c7d6;}.cls-34{fill:#a5acc2;}.cls-35{fill:#cfd9e7;}.cls-36{fill:#b5bbcd;}.cls-37{fill:#e1e7ef;}.cls-38{fill:#6b6164;}.cls-39{fill:#f3f1ee;}.cls-40{fill:#98979d;}.cls-41{fill:#cdc6bc;}.cls-42{fill:#7572a4;}.cls-43{fill:#9b897f;}.cls-44{fill:#ff9a2e;}.cls-45{fill:#ff512e;}.cls-46{fill:#f9f1ec;}.cls-47{fill:#c9c3b9;}.cls-48{fill:#ded8d1;}.cls-49{fill:#b5aa9c;}.cls-50{fill:#393843;}.cls-51{fill:#c4c2bb;}.cls-52{fill:#b0ac9e;}.cls-53{fill:#b7b4a9;}.cls-55{fill:#9d9783;}.cls-56{fill:#d5d2c9;}.cls-57{fill:#cac6bc;}.cls-58{fill:#dddddb;}.cls-59{fill:#493f41;}.cls-60{fill:#554d4e;}.cls-61{fill:#573f3f;}.cls-62{fill:#e06f2e;}.cls-63{fill:#d83b2e;}.cls-64{fill:#9da1bf;}.cls-65{fill:#ebe7e3;}.cls-66{fill:#faf8f5;}.cls-67{fill:#b08480;}.cls-68{fill:#d6b6b2;}.cls-69{fill:#e07427;}.cls-70{fill:#5c5b64;}.cls-71{fill:#cfcedf;}.cls-72{fill:#eefaf9;}.cls-73{fill:#f5ec73;}.cls-74{fill:#997a77;}.cls-75{fill:#f2f1f0;}.cls-76{fill:#cbcadd;}.cls-77{fill:#5c504e;}.cls-78{fill:#383838;mix-blend-mode:screen;}.cls-79{fill:#e9e5e1;}.cls-80{fill:#d9d3cc;}.cls-81{fill:#f5b53d;}.cls-82{fill:#ff8e8c;}.cls-83{fill:#898184;}.cls-84{fill:#3f3436;}</style> <linearGradient id="Безымянный_градиент_16" x1="-3.59" y1="108.71" x2="137.12" y2="26.8" gradientUnits="userSpaceOnUse"> <stop offset="0" stop-color="#ffe25b"></stop> <stop offset="1" stop-color="#ff7270"></stop> </linearGradient> <linearGradient id="Безымянный_градиент_16-2" x1="-3.56" y1="108.76" x2="137.15" y2="26.84" xlink:href="#Безымянный_градиент_16"></linearGradient> <linearGradient id="Безымянный_градиент_16-3" x1="-3.53" y1="108.8" x2="137.17" y2="26.89" xlink:href="#Безымянный_градиент_16"></linearGradient> <linearGradient id="Безымянный_градиент_16-4" x1="-3.5" y1="108.85" x2="137.2" y2="26.94" xlink:href="#Безымянный_градиент_16"></linearGradient> <linearGradient id="Безымянный_градиент_16-5" x1="-3.47" y1="108.9" x2="137.23" y2="26.99" xlink:href="#Безымянный_градиент_16"></linearGradient> <linearGradient id="Безымянный_градиент_16-6" x1="-3.44" y1="108.95" x2="137.26" y2="27.04" xlink:href="#Безымянный_градиент_16"></linearGradient> <linearGradient id="Безымянный_градиент_16-7" x1="-1.84" y1="111.71" x2="138.86" y2="29.8" xlink:href="#Безымянный_градиент_16"></linearGradient> <linearGradient id="Безымянный_градиент_16-8" x1="4.58" y1="122.73" x2="145.28" y2="40.82" xlink:href="#Безымянный_градиент_16"></linearGradient> <linearGradient id="Безымянный_градиент_16-9" x1="11.51" y1="134.63" x2="152.21" y2="52.72" xlink:href="#Безымянный_градиент_16"></linearGradient> <linearGradient id="Безымянный_градиент_16-10" x1="18.43" y1="146.53" x2="159.14" y2="64.62" xlink:href="#Безымянный_градиент_16"></linearGradient> <linearGradient id="Безымянный_градиент_16-11" x1="25.36" y1="158.43" x2="166.06" y2="76.52" xlink:href="#Безымянный_градиент_16"></linearGradient> <linearGradient id="Безымянный_градиент_16-12" x1="32.29" y1="170.33" x2="172.99" y2="88.42" xlink:href="#Безымянный_градиент_16"></linearGradient> <linearGradient id="Безымянный_градиент_16-13" x1="39.22" y1="182.23" x2="179.92" y2="100.32" xlink:href="#Безымянный_градиент_16"></linearGradient> <linearGradient id="Безымянный_градиент_16-14" x1="46.14" y1="194.13" x2="186.85" y2="112.22" xlink:href="#Безымянный_градиент_16"></linearGradient> <linearGradient id="Безымянный_градиент_16-15" x1="53.07" y1="206.03" x2="193.77" y2="124.12" xlink:href="#Безымянный_градиент_16"></linearGradient> <linearGradient id="Безымянный_градиент_11" x1="30.41" y1="123.63" x2="220.71" y2="123.63" gradientUnits="userSpaceOnUse"> <stop offset="0" stop-color="#57a2ff"></stop> <stop offset="1" stop-color="#ff7270"></stop> </linearGradient> </defs> <title>Ресурс 13</title> <g class="cls-1"> <g id="Слой_2" data-name="Слой 2"> <g id="Layer_1" data-name="Layer 1"> <ellipse class="cls-2" cx="131.69" cy="82.54" rx="76.03" ry="131.69" transform="translate(48.44 213.79) rotate(-89.69)"></ellipse> <path class="cls-3" d="M62.12,17.74A145.58,145.58,0,0,0,38.28,28.61q-3.57,2.07-6.8,4.24L60.74,49.74a4.29,4.29,0,0,1,0,7.43L1,91.63c1.89,8.65,6.35,17.15,13.36,25.09L87.76,74.37a15.64,15.64,0,0,1,15.63,0l114.35,66c2.51-1.24,5-2.53,7.36-3.91A102.5,102.5,0,0,0,244,122.72Z"></path> <polygon class="cls-4" points="6.87 101.22 9.25 102.59 17.88 97.61 15.51 96.24 6.87 101.22"></polygon> <polygon class="cls-5" points="20.53 93.34 22.9 94.71 31.54 89.72 29.16 88.35 20.53 93.34"></polygon> <polygon class="cls-6" points="34.18 85.45 36.56 86.82 45.19 81.84 42.82 80.47 34.18 85.45"></polygon> <polygon class="cls-7" points="47.84 77.57 50.22 78.94 58.85 73.96 56.47 72.58 47.84 77.57"></polygon> <polygon class="cls-8" points="61.49 69.69 63.87 71.06 72.5 66.07 70.13 64.7 61.49 69.69"></polygon> <polygon class="cls-9" points="75.15 61.8 77.53 63.17 86.16 58.19 83.78 56.82 75.15 61.8"></polygon> <path class="cls-10" d="M89.81,54.12l1,1.26a1,1,0,0,0,1,.34,20.65,20.65,0,0,1,9.21,0,1,1,0,0,0,1-.35l1-1.25a26.34,26.34,0,0,0-6.65-.84A26,26,0,0,0,89.81,54.12Z"></path> <polygon class="cls-11" points="106.83 58.16 115.51 63.18 117.87 61.81 109.19 56.8 106.83 58.16"></polygon> <polygon class="cls-12" points="120.57 66.09 129.25 71.11 131.62 69.75 122.93 64.73 120.57 66.09"></polygon> <polygon class="cls-13" points="134.31 74.03 143 79.04 145.36 77.68 136.67 72.67 134.31 74.03"></polygon> <polygon class="cls-14" points="148.05 81.96 156.74 86.98 159.1 85.61 150.41 80.6 148.05 81.96"></polygon> <polygon class="cls-15" points="161.79 89.9 170.48 94.91 172.84 93.55 164.15 88.53 161.79 89.9"></polygon> <polygon class="cls-16" points="175.53 97.83 184.22 102.84 186.58 101.48 177.89 96.47 175.53 97.83"></polygon> <polygon class="cls-17" points="189.27 105.76 197.96 110.78 200.32 109.42 191.63 104.4 189.27 105.76"></polygon> <polygon class="cls-18" points="205.38 112.33 203.02 113.7 211.7 118.71 214.06 117.35 205.38 112.33"></polygon> <polygon class="cls-19" points="180.8 43.42 168.26 36.05 184.13 27.42 185.41 43.42 180.8 43.42"></polygon> <polygon class="cls-20" points="201.27 25.4 201.27 34.79 185.41 43.42 185.41 34.03 201.27 25.4"></polygon> <polygon class="cls-21" points="185.41 34.03 185.41 43.42 172.88 36.05 172.88 26.66 185.41 34.03"></polygon> <polygon class="cls-22" points="185.41 34.03 172.88 26.66 188.74 18.03 201.27 25.4 185.41 34.03"></polygon> <polygon class="cls-19" points="206.61 57.16 188.92 46.76 211.31 34.58 211.22 57.16 206.61 57.16"></polygon> <polygon class="cls-20" points="233.61 25.25 233.61 44.98 211.22 57.16 211.22 37.43 233.61 25.25"></polygon> <polygon class="cls-21" points="211.22 37.43 211.22 57.16 193.53 46.76 193.53 27.04 211.22 37.43"></polygon> <polygon class="cls-22" points="211.22 37.44 193.53 27.04 215.92 14.85 233.61 25.25 211.22 37.44"></polygon> <polygon class="cls-19" points="231.22 64.77 218.68 57.4 234.54 48.77 235.82 64.77 231.22 64.77"></polygon> <polygon class="cls-20" points="251.69 46.75 251.69 56.14 235.82 64.77 235.82 55.38 251.69 46.75"></polygon> <polygon class="cls-21" points="235.82 55.38 235.82 64.77 223.29 57.4 223.29 48.02 235.82 55.38"></polygon> <polygon class="cls-22" points="235.83 55.38 223.29 48.02 239.16 39.38 251.69 46.75 235.83 55.38"></polygon> <polygon class="cls-19" points="90.1 25.51 78.84 18.88 93.09 11.13 94.71 25.51 90.1 25.51"></polygon> <polygon class="cls-20" points="108.96 6.62 108.96 17.75 94.71 25.51 94.71 14.38 108.96 6.62"></polygon> <polygon class="cls-21" points="94.71 14.38 94.71 25.51 83.45 18.89 83.45 7.76 94.71 14.38"></polygon> <polygon class="cls-22" points="94.71 14.38 83.45 7.76 97.7 0 108.97 6.62 94.71 14.38"></polygon> <polygon class="cls-19" points="135.17 22.75 126.62 17.73 137.44 11.84 139.78 23 135.17 22.75"></polygon> <polygon class="cls-20" points="150.61 5.2 150.61 17.11 139.78 23 139.78 11.09 150.61 5.2"></polygon> <polygon class="cls-21" points="139.78 11.09 139.78 23 131.23 17.97 131.23 6.06 139.78 11.09"></polygon> <polygon class="cls-22" points="139.79 11.09 131.23 6.06 142.06 0.17 150.61 5.2 139.79 11.09"></polygon> <polygon class="cls-19" points="246.18 80.03 234.91 73.4 244.11 68.4 250.79 80.03 246.18 80.03"></polygon> <polygon class="cls-20" points="259.98 69.46 259.98 75.03 250.79 80.03 250.79 74.45 259.98 69.46"></polygon> <polygon class="cls-21" points="250.79 74.45 250.79 80.03 239.53 73.4 239.53 67.83 250.79 74.45"></polygon> <polygon class="cls-22" points="250.79 74.46 239.53 67.83 248.72 62.83 259.98 69.46 250.79 74.46"></polygon> <polygon class="cls-19" points="238.24 102.68 226.98 96.06 242.1 87.83 242.85 102.68 238.24 102.68"></polygon> <polygon class="cls-20" points="257.97 88.89 257.97 94.46 242.85 102.68 242.85 97.11 257.97 88.89"></polygon> <polygon class="cls-21" points="242.85 97.11 242.85 102.68 231.59 96.06 231.59 90.49 242.85 97.11"></polygon> <polygon class="cls-22" points="242.85 97.11 231.59 90.49 246.71 82.26 257.97 88.89 242.85 97.11"></polygon> <polygon class="cls-19" points="162.83 25.58 151.56 18.96 160.76 13.96 167.44 25.58 162.83 25.58"></polygon> <polygon class="cls-20" points="176.63 15.01 176.63 20.58 167.44 25.58 167.44 20.01 176.63 15.01"></polygon> <polygon class="cls-21" points="167.44 20.01 167.44 25.58 156.18 18.96 156.18 13.39 167.44 20.01"></polygon> <polygon class="cls-22" points="167.44 20.01 156.18 13.39 165.37 8.39 176.63 15.01 167.44 20.01"></polygon> <polygon class="cls-19" points="145.2 42.91 118.06 26.96 130.94 19.95 158.07 35.91 145.2 42.91"></polygon> <polygon class="cls-20" points="162.68 30.34 162.68 37.96 149.81 44.96 149.81 37.34 162.68 30.34"></polygon> <polygon class="cls-21" points="149.81 37.34 149.81 44.96 122.67 29 122.67 21.39 149.81 37.34"></polygon> <polygon class="cls-22" points="149.81 37.34 122.67 21.39 135.55 14.38 162.69 30.34 149.81 37.34"></polygon> <polygon class="cls-19" points="217.85 89.31 187.58 71.83 200.3 64.49 222.46 89.31 217.85 89.31"></polygon> <polygon class="cls-20" points="235.18 68.34 235.18 81.97 222.46 89.31 222.46 75.68 235.18 68.34"></polygon> <polygon class="cls-21" points="222.46 75.68 222.46 89.31 192.19 71.83 192.19 58.2 222.46 75.68"></polygon> <polygon class="cls-22" points="222.47 75.68 192.19 58.2 204.91 50.86 235.19 68.34 222.47 75.68"></polygon> <polygon class="cls-19" points="175.21 67.46 154.46 55.48 167.85 47.75 179.82 67.43 175.21 67.46"></polygon> <polygon class="cls-20" points="193.22 50.36 193.22 59.71 179.82 67.43 179.82 58.08 193.22 50.36"></polygon> <polygon class="cls-21" points="179.82 58.08 179.82 67.43 159.07 55.45 159.07 46.1 179.82 58.08"></polygon> <polygon class="cls-22" points="179.82 58.09 159.07 46.1 172.47 38.38 193.22 50.36 179.82 58.09"></polygon> <path class="cls-23" d="M227.34,126a9.2,9.2,0,0,1-8.32,0c-2.3-1.33-2.31-3.48,0-4.8a9.2,9.2,0,0,1,8.32,0C229.62,122.56,229.63,124.71,227.34,126Z"></path> <path class="cls-24" d="M227.39,70.85h0c-2.08-.87-4.78-.56-7.74,1.15-6.54,3.77-11.84,12.91-11.84,20.41,0,10.21,11.84,21.82,11.84,21.82l3.52,1.74L231,72.63Z"></path> <path class="cls-24" d="M223.17,73.74C229.71,70,235,73,235,80.49,235,90.7,223.17,116,223.17,116s-11.83-11.61-11.83-21.82C211.34,86.66,216.63,77.52,223.17,73.74Z"></path> <ellipse class="cls-25" cx="223.17" cy="87.32" rx="9.67" ry="5.58" transform="translate(35.15 235.92) rotate(-59.69)"></ellipse> <path class="cls-26" d="M212.27,94.55c0-7.32,5.18-16.25,11.56-19.94s11.06-1,11.17,6.19c0-.1,0-.21,0-.31,0-7.5-5.3-10.52-11.84-6.75s-11.83,12.92-11.83,20.42c0,10.21,11.83,21.82,11.83,21.82h0S212.27,104.52,212.27,94.55Z"></path> <polygon class="cls-27" points="119.58 51.04 201.19 98.17 173.61 114.09 92 66.97 119.58 51.04"></polygon> <polygon class="cls-28" points="107.94 70.75 111.64 67.9 124.76 77.12 156.3 98.67 160.41 96.2 171.35 103.15 166.29 89.09 108.1 60.2 107.94 70.75"></polygon> <path class="cls-29" d="M173.09,103a12.45,12.45,0,0,0-5.64-9.73,4,4,0,0,0-4-.42h0l-3.56,2.06v2.76l8,11,3.35-1.94a3.91,3.91,0,0,0,.44-.26h0A4.07,4.07,0,0,0,173.09,103Z"></path> <path class="cls-29" d="M124.32,74.8a12.45,12.45,0,0,0-5.64-9.73c-1.65-.95-3.14-1-4.17-.3l-3.53,2,2.39,3.9a13.25,13.25,0,0,0,3.83,6.23l2.1,3.43,3.1-1.81a2.39,2.39,0,0,0,.56-.32h0A4.15,4.15,0,0,0,124.32,74.8Z"></path> <path class="cls-30" d="M198.19,80.59v10l-4.26-2.46a15.53,15.53,0,0,0-6.69-8.62c-4-2.32-4.57.38-6.83,4.4A9.68,9.68,0,0,0,180,85L146.13,65.47c0-.44,0-.89,0-1.38,0-4.61-3.26-12.72-7.28-15s-7.28-.46-7.28,4.15c0,.48,0,.95,0,1.39l-10.79-6.23V12.52l65.94,38.07,3.89,20.85Z"></path> <path class="cls-31" d="M193.28,91.31c0,3.58-2.53,5-5.65,3.22A12.43,12.43,0,0,1,182,84.79c0-3.58,2.52-5,5.64-3.22A12.44,12.44,0,0,1,193.28,91.31Z"></path> <path class="cls-31" d="M144.5,63.15c0,3.58-2.52,5-5.64,3.22s-5.64-8.65-5.64-12.23,2.52-5,5.64-3.22S144.5,59.57,144.5,63.15Z"></path> <path class="cls-32" d="M142.78,62.16c0,2.48-1.75,3.48-3.92,2.23s-3.92-6.77-3.92-9.26,1.75-3.48,3.92-2.23S142.78,59.67,142.78,62.16Z"></path> <path class="cls-33" d="M142.41,61.94c0,2.26-1.59,3.16-3.55,2s-3.55-6.37-3.55-8.62,1.59-3.16,3.55-2S142.41,59.69,142.41,61.94Z"></path> <path class="cls-34" d="M142.06,61.74c0,2-1.43,2.84-3.2,1.82s-3.2-6-3.2-8,1.44-2.84,3.2-1.82S142.06,59.71,142.06,61.74Z"></path> <path class="cls-35" d="M140.82,58.53c0,1.24-.88,4.24-2,3.61s-2-4.63-2-5.88.88-1.74,2-1.11A4.32,4.32,0,0,1,140.82,58.53Z"></path> <path class="cls-32" d="M191.55,90.31c0,2.49-1.75,3.49-3.92,2.24a8.66,8.66,0,0,1-3.92-6.76c0-2.49,1.76-3.49,3.92-2.24A8.63,8.63,0,0,1,191.55,90.31Z"></path> <path class="cls-36" d="M191.19,90.1c0,2.25-1.6,3.16-3.56,2A7.85,7.85,0,0,1,184.08,86c0-2.25,1.59-3.16,3.55-2A7.86,7.86,0,0,1,191.19,90.1Z"></path> <path class="cls-35" d="M190.36,89.62c0,1.73-1.22,2.43-2.73,1.56a6,6,0,0,1-2.72-4.7c0-1.73,1.22-2.43,2.72-1.56A6,6,0,0,1,190.36,89.62Z"></path> <path class="cls-37" d="M189.12,88.91c0,.94-.67,1.32-1.49.85a3.29,3.29,0,0,1-1.48-2.57c0-.94.66-1.32,1.48-.85A3.31,3.31,0,0,1,189.12,88.91Z"></path> <path class="cls-33" d="M188.44,88.52c0,.51-.36.71-.81.46a1.8,1.8,0,0,1-.81-1.4c0-.51.37-.71.81-.46A1.78,1.78,0,0,1,188.44,88.52Z"></path> <polygon class="cls-38" points="199.33 94.44 175.56 104.87 171.58 103.5 169.09 102.07 194.45 87.43 198.34 89.68 199.33 91.14 199.33 94.44"></polygon> <polygon class="cls-39" points="186.32 49.14 121.36 11.63 120.82 12.52 186.76 50.59 186.32 49.14"></polygon> <polygon class="cls-40" points="168.92 63.53 121.83 36.34 121.83 34.97 168.92 62.16 168.92 63.53"></polygon> <polygon class="cls-41" points="169.56 77.61 169.56 44.71 183.13 52.55 183.13 74.45 178.67 82.88 169.56 77.61"></polygon> <polygon class="cls-31" points="187.06 54.82 184 53.05 184 70.37 188.53 72.99 189.81 70.9 187.06 54.82"></polygon> <polygon class="cls-42" points="184.4 70.14 184.4 53.75 186.74 55.1 189.38 70.6 188.28 72.38 184.4 70.14"></polygon> <polygon class="cls-43" points="179.97 84.05 168.92 77.67 168.92 78.63 179.97 85.01 179.97 84.05"></polygon> <polygon class="cls-43" points="120.82 47.4 116.95 45.16 116.95 46.13 120.82 48.36 120.82 47.4"></polygon> <polygon class="cls-32" points="196.97 84.22 195.35 83.28 195.35 81.42 196.97 82.36 196.97 84.22"></polygon> <polygon class="cls-44" points="196.83 83.98 195.48 83.21 195.48 81.66 196.83 82.44 196.83 83.98"></polygon> <path class="cls-32" d="M124.3,41.09c0,.57-.41.81-.91.52a2,2,0,0,1-.9-1.57c0-.57.4-.8.9-.51A2,2,0,0,1,124.3,41.09Z"></path> <path class="cls-45" d="M124.11,41c0,.46-.32.64-.72.41a1.59,1.59,0,0,1-.71-1.24c0-.45.32-.64.71-.41A1.59,1.59,0,0,1,124.11,41Z"></path> <path class="cls-46" d="M123.91,44.39c0,.39-.28.55-.62.35a1.35,1.35,0,0,1-.61-1.06c0-.39.27-.55.61-.35A1.35,1.35,0,0,1,123.91,44.39Z"></path> <path class="cls-44" d="M123.81,44.34c0,.33-.23.46-.52.29a1.13,1.13,0,0,1-.52-.9c0-.33.23-.46.52-.3A1.15,1.15,0,0,1,123.81,44.34Z"></path> <path class="cls-46" d="M149,61.4c0,.39-.27.54-.61.35a1.37,1.37,0,0,1-.62-1.07c0-.39.28-3,.62-2.84S149,61,149,61.4Z"></path> <path class="cls-44" d="M149,61.34c0,.33-.23.47-.52.3a1.15,1.15,0,0,1-.52-.9c0-.33.23-.47.52-.3A1.15,1.15,0,0,1,149,61.34Z"></path> <path class="cls-46" d="M167.52,69.57c0,.39-.28.55-.62.35a1.35,1.35,0,0,1-.61-1.06c0-.39.27-.55.61-.35A1.35,1.35,0,0,1,167.52,69.57Z"></path> <path class="cls-44" d="M167.43,69.51c0,.34-.24.47-.53.3a1.13,1.13,0,0,1-.52-.9c0-.33.23-.46.52-.3A1.16,1.16,0,0,1,167.43,69.51Z"></path> <polygon class="cls-41" points="124.78 16.32 122.68 15.1 122.68 14.16 124.78 15.38 124.78 16.32"></polygon> <polygon class="cls-44" points="124.6 16.04 122.86 15.04 122.86 14.35 124.6 15.35 124.6 16.04"></polygon> <polygon class="cls-41" points="151.06 31.48 148.95 30.27 148.95 29.33 151.06 30.55 151.06 31.48"></polygon> <polygon class="cls-44" points="150.87 31.21 149.14 30.21 149.14 29.52 150.87 30.52 150.87 31.21"></polygon> <polygon class="cls-41" points="184.19 50.61 182.08 49.4 182.08 48.46 184.19 49.68 184.19 50.61"></polygon> <polygon class="cls-44" points="184 50.34 182.27 49.34 182.27 48.65 184 49.65 184 50.34"></polygon> <path class="cls-41" d="M139.34,41.09a2.07,2.07,0,0,1-1-.31L125,33.12a5.91,5.91,0,0,1-2.47-4.7V20.84a2.31,2.31,0,0,1,.92-2.09,1.73,1.73,0,0,1,1.77.12l13.28,7.67A5.89,5.89,0,0,1,141,31.23v7.58a2.31,2.31,0,0,1-.92,2.1A1.48,1.48,0,0,1,139.34,41.09Zm-.82-.69a1.29,1.29,0,0,0,1.32.13,1.91,1.91,0,0,0,.71-1.72V31.23a5.4,5.4,0,0,0-2.25-4.31L125,19.25a1.33,1.33,0,0,0-1.33-.12,1.89,1.89,0,0,0-.7,1.71v7.58a5.42,5.42,0,0,0,2.25,4.32Z"></path> <path class="cls-41" d="M160,53a2.12,2.12,0,0,1-1-.32l-13.28-7.66a5.91,5.91,0,0,1-2.46-4.7V32.78a2.3,2.3,0,0,1,.92-2.1,1.73,1.73,0,0,1,1.76.12l13.28,7.67a5.9,5.9,0,0,1,2.47,4.69v7.58a2.3,2.3,0,0,1-.93,2.1A1.45,1.45,0,0,1,160,53Zm-15.16-22.1a.92.92,0,0,0-.49.13,1.9,1.9,0,0,0-.71,1.72v7.57a5.42,5.42,0,0,0,2.25,4.32l13.28,7.66a1.29,1.29,0,0,0,1.32.13,1.91,1.91,0,0,0,.71-1.72V43.16A5.42,5.42,0,0,0,159,38.85l-13.28-7.67A1.65,1.65,0,0,0,144.85,30.93Z"></path> <path class="cls-31" d="M179.69,67.89l-7.29-6.71A3.34,3.34,0,0,1,171,58.5V48.57c0-1,.62-1.51,1.4-1.06l7.29,4.21a3.35,3.35,0,0,1,1.4,2.68V66.83C181.09,67.86,180.47,68.33,179.69,67.89Z"></path> <path class="cls-42" d="M171.4,58.82V48.73c0-.73.45-1.07,1-.75l7.29,4.21a2.39,2.39,0,0,1,1,1.9V66.67c0,.73-.45,1.07-1,.75l-7.29-6.71A2.37,2.37,0,0,1,171.4,58.82Z"></path> <path class="cls-31" d="M174.65,76.36l-2.25-1.3c-.78-.44-1.4-4.14-1.4-5.17V63.57c0-1,.62-1.51,1.4-1.06l2.25,1.3a3.34,3.34,0,0,1,1.4,2.67V75.3C176.05,76.34,175.42,76.81,174.65,76.36Z"></path> <path class="cls-42" d="M171.4,70.21V63.73c0-.73.45-1.07,1-.75l2.25,1.3a2.38,2.38,0,0,1,1,1.89v9c0,.73-.45,1.07-1,.75L172.4,74.6C171.85,74.28,171.4,70.94,171.4,70.21Z"></path> <path class="cls-32" d="M186.08,88.08a3,3,0,0,0,.68,1.21.6.6,0,0,1,.17.49h0c0,.13-.22.09-.39-.11a4.69,4.69,0,0,1-.91-1.61c-.08-.25,0-.42.12-.38h0A.6.6,0,0,1,186.08,88.08Z"></path> <path class="cls-32" d="M189.19,88a3.18,3.18,0,0,0-.69-1.21.6.6,0,0,1-.17-.49h0c0-.13.23-.09.4.11a5,5,0,0,1,.91,1.61c.08.25,0,.42-.12.38h0A.6.6,0,0,1,189.19,88Z"></path> <path class="cls-32" d="M188.44,90.3a.66.66,0,0,0,.71-.37c.07-.11.21-.13.34,0h0a.45.45,0,0,1,.1.51,1,1,0,0,1-.94.5.47.47,0,0,1-.39-.37h0C188.22,90.4,188.31,90.3,188.44,90.3Z"></path> <path class="cls-32" d="M186.83,85.8a.67.67,0,0,0-.72.38.21.21,0,0,1-.34,0h0a.47.47,0,0,1-.1-.52,1,1,0,0,1,1-.5.49.49,0,0,1,.39.37h0C187,85.7,187,85.81,186.83,85.8Z"></path> <polygon class="cls-47" points="189.43 81 189.21 81 189.22 74.73 190.55 71.4 190.75 71.48 189.43 74.8 189.43 81"></polygon> <polygon class="cls-47" points="198.1 82.31 189.9 73.18 190.06 73.03 198.27 82.17 198.1 82.31"></polygon> <polygon class="cls-38" points="97.15 63.83 93.28 61.59 97.87 58.94 101.75 61.17 97.15 63.83"></polygon> <path class="cls-48" d="M174.51,94.26v10l-4.25-2.46a15.56,15.56,0,0,0-6.69-8.63c-4-2.32-4.57.38-6.83,4.41a9.07,9.07,0,0,0-.44,1.12L122.45,79.13c0-.43,0-.89,0-1.37a16,16,0,0,0-7.28-12.55c-4-2.32-7.28-.46-7.28,4.15,0,.48,0,1,0,1.39L97.15,64.52V26.18l65.94,38.08L167,85.1Z"></path> <path class="cls-41" d="M100.28,57.84a.44.44,0,0,1-.72.41A1.59,1.59,0,0,1,98.84,57c0-.46.32-.64.72-.41A1.6,1.6,0,0,1,100.28,57.84Z"></path> <polygon class="cls-41" points="144.65 80.38 97.55 53.19 97.55 51.83 98.16 51.13 144.65 79.02 145.25 79.69 144.65 80.38"></polygon> <polygon class="cls-49" points="172.58 98.17 171.5 97.55 171.5 96.31 171.81 95.33 173.16 97.65 172.58 98.17"></polygon> <path class="cls-31" d="M169.61,105c0,3.57-2.53,5-5.65,3.21a12.41,12.41,0,0,1-5.64-9.73c0-3.58,2.52-5,5.64-3.22A12.44,12.44,0,0,1,169.61,105Z"></path> <path class="cls-50" d="M169.61,105c0,3.57-2.53,5-5.65,3.21a12.41,12.41,0,0,1-5.64-9.73c0-3.58,2.52-5,5.64-3.22A12.44,12.44,0,0,1,169.61,105Z"></path> <path class="cls-31" d="M169.25,104.91c0,3.44-2.43,4.83-5.43,3.1a12,12,0,0,1-5.43-9.37c0-3.44,2.43-4.83,5.43-3.09A12,12,0,0,1,169.25,104.91Z"></path> <path class="cls-50" d="M120.83,76.82c0,3.57-2.52,5-5.64,3.22a12.43,12.43,0,0,1-5.64-9.74c0-3.58,2.52-5,5.64-3.22A12.43,12.43,0,0,1,120.83,76.82Z"></path> <path class="cls-31" d="M120.27,76.75c0,3.44-2.43,4.83-5.43,3.1a12,12,0,0,1-5.43-9.37c0-3.44,2.43-4.82,5.43-3.09A12,12,0,0,1,120.27,76.75Z"></path> <path class="cls-32" d="M119,75.9c0,2.49-1.76,3.49-3.93,2.24a8.66,8.66,0,0,1-3.92-6.77c0-2.48,1.76-3.48,3.92-2.23A8.64,8.64,0,0,1,119,75.9Z"></path> <path class="cls-51" d="M118.74,75.61c0,2.25-1.59,3.16-3.55,2a7.85,7.85,0,0,1-3.55-6.13c0-2.25,1.59-3.16,3.55-2A7.83,7.83,0,0,1,118.74,75.61Z"></path> <path class="cls-52" d="M118.39,75.4c0,2-1.44,2.84-3.2,1.83a7,7,0,0,1-3.2-5.52c0-2,1.43-2.84,3.2-1.82a3.55,3.55,0,0,1,.47.32,7.32,7.32,0,0,1,2.69,4.6C118.37,75,118.39,75.21,118.39,75.4Z"></path> <path class="cls-53" d="M116.34,76.4a6.65,6.65,0,0,1-3-5.22,2.35,2.35,0,0,1,.59-1.72c-1.13-.09-1.92.75-1.92,2.25a7,7,0,0,0,3.2,5.52c1.29.74,2.39.51,2.9-.46A2.4,2.4,0,0,1,116.34,76.4Z"></path> <g class="cls-54"> <path class="cls-41" d="M118.2,75.05c0,1.24-.88,1.74-2,1.12a4.34,4.34,0,0,1-2-3.39c0-1.24.88-1.74,2-1.11A4.3,4.3,0,0,1,118.2,75.05Z"></path> </g> <path class="cls-55" d="M118.35,74.81c-.34.49-1,.58-1.71.16a4.34,4.34,0,0,1-2-3.38c0-.84.4-1.34,1-1.38A7.32,7.32,0,0,1,118.35,74.81Z"></path> <polygon class="cls-55" points="115.19 70.37 113.72 71.22 116.62 75.92 118.07 75.09 117.08 72.72 115.19 70.37"></polygon> <path class="cls-53" d="M117.15,74.69c0,1.24-.88,1.74-2,1.12a4.34,4.34,0,0,1-2-3.38c0-1.25.88-1.75,2-1.12A4.32,4.32,0,0,1,117.15,74.69Z"></path> <path class="cls-56" d="M117,74.66c0,1.19-.84,1.67-1.88,1.07a4.15,4.15,0,0,1-1.87-3.24c0-1.18.84-1.66,1.87-1.06A4.1,4.1,0,0,1,117,74.66Z"></path> <path class="cls-32" d="M167.78,104.06c0,2.48-1.76,3.49-3.92,2.24a8.66,8.66,0,0,1-3.93-6.77c0-2.48,1.76-3.49,3.93-2.23A8.64,8.64,0,0,1,167.78,104.06Z"></path> <path class="cls-51" d="M167.51,103.77c0,2.25-1.59,3.16-3.55,2a7.81,7.81,0,0,1-3.55-6.12c0-2.26,1.59-3.16,3.55-2A7.83,7.83,0,0,1,167.51,103.77Z"></path> <path class="cls-53" d="M167.07,103.51c0,2-1.39,2.77-3.11,1.77a6.84,6.84,0,0,1-3.11-5.36c0-2,1.39-2.76,3.11-1.77A6.84,6.84,0,0,1,167.07,103.51Z"></path> <path class="cls-56" d="M166.69,103.29c0,1.73-1.22,2.42-2.73,1.55a6,6,0,0,1-2.72-4.7c0-1.72,1.22-2.42,2.72-1.55A6,6,0,0,1,166.69,103.29Z"></path> <path class="cls-57" d="M165.36,102.86c0,1-.73,1.45-1.63.93a3.58,3.58,0,0,1-1.62-2.81c0-1,.72-1.45,1.62-.93A3.59,3.59,0,0,1,165.36,102.86Z"></path> <path class="cls-32" d="M162.41,101.74a3,3,0,0,0,.68,1.22.6.6,0,0,1,.17.49h0c0,.12-.22.09-.39-.11a4.73,4.73,0,0,1-.91-1.62c-.09-.24,0-.41.12-.38h0A.68.68,0,0,1,162.41,101.74Z"></path> <path class="cls-58" d="M165,102.76c0,.91-.64,1.28-1.43.82a3.19,3.19,0,0,1-1.44-2.48c0-.9.65-1.27,1.44-.81A3.14,3.14,0,0,1,165,102.76Z"></path> <path class="cls-53" d="M164.32,102.38c0,.5-.35.69-.78.45a1.72,1.72,0,0,1-.78-1.35c0-.49.35-.69.78-.44A1.72,1.72,0,0,1,164.32,102.38Z"></path> <polygon class="cls-59" points="175.56 108.17 171.44 107.72 169.54 106.62 169.09 102.07 171.58 103.5 175.56 104.87 175.56 108.17"></polygon> <polygon class="cls-39" points="162.65 62.81 97.69 25.3 97.15 26.18 163.09 64.26 162.65 62.81"></polygon> <polygon class="cls-38" points="144.81 78.58 97.71 51.39 98.16 51.13 145.25 78.33 144.81 78.58"></polygon> <polygon class="cls-60" points="144.81 78.58 144.81 79.95 145.25 79.69 145.25 78.33 144.81 78.58"></polygon> <polygon class="cls-41" points="145.89 91.28 145.89 60.88 159.46 68.71 159.46 88.12 155 96.54 145.89 91.28"></polygon> <polygon class="cls-31" points="163.38 68.48 160.32 66.72 160.32 84.04 164.86 86.66 166.14 84.57 163.38 68.48"></polygon> <polygon class="cls-61" points="160.73 83.81 160.73 67.42 163.07 68.77 165.71 84.26 164.61 86.04 160.73 83.81"></polygon> <polygon class="cls-59" points="97.15 63.83 93.28 61.59 93.28 62.29 97.15 64.52 97.15 63.83"></polygon> <polygon class="cls-32" points="173.3 97.89 171.68 96.95 171.68 95.09 173.3 96.03 173.3 97.89"></polygon> <polygon class="cls-44" points="173.16 97.65 171.38 95.88 171.81 95.33 173.16 96.11 173.16 97.65"></polygon> <polygon class="cls-62" points="172.46 97.75 171.38 97.12 171.38 95.88 172.46 96.51 172.46 97.75"></polygon> <path class="cls-32" d="M100.63,57.25c0,.58-.41.81-.91.52a2,2,0,0,1-.9-1.57c0-.57.4-.8.9-.51A2,2,0,0,1,100.63,57.25Z"></path> <path class="cls-63" d="M100.44,57.14c0,.46-.32.64-.72.41A1.6,1.6,0,0,1,99,56.31a.44.44,0,0,1,.72-.41A1.59,1.59,0,0,1,100.44,57.14Z"></path> <path class="cls-63" d="M99.16,55.89a2.61,2.61,0,0,0-.39.5c-.07.16.77,1.33.77,1.33a1.89,1.89,0,0,0,.68-.11C100.48,57.48,99.16,55.89,99.16,55.89Z"></path> <path class="cls-49" d="M100.3,60.8c0,.39-.27.55-.61.35a1.35,1.35,0,0,1-.62-1.06c0-.39.28-.55.62-.35A1.35,1.35,0,0,1,100.3,60.8Z"></path> <path class="cls-49" d="M125.44,75.32c0,.39-.28.54-.62.35a1.37,1.37,0,0,1-.61-1.07c0-.39.27-.54.61-.35A1.37,1.37,0,0,1,125.44,75.32Z"></path> <path class="cls-49" d="M143.92,86c0,.39-.28.55-.62.35a1.35,1.35,0,0,1-.62-1.06c0-.39.28-.55.62-.35A1.36,1.36,0,0,1,143.92,86Z"></path> <path class="cls-45" d="M99.82,57.32c0,.36-.25.5-.56.32a1.24,1.24,0,0,1-.57-1c0-.36.26-.5.57-.32A1.23,1.23,0,0,1,99.82,57.32Z"></path> <path class="cls-64" d="M100.37,60.49c0,.39-.27.55-.61.35a1.32,1.32,0,0,1-.62-1.06c0-.39.27-.55.62-.35A1.35,1.35,0,0,1,100.37,60.49Z"></path> <path class="cls-64" d="M125.51,75c0,.39-.28.55-.62.36a1.38,1.38,0,0,1-.62-1.07c0-.39.28-.55.62-.35A1.36,1.36,0,0,1,125.51,75Z"></path> <path class="cls-64" d="M144,85.67c0,.39-.27.55-.61.35a1.35,1.35,0,0,1-.62-1.06c0-.39.28-.55.62-.35A1.34,1.34,0,0,1,144,85.67Z"></path> <path class="cls-46" d="M100.24,60.55c0,.39-.28.55-.62.35A1.35,1.35,0,0,1,99,59.84c0-.39.28-.55.62-.35A1.35,1.35,0,0,1,100.24,60.55Z"></path> <path class="cls-62" d="M100.14,60.5c0,.33-.23.46-.52.29a1.13,1.13,0,0,1-.52-.9c0-.33.23-.46.52-.3A1.17,1.17,0,0,1,100.14,60.5Z"></path> <path class="cls-46" d="M125.37,75.06c0,.39-.27.55-.61.35a1.35,1.35,0,0,1-.62-1.06c0-.39.28-.55.62-.35A1.35,1.35,0,0,1,125.37,75.06Z"></path> <path class="cls-62" d="M125.28,75c0,.33-.23.46-.52.3a1.16,1.16,0,0,1-.53-.9c0-.34.24-.47.53-.3A1.13,1.13,0,0,1,125.28,75Z"></path> <path class="cls-46" d="M143.85,85.73c0,.39-.28.55-.62.35a1.35,1.35,0,0,1-.61-1.06c0-.39.27-.55.61-.35A1.35,1.35,0,0,1,143.85,85.73Z"></path> <path class="cls-62" d="M143.76,85.68c0,.33-.24.46-.53.29a1.13,1.13,0,0,1-.52-.9c0-.33.23-.46.52-.3A1.16,1.16,0,0,1,143.76,85.68Z"></path> <polygon class="cls-41" points="101.11 29.98 99 28.77 99 27.83 101.11 29.05 101.11 29.98"></polygon> <polygon class="cls-62" points="100.93 29.71 99.19 28.71 99.19 28.01 100.93 29.02 100.93 29.71"></polygon> <polygon class="cls-41" points="127.39 45.15 125.28 43.94 125.28 43 127.39 44.22 127.39 45.15"></polygon> <polygon class="cls-62" points="127.2 44.88 125.47 43.88 125.47 43.18 127.2 44.19 127.2 44.88"></polygon> <polygon class="cls-41" points="160.52 64.28 158.41 63.06 158.41 62.13 160.52 63.34 160.52 64.28"></polygon> <polygon class="cls-62" points="160.33 64 158.6 63 158.6 62.31 160.33 63.31 160.33 64"></polygon> <path class="cls-31" d="M156,81.55l-7.3-4.21a3.36,3.36,0,0,1-1.4-2.67V64.73c0-1,.63-1.5,1.4-1.06l7.3,4.22a3.32,3.32,0,0,1,1.4,2.67V80.5C157.42,81.53,156.8,82,156,81.55Z"></path> <path class="cls-61" d="M147.73,75V64.89c0-.73.45-1.07,1-.75l7.3,4.21a2.39,2.39,0,0,1,1,1.9V80.34c0,.73-.45,1.06-1,.75l-7.3-4.22A2.38,2.38,0,0,1,147.73,75Z"></path> <path class="cls-31" d="M151,90l-2.25-1.3a3.36,3.36,0,0,1-1.4-2.67V79.73c0-1,.63-1.51,1.4-1.06L151,80a3.33,3.33,0,0,1,1.4,2.67V89C152.37,90,151.75,90.48,151,90Z"></path> <path class="cls-61" d="M147.73,86.37V79.89c0-.73.45-1.07,1-.75l2.25,1.3a2.36,2.36,0,0,1,1,1.89v6.48c0,.73-.45,1.07-1,.75l-2.25-1.3A2.38,2.38,0,0,1,147.73,86.37Z"></path> <path class="cls-32" d="M165.52,101.69a3.3,3.3,0,0,0-.69-1.22.6.6,0,0,1-.17-.48h0c0-.13.23-.09.4.11a5,5,0,0,1,.91,1.61c.08.25,0,.42-.12.38h0A.62.62,0,0,1,165.52,101.69Z"></path> <path class="cls-32" d="M164.77,104a.66.66,0,0,0,.71-.38c.07-.11.21-.12.34,0h0a.46.46,0,0,1,.1.52,1,1,0,0,1-.94.49.48.48,0,0,1-.4-.36h0C164.55,104.07,164.64,104,164.77,104Z"></path> <path class="cls-32" d="M163.15,99.47a.66.66,0,0,0-.71.37c-.07.11-.21.12-.34,0h0a.45.45,0,0,1-.1-.51,1,1,0,0,1,.95-.5.49.49,0,0,1,.39.36h0C163.37,99.37,163.28,99.47,163.15,99.47Z"></path> <path class="cls-53" d="M163,103.17a4.86,4.86,0,0,1-.91-1.61.56.56,0,0,1,0-.21c-.11,0-.17.14-.09.37a4.73,4.73,0,0,0,.91,1.62c.17.2.35.23.39.11s0-.07,0-.1A.47.47,0,0,1,163,103.17Z"></path> <path class="cls-53" d="M166,101.92a.6.6,0,0,1-.33-.4,3.05,3.05,0,0,0-.69-1.21.72.72,0,0,1-.16-.39.11.11,0,0,0-.13.07.6.6,0,0,0,.17.48,3.3,3.3,0,0,1,.69,1.22.62.62,0,0,0,.33.4c.08,0,.14,0,.15-.17S166,101.93,166,101.92Z"></path> <path class="cls-53" d="M165.1,104.44a.48.48,0,0,1-.39-.36s0-.06,0-.09-.17.1-.14.25a.48.48,0,0,0,.4.36,1,1,0,0,0,.94-.49h0A1.08,1.08,0,0,1,165.1,104.44Z"></path> <path class="cls-53" d="M162.23,99.68a.47.47,0,0,1-.11-.51,1,1,0,0,0-.12.16.45.45,0,0,0,.1.51c.13.12.27.11.34,0l.11-.15C162.48,99.78,162.35,99.79,162.23,99.68Z"></path> <path class="cls-53" d="M163.28,99.3a.64.64,0,0,0-.69.35.62.62,0,0,1,.56-.18c.11,0,.16-.08.18-.19Z"></path> <polygon class="cls-47" points="165.76 94.66 165.54 94.66 165.55 88.4 166.88 85.06 167.08 85.14 165.76 88.46 165.76 94.66"></polygon> <polygon class="cls-47" points="174.43 95.98 166.23 86.84 166.39 86.7 174.6 95.83 174.43 95.98"></polygon> <polygon class="cls-30" points="198.19 80.59 174.51 94.26 174.51 104.23 198.19 90.56 198.19 80.59"></polygon> <polygon class="cls-65" points="193.07 84.06 179.63 91.82 179.63 101.66 193.07 93.9 193.07 84.06"></polygon> <polygon class="cls-60" points="192.39 85.68 180.31 92.65 180.31 95.1 192.39 88.13 192.39 85.68"></polygon> <polygon class="cls-60" points="192.39 90.03 180.31 97 180.31 100.61 192.39 93.64 192.39 90.03"></polygon> <polygon class="cls-41" points="191.68 87.72 180.31 94.29 180.31 95.1 192.39 88.13 192.39 85.68 191.68 86.08 191.68 87.72"></polygon> <polygon class="cls-41" points="191.68 90.44 191.68 93.24 180.31 99.8 180.31 100.61 192.39 93.64 192.39 90.03 191.68 90.44"></polygon> <polygon class="cls-39" points="174.51 94.26 198.19 80.59 190.65 71.44 166.98 85.1 174.51 94.26"></polygon> <polygon class="cls-66" points="166.98 85.1 174.57 93.81 179.02 91.4 197.86 80.46 190.65 71.44 198.19 80.59 174.51 94.26 166.98 85.1"></polygon> <polygon class="cls-39" points="179.63 91.82 193.07 84.06 188.31 78.49 174.87 86.24 179.63 91.82"></polygon> <polygon class="cls-65" points="163.09 64.26 186.76 50.59 190.65 71.44 166.98 85.1 163.09 64.26"></polygon> <polygon class="cls-60" points="179.04 76.86 179.13 77.26 167.32 84.08 164.53 68.07 176.27 61.29 176.36 61.7 179.04 76.86"></polygon> <polygon class="cls-67" points="178.69 77.06 174.39 79.54 167.59 83.47 166.98 79.88 165.05 68.69 164.98 68.27 171.54 64.48 176 61.9 177.73 71.67 178.08 73.65 178.69 77.06"></polygon> <polygon class="cls-60" points="189.98 70.99 179.57 77.01 179.48 76.6 176.8 61.44 176.71 61.04 187.2 54.98 189.98 70.99"></polygon> <polygon class="cls-67" points="189.54 70.8 185.99 72.85 181.15 75.64 179.84 76.4 179.33 73.53 179.24 73 177.46 62.95 177.16 61.24 183.2 57.74 186.92 55.6 188.32 63.68 189.41 70 189.54 70.8"></polygon> <polygon class="cls-68" points="189.38 70.59 189.09 71.05 187.54 71.95 184.4 70.14 184.4 57.05 186.83 55.65 189.38 70.59"></polygon> <polygon class="cls-39" points="163.09 64.26 186.76 50.59 186.32 49.14 162.65 62.81 163.09 64.26"></polygon> <polygon class="cls-25" points="186.32 49.14 121.36 11.63 97.69 25.3 162.65 62.81 186.32 49.14"></polygon> <polygon class="cls-60" points="199.33 91.14 175.56 104.87 175.56 108.17 199.33 94.44 199.33 91.14"></polygon> <polygon class="cls-69" points="173.16 96.11 172.46 96.51 172.46 97.75 173.16 97.65 173.16 96.11"></polygon> <polygon class="cls-48" points="179.16 91.58 179.16 101.55 179.63 101.66 179.63 91.82 179.16 91.58"></polygon> <polygon class="cls-59" points="144.81 79.95 97.71 52.76 97.71 51.39 144.81 78.58 144.81 79.95"></polygon> <polygon class="cls-49" points="193.44 92.29 196.68 90.42 193.72 90.87 193.44 91.31 193.44 92.29"></polygon> <path class="cls-49" d="M193.66,84.16l2.5-1.18c.25-.14.45,0,.45.25v5.21a1,1,0,0,1-.45.77l-2.5,1.44c-.24.14-.44,0-.44-.25V85.19A1.57,1.57,0,0,1,193.66,84.16Z"></path> <path class="cls-50" d="M196.93,82.61l-.26-.15h0a.35.35,0,0,0-.31,0l-2.5,1.45a1,1,0,0,0-.45.76v5.22a.32.32,0,0,0,.12.27h0l0,0,.25.14.07-.2,2.48-1.42a1,1,0,0,0,.44-.77v-5Z"></path> <path class="cls-70" d="M194.09,84.07l2.5-1.44c.24-.14.44,0,.44.25v5.21a1,1,0,0,1-.44.77l-2.5,1.44c-.25.14-.44,0-.44-.25V84.84A1,1,0,0,1,194.09,84.07Z"></path> <path class="cls-71" d="M194.22,84.37l2.24-1.29c.17-.1.3,0,.3.17V88a.66.66,0,0,1-.3.52l-2.24,1.29c-.17.1-.31,0-.31-.17V84.89A.67.67,0,0,1,194.22,84.37Z"></path> <polygon class="cls-71" points="197.22 83.49 196.69 83.07 194.02 89.89 194.66 90.02 197.22 83.49"></polygon> <path class="cls-39" d="M194.84,84.74,197,83.5c.16-.1.29,0,.29.16v4.59a.62.62,0,0,1-.29.49L194.84,90c-.16.09-.29,0-.29-.17V85.23A.62.62,0,0,1,194.84,84.74Z"></path> <path class="cls-72" d="M194.33,84.54l2.15-1.24c.16-.09.29,0,.29.16v4.59a.66.66,0,0,1-.29.5l-2.15,1.24c-.16.09-.29,0-.29-.16V85A.63.63,0,0,1,194.33,84.54Z"></path> <polygon class="cls-69" points="194.12 92.08 197.36 90.21 197.36 89.23 194.12 91.1 194.12 92.08"></polygon> <polygon class="cls-44" points="194.12 91.1 193.72 90.87 196.96 89 197.36 89.23 194.12 91.1"></polygon> <polygon class="cls-62" points="194.12 91.1 193.72 90.87 193.72 91.84 194.12 92.08 194.12 91.1"></polygon> <polygon class="cls-49" points="175.25 102.81 178.49 100.94 175.52 101.39 175.25 101.84 175.25 102.81"></polygon> <path class="cls-49" d="M175.47,94.68,178,93.5c.24-.14.44,0,.44.26V99a1,1,0,0,1-.44.76l-2.5,1.45c-.25.14-.45,0-.45-.26V95.71A1.55,1.55,0,0,1,175.47,94.68Z"></path> <path class="cls-50" d="M178.73,93.14l-.25-.15h0a.3.3,0,0,0-.31,0l-2.5,1.44a1,1,0,0,0-.44.77v5.21a.33.33,0,0,0,.11.28h0l.25.14.08-.19,2.47-1.43a1,1,0,0,0,.44-.77v-5Z"></path> <path class="cls-70" d="M175.89,94.6l2.5-1.45c.25-.14.45,0,.45.26v5.21a1,1,0,0,1-.45.76l-2.5,1.45c-.24.14-.44,0-.44-.26V95.36A1,1,0,0,1,175.89,94.6Z"></path> <path class="cls-71" d="M176,94.9l2.25-1.3c.16-.09.3,0,.3.17v4.79a.67.67,0,0,1-.3.52l-2.25,1.3c-.17.1-.3,0-.3-.17V95.42A.66.66,0,0,1,176,94.9Z"></path> <polygon class="cls-71" points="179.02 94.02 178.5 93.59 175.83 100.41 176.46 100.54 179.02 94.02"></polygon> <path class="cls-39" d="M176.64,95.26,178.79,94c.16-.09.29,0,.29.16v4.59a.64.64,0,0,1-.29.5l-2.15,1.24c-.16.09-.29,0-.29-.16V95.76A.66.66,0,0,1,176.64,95.26Z"></path> <polygon class="cls-69" points="175.93 102.6 179.16 100.73 179.16 99.75 175.93 101.62 175.93 102.6"></polygon> <polygon class="cls-73" points="193.79 91.89 197.03 90.02 197.03 89.05 193.79 90.92 193.79 91.89"></polygon> <polygon class="cls-73" points="175.59 102.42 178.83 100.55 178.83 99.57 175.59 101.44 175.59 102.42"></polygon> <polygon class="cls-44" points="175.93 101.62 175.52 101.39 178.76 99.52 179.16 99.75 175.93 101.62"></polygon> <polygon class="cls-62" points="175.93 101.62 175.52 101.39 175.52 102.37 175.93 102.6 175.93 101.62"></polygon> <polygon class="cls-43" points="146.59 90.87 146.59 61.28 145.89 60.88 145.89 91.28 155 96.54 155.33 95.92 146.59 90.87"></polygon> <polygon class="cls-74" points="178.08 73.65 178.69 77.06 167.59 83.47 166.98 79.88 178.08 73.65"></polygon> <polygon class="cls-74" points="189.54 70.8 179.84 76.4 179.24 73 186 69.21 189.41 70 189.54 70.8"></polygon> <polygon class="cls-39" points="146.59 90.87 145.89 91.28 155 96.54 155.33 95.92 146.59 90.87"></polygon> <polygon class="cls-59" points="154.55 98.99 143.5 92.61 143.5 93.3 154.55 99.68 154.55 98.99"></polygon> <polygon class="cls-60" points="154.55 98.99 156.3 97.98 156.3 98.67 154.55 99.68 154.55 98.99"></polygon> <polygon class="cls-38" points="154.55 98.99 156.3 97.98 145.25 91.6 143.5 92.61 154.55 98.99"></polygon> <path class="cls-72" d="M176.12,95l2.15-1.25a.18.18,0,0,1,.29.17V98.5a.62.62,0,0,1-.29.49l-2.15,1.25c-.16.09-.29,0-.29-.17V95.48A.62.62,0,0,1,176.12,95Z"></path> <polygon class="cls-75" points="146.59 61.28 146.59 61.9 158.6 68.97 158.6 88.05 154.74 95.58 155.33 95.92 159.46 88.12 159.46 68.71 146.59 61.28"></polygon> <polygon class="cls-48" points="179.16 91.58 172.83 83.87 179.63 91.82 179.16 91.58"></polygon> <polygon class="cls-39" points="191.68 87.72 192.39 88.13 180.31 95.1 180.31 94.29 191.68 87.72"></polygon> <polygon class="cls-39" points="191.68 93.24 192.39 93.64 180.31 100.61 180.31 99.8 191.68 93.24"></polygon> <polygon class="cls-76" points="176 61.9 176.45 64.44 174.58 62.72 176 61.9"></polygon> <path class="cls-76" d="M180.69,59.2v7.47c0,.73-.45,1.07-1,.75L178,65.84l-.81-4.6Z"></path> <polygon class="cls-68" points="176.45 64.44 174.58 62.72 176 61.9 176.45 64.44"></polygon> <path class="cls-68" d="M177.16,61.24l3.53-2v7.47c0,.73-.45,1.07-1,.75L178,65.84Z"></path> <polygon class="cls-65" points="162.4 61.47 99.25 24.96 99.69 24.7 162.55 61.47 162.4 61.47"></polygon> <polygon class="cls-25" points="162.55 61.32 99.4 24.81 99.84 24.55 162.99 61.07 162.55 61.32"></polygon> <polygon class="cls-65" points="162.55 61.32 162.55 61.47 162.99 61.21 162.99 61.07 162.55 61.32"></polygon> <polygon class="cls-41" points="162.55 61.47 99.4 24.96 99.4 24.81 162.55 61.32 162.55 61.47"></polygon> <polygon class="cls-65" points="165.31 59.79 102.15 23.28 102.6 23.02 165.46 59.79 165.31 59.79"></polygon> <polygon class="cls-25" points="165.46 59.65 102.31 23.13 102.75 22.88 165.9 59.39 165.46 59.65"></polygon> <polygon class="cls-65" points="165.46 59.65 165.46 59.79 165.9 59.53 165.9 59.39 165.46 59.65"></polygon> <polygon class="cls-41" points="165.46 59.79 102.31 23.28 102.31 23.13 165.46 59.65 165.46 59.79"></polygon> <polygon class="cls-65" points="168.21 58.11 105.06 21.6 105.5 21.34 168.36 58.11 168.21 58.11"></polygon> <polygon class="cls-25" points="168.36 57.97 105.21 21.45 105.66 21.2 168.81 57.71 168.36 57.97"></polygon> <polygon class="cls-65" points="168.36 57.97 168.36 58.11 168.81 57.86 168.81 57.71 168.36 57.97"></polygon> <polygon class="cls-41" points="168.36 58.11 105.21 21.6 105.21 21.45 168.36 57.97 168.36 58.11"></polygon> <polygon class="cls-65" points="171.12 56.43 107.97 19.92 108.41 19.67 171.27 56.43 171.12 56.43"></polygon> <polygon class="cls-25" points="171.27 56.29 108.12 19.78 108.56 19.52 171.71 56.03 171.27 56.29"></polygon> <polygon class="cls-65" points="171.27 56.29 171.27 56.43 171.71 56.18 171.71 56.03 171.27 56.29"></polygon> <polygon class="cls-41" points="171.27 56.43 108.12 19.92 108.12 19.78 171.27 56.29 171.27 56.43"></polygon> <polygon class="cls-65" points="174.02 54.76 110.87 18.24 111.31 17.99 174.18 54.76 174.02 54.76"></polygon> <polygon class="cls-25" points="174.18 54.61 111.03 18.1 111.47 17.84 174.62 54.36 174.18 54.61"></polygon> <polygon class="cls-65" points="174.18 54.61 174.18 54.76 174.62 54.5 174.62 54.36 174.18 54.61"></polygon> <polygon class="cls-41" points="174.18 54.76 111.03 18.24 111.03 18.1 174.18 54.61 174.18 54.76"></polygon> <polygon class="cls-65" points="176.93 53.08 113.78 16.57 114.22 16.31 177.08 53.08 176.93 53.08"></polygon> <polygon class="cls-25" points="177.08 52.93 113.93 16.42 114.37 16.17 177.53 52.68 177.08 52.93"></polygon> <polygon class="cls-65" points="177.08 52.93 177.08 53.08 177.53 52.82 177.53 52.68 177.08 52.93"></polygon> <polygon class="cls-41" points="177.08 53.08 113.93 16.57 113.93 16.42 177.08 52.93 177.08 53.08"></polygon> <polygon class="cls-65" points="179.84 51.4 116.68 14.89 117.13 14.63 179.99 51.4 179.84 51.4"></polygon> <polygon class="cls-25" points="179.99 51.26 116.84 14.74 117.28 14.49 180.43 51 179.99 51.26"></polygon> <polygon class="cls-65" points="179.99 51.26 179.99 51.4 180.43 51.15 180.43 51 179.99 51.26"></polygon> <polygon class="cls-41" points="179.99 51.4 116.84 14.89 116.84 14.74 179.99 51.26 179.99 51.4"></polygon> <polygon class="cls-65" points="182.74 49.72 119.59 13.21 120.03 12.96 182.9 49.72 182.74 49.72"></polygon> <polygon class="cls-25" points="182.9 49.58 119.74 13.07 120.19 12.81 183.34 49.32 182.9 49.58"></polygon> <polygon class="cls-65" points="182.9 49.58 182.9 49.72 183.34 49.47 183.34 49.32 182.9 49.58"></polygon> <polygon class="cls-41" points="182.9 49.72 119.74 13.21 119.74 13.07 182.9 49.58 182.9 49.72"></polygon> <polygon class="cls-65" points="168.55 58.71 167.51 58.11 168.34 57.62 169.15 58.71 168.55 58.71"></polygon> <polygon class="cls-69" points="169.15 58.71 169.97 58.22 169.97 57.81 169.15 58.3 169.15 58.71"></polygon> <polygon class="cls-44" points="169.15 58.3 168.1 57.7 168.93 57.21 169.97 57.81 169.15 58.3"></polygon> <polygon class="cls-62" points="169.15 58.3 168.1 57.7 168.1 58.11 169.15 58.71 169.15 58.3"></polygon> <polygon class="cls-65" points="172.67 56.26 171.63 55.66 172.45 55.17 173.26 56.26 172.67 56.26"></polygon> <polygon class="cls-69" points="173.26 56.26 174.09 55.77 174.09 55.36 173.26 55.85 173.26 56.26"></polygon> <polygon class="cls-44" points="173.26 55.85 172.22 55.25 173.04 54.76 174.09 55.36 173.26 55.85"></polygon> <polygon class="cls-62" points="173.26 55.85 172.22 55.25 172.22 55.66 173.26 56.26 173.26 55.85"></polygon> <polygon class="cls-65" points="176.79 53.81 175.75 53.21 176.57 52.72 177.38 53.81 176.79 53.81"></polygon> <polygon class="cls-69" points="177.38 53.81 178.2 53.32 178.2 52.91 177.38 53.4 177.38 53.81"></polygon> <polygon class="cls-44" points="177.38 53.4 176.34 52.8 177.16 52.31 178.2 52.91 177.38 53.4"></polygon> <polygon class="cls-62" points="177.38 53.4 176.34 52.8 176.34 53.21 177.38 53.81 177.38 53.4"></polygon> <polygon class="cls-41" points="174.79 83.03 180.19 79.91 179.14 78.63 173.74 81.74 174.79 83.03"></polygon> <polygon class="cls-41" points="182.33 78.64 187.73 75.53 186.68 74.24 181.28 77.36 182.33 78.64"></polygon> <path class="cls-59" d="M177.08,79a.23.23,0,0,0,.38,0,.39.39,0,0,0,0-.48.25.25,0,0,0-.39.05A.39.39,0,0,0,177.08,79Z"></path> <path class="cls-59" d="M177.1,79a.22.22,0,0,0,.34,0,.36.36,0,0,0,0-.42.21.21,0,0,0-.32,0l0,0A.35.35,0,0,0,177.1,79Z"></path> <path class="cls-59" d="M177.26,78.46l.25,0c.06,0,0,.45,0,.45a1,1,0,0,1-.26.1C177.16,79.07,177.26,78.46,177.26,78.46Z"></path> <path class="cls-77" d="M177.35,78.91a.17.17,0,0,0,.27,0,.27.27,0,0,0,0-.33.17.17,0,0,0-.27,0A.27.27,0,0,0,177.35,78.91Z"></path> <polygon class="cls-78" points="178.08 73.65 178.69 77.06 174.39 79.54 165.05 68.69 164.98 68.27 171.54 64.48 177.73 71.67 178.08 73.65"></polygon> <polygon class="cls-78" points="181.15 75.64 179.84 76.4 179.33 73.53 181.15 75.64"></polygon> <polygon class="cls-78" points="189.54 70.8 185.99 72.85 177.46 62.95 177.16 61.24 183.2 57.74 188.32 63.68 189.41 70 189.54 70.8"></polygon> <polygon class="cls-59" points="182.61 102.29 181.1 103.16 181.1 102.49 182.61 101.62 182.61 102.29"></polygon> <polygon class="cls-62" points="182.47 102.25 181.23 102.97 181.23 102.47 182.47 101.75 182.47 102.25"></polygon> <polygon class="cls-62" points="193.34 95.81 192.09 96.53 192.09 96.03 193.34 95.32 193.34 95.81"></polygon> <polygon class="cls-59" points="174.71 78.9 174.37 79.23 177.24 78.94 177.21 78.53 174.71 78.9"></polygon> <path class="cls-77" d="M177.45,77.71l-8.13,4.21-.08-.26,7.89-4.27Z"></path> <path class="cls-79" d="M136.35,69.87a2.37,2.37,0,0,1-1.18-.34l-13.28-7.67A6.09,6.09,0,0,1,119.3,57V49.37a2.52,2.52,0,0,1,1-2.31,1.93,1.93,0,0,1,2,.12l13.28,7.67a6.06,6.06,0,0,1,2.6,4.91v7.58a2.55,2.55,0,0,1-1.05,2.31A1.65,1.65,0,0,1,136.35,69.87Zm-.71-1.16a1.12,1.12,0,0,0,1.08.13,1.71,1.71,0,0,0,.58-1.5V59.76a5.23,5.23,0,0,0-2.13-4.1L121.89,48a1.1,1.1,0,0,0-1.07-.13,1.71,1.71,0,0,0-.58,1.5V57A5.21,5.21,0,0,0,122.36,61Z"></path> <path class="cls-80" d="M136.34,69.44a2.38,2.38,0,0,1-1.18-.35l-13.28-7.66a6.1,6.1,0,0,1-2.59-4.92V48.94a2.55,2.55,0,0,1,1-2.32,2,2,0,0,1,2,.13l13.28,7.66a6.1,6.1,0,0,1,2.59,4.92V66.9a2.55,2.55,0,0,1-1,2.32A1.65,1.65,0,0,1,136.34,69.44Zm-15.15-22.1a.75.75,0,0,0-.38.1,1.71,1.71,0,0,0-.58,1.5v7.57a5.22,5.22,0,0,0,2.13,4.1l13.28,7.67a1.07,1.07,0,0,0,1.07.12,1.71,1.71,0,0,0,.58-1.5V59.33a5.22,5.22,0,0,0-2.13-4.1l-13.28-7.67A1.44,1.44,0,0,0,121.19,47.34Z"></path> <path class="cls-79" d="M115.68,57.94a2.36,2.36,0,0,1-1.17-.34l-13.28-7.67A6.07,6.07,0,0,1,98.64,45V37.44a2.55,2.55,0,0,1,1-2.32,2,2,0,0,1,2,.13L115,42.92a6.08,6.08,0,0,1,2.59,4.91v7.58a2.53,2.53,0,0,1-1,2.31A1.65,1.65,0,0,1,115.68,57.94Zm-.7-1.16a1.08,1.08,0,0,0,1.07.12,1.67,1.67,0,0,0,.58-1.49V47.83a5.23,5.23,0,0,0-2.12-4.1l-13.28-7.66a1.1,1.1,0,0,0-1.07-.13,1.68,1.68,0,0,0-.58,1.5V45a5.21,5.21,0,0,0,2.12,4.09Z"></path> <path class="cls-80" d="M115.67,57.51a2.38,2.38,0,0,1-1.17-.35L101.22,49.5a6.1,6.1,0,0,1-2.59-4.92V37a2.55,2.55,0,0,1,1.05-2.32,2,2,0,0,1,2,.13L115,42.48a6.07,6.07,0,0,1,2.59,4.92V55a2.55,2.55,0,0,1-1,2.32A1.62,1.62,0,0,1,115.67,57.51Zm-15.15-22.1a.71.71,0,0,0-.37.1,1.71,1.71,0,0,0-.58,1.5v7.57a5.21,5.21,0,0,0,2.12,4.1L115,56.35a1.08,1.08,0,0,0,1.07.12,1.68,1.68,0,0,0,.58-1.5V47.4a5.21,5.21,0,0,0-2.12-4.1l-13.28-7.67A1.48,1.48,0,0,0,100.52,35.41Z"></path> <polygon class="cls-81" points="144.24 76.59 97.15 49.4 97.15 48.03 144.24 75.22 144.24 76.59"></polygon> <path class="cls-59" d="M187.86,72.77a.24.24,0,0,0,.39,0,.39.39,0,0,0,0-.48.25.25,0,0,0-.39.05A.4.4,0,0,0,187.86,72.77Z"></path> <path class="cls-59" d="M187.89,72.74a.22.22,0,0,0,.34,0,.36.36,0,0,0,0-.42.21.21,0,0,0-.32,0l0,0A.35.35,0,0,0,187.89,72.74Z"></path> <path class="cls-59" d="M188.05,72.21l.24,0c.06,0,0,.45,0,.45a1,1,0,0,1-.26.1C188,72.82,188.05,72.21,188.05,72.21Z"></path> <path class="cls-77" d="M188.14,72.66a.17.17,0,0,0,.27,0,.29.29,0,0,0,0-.33.16.16,0,0,0-.26,0A.27.27,0,0,0,188.14,72.66Z"></path> <polygon class="cls-59" points="185.5 72.65 185.16 72.98 188.03 72.69 188 72.28 185.5 72.65"></polygon> <path class="cls-77" d="M188.24,71.46l-8.13,4.21-.08-.26,7.89-4.27Z"></path> <polygon class="cls-66" points="188.31 78.49 192.71 83.98 179.7 91.5 172.83 83.87 179.63 91.81 193.07 84.06 188.31 78.49"></polygon> <path class="cls-66" d="M184.23,104.5l3.83-2.22a1.59,1.59,0,0,0,.68-1.29V98.8c0-.5-.3-.73-.68-.52l-3.83,2.22a1.61,1.61,0,0,0-.68,1.3V104C183.55,104.48,183.85,104.71,184.23,104.5Z"></path> <path class="cls-65" d="M189,98.89v2.19a1.61,1.61,0,0,1-.69,1.29l-3.83,2.21c-.38.22-.68,0-.68-.51v-2.19a1.6,1.6,0,0,1,.68-1.29l3.83-2.22C188.64,98.15,189,98.39,189,98.89Z"></path> <path class="cls-82" d="M189,98.89v.24l-5.2,3v-.25a1.6,1.6,0,0,1,.68-1.29l3.83-2.22C188.64,98.15,189,98.39,189,98.89Z"></path> <path class="cls-83" d="M94.86,61.47c0-.06,0-4.43,0-7l-1.28-.63-.26-.15.07-.35a2.7,2.7,0,0,1,1.83-1,.41.41,0,0,1,.35.43c0,.24,0,.69,0,1.27l.87.4a.88.88,0,0,0,1,0l.48-.31.38.6-.48.31a1.57,1.57,0,0,1-1.69,0l-.53-.25c0,2.64,0,6.66,0,6.72Zm-.58-8.11.57.28v-.59C94.68,53.13,94.46,53.25,94.28,53.36Z"></path> <path class="cls-83" d="M95.46,61.32a.55.55,0,0,0-.5,0,.15.15,0,0,0,0,.29.55.55,0,0,0,.5,0A.15.15,0,0,0,95.46,61.32Z"></path> <path class="cls-83" d="M97.81,54.26a.58.58,0,0,0,.26.43c.14.08.25,0,.25-.15a.58.58,0,0,0-.26-.43C97.92,54,97.81,54.1,97.81,54.26Z"></path> <polygon class="cls-19" points="20.95 55.72 12.85 50.95 23.11 45.37 25.32 55.95 20.95 55.72"></polygon> <polygon class="cls-20" points="35.58 35.69 35.58 50.37 25.32 55.95 25.32 41.27 35.58 35.69"></polygon> <polygon class="cls-21" points="25.32 41.27 25.32 55.95 17.22 51.18 17.22 36.5 25.32 41.27"></polygon> <polygon class="cls-22" points="25.32 41.27 17.22 36.5 27.48 30.92 35.58 35.69 25.32 41.27"></polygon> <polygon class="cls-19" points="38.04 62.06 28.12 56.23 41.43 48.99 42.09 62.06 38.04 62.06"></polygon> <polygon class="cls-20" points="55.4 49.92 55.4 54.82 42.09 62.06 42.09 57.16 55.4 49.92"></polygon> <polygon class="cls-21" points="42.09 57.16 42.09 62.06 32.18 56.23 32.18 51.33 42.09 57.16"></polygon> <polygon class="cls-22" points="42.09 57.16 32.18 51.33 45.49 44.09 55.4 49.92 42.09 57.16"></polygon> <polygon class="cls-19" points="17.82 73.27 6.55 66.65 15.74 61.65 22.43 73.27 17.82 73.27"></polygon> <polygon class="cls-20" points="31.62 62.7 31.62 68.27 22.43 73.27 22.43 67.7 31.62 62.7"></polygon> <polygon class="cls-21" points="22.43 67.7 22.43 73.27 11.16 66.65 11.16 61.08 22.43 67.7"></polygon> <polygon class="cls-22" points="22.43 67.7 11.16 61.08 20.36 56.08 31.62 62.7 22.43 67.7"></polygon> <polygon class="cls-19" points="185.1 147.69 173.84 141.06 183.03 136.06 189.71 147.69 185.1 147.69"></polygon> <polygon class="cls-20" points="198.9 137.12 198.9 142.69 189.71 147.69 189.71 142.12 198.9 137.12"></polygon> <polygon class="cls-21" points="189.71 142.12 189.71 147.69 178.45 141.06 178.45 135.49 189.71 142.12"></polygon> <polygon class="cls-22" points="189.71 142.12 178.45 135.5 187.64 130.49 198.9 137.12 189.71 142.12"></polygon> <polygon class="cls-19" points="74.24 101.3 63.58 95.03 89.17 81.11 78.85 101.3 74.24 101.3"></polygon> <polygon class="cls-20" points="104.44 80.88 104.44 87.38 78.85 101.3 78.85 94.8 104.44 80.88"></polygon> <polygon class="cls-21" points="78.85 94.8 78.85 101.3 68.19 95.03 68.19 88.53 78.85 94.8"></polygon> <polygon class="cls-22" points="78.85 94.8 68.19 88.53 93.78 74.61 104.44 80.88 78.85 94.8"></polygon> <polygon class="cls-19" points="103.13 113.39 88.58 104.84 107 94.81 106.92 113.43 103.13 113.39"></polygon> <polygon class="cls-20" points="120.98 89.44 120.98 105.78 106.92 113.43 106.92 97.08 120.98 89.44"></polygon> <polygon class="cls-21" points="106.92 97.08 106.92 113.43 92.37 104.88 92.37 88.53 106.92 97.08"></polygon> <polygon class="cls-22" points="106.92 97.09 92.37 88.53 106.43 80.88 120.98 89.44 106.92 97.09"></polygon> <polygon class="cls-19" points="136.24 131.75 112.86 118.25 127.96 109.55 140.85 132.09 136.24 131.75"></polygon> <polygon class="cls-20" points="155.95 104.73 155.95 123.39 140.85 132.09 140.85 113.44 155.95 104.73"></polygon> <polygon class="cls-21" points="140.85 113.44 140.85 132.09 117.47 118.59 117.47 99.94 140.85 113.44"></polygon> <polygon class="cls-22" points="140.86 113.44 117.47 99.94 132.57 91.23 155.96 104.73 140.86 113.44"></polygon> <polygon class="cls-19" points="154.02 143.28 143.35 137.01 168.95 123.09 158.63 143.13 154.02 143.28"></polygon> <polygon class="cls-20" points="180.23 124.88 180.23 131.38 158.63 143.13 158.63 136.63 180.23 124.88"></polygon> <polygon class="cls-21" points="158.63 136.63 158.63 143.13 147.97 136.86 147.97 130.36 158.63 136.63"></polygon> <polygon class="cls-22" points="158.63 136.63 147.97 130.36 169.56 118.61 180.23 124.88 158.63 136.63"></polygon> <polygon class="cls-19" points="131.09 155.31 113.9 145.21 123.09 140.21 135.7 155.31 131.09 155.31"></polygon> <polygon class="cls-20" points="144.89 138.93 144.89 150.32 135.7 155.31 135.7 143.93 144.89 138.93"></polygon> <polygon class="cls-21" points="135.7 143.93 135.7 155.31 118.51 145.21 118.51 133.83 135.7 143.93"></polygon> <polygon class="cls-22" points="135.7 143.93 118.51 133.83 127.7 128.82 144.89 138.93 135.7 143.93"></polygon> <polygon class="cls-19" points="72.88 124.84 45.74 108.88 58.61 101.87 77.49 124.84 72.88 124.84"></polygon> <polygon class="cls-20" points="90.36 110.21 90.36 117.83 77.49 124.84 77.49 117.22 90.36 110.21"></polygon> <polygon class="cls-21" points="77.49 117.22 77.49 124.84 50.35 108.88 50.35 101.26 77.49 117.22"></polygon> <polygon class="cls-22" points="77.49 117.22 50.35 101.26 63.22 94.26 90.36 110.21 77.49 117.22"></polygon> <polygon class="cls-19" points="56.42 140.37 38.5 129.83 52.53 122.2 61.03 140.71 56.42 140.37"></polygon> <polygon class="cls-20" points="75.06 124.77 75.06 133.07 61.03 140.71 61.03 132.4 75.06 124.77"></polygon> <polygon class="cls-21" points="61.03 132.4 61.03 140.71 43.11 130.17 43.11 121.86 61.03 132.4"></polygon> <polygon class="cls-22" points="61.03 132.4 43.11 121.86 57.14 114.23 75.07 124.77 61.03 132.4"></polygon> <polygon class="cls-19" points="95.13 144.86 81.79 137.02 98.67 127.83 99.74 145.04 95.13 144.86"></polygon> <polygon class="cls-20" points="116.62 116.85 116.62 135.85 99.74 145.04 99.74 126.04 116.62 116.85"></polygon> <polygon class="cls-21" points="99.74 126.04 99.74 145.04 86.4 137.2 86.4 118.2 99.74 126.04"></polygon> <polygon class="cls-22" points="99.74 126.04 86.4 118.2 103.28 109.01 116.63 116.85 99.74 126.04"></polygon> <path class="cls-84" d="M100.62,44.25l2.69-.86h0l-1.55-.86.13-.24L104,43.42l-.09.18-2.68.86h0l1.71.94-.13.24-2.24-1.23Z"></path> <path class="cls-84" d="M105.41,45.75l-1.19-.65-.44.8,1.33.73-.14.24-1.72-.95,1.22-2.22,1.66.92-.13.24-1.26-.7-.39.7,1.19.66Z"></path> <path class="cls-84" d="M106.69,45a6,6,0,0,1,.79.37,1.79,1.79,0,0,1,.78.67.52.52,0,0,1,0,.55.73.73,0,0,1-.88.25h0a.68.68,0,0,1,.2.69,3.79,3.79,0,0,0-.1.74l-.4-.22a2.64,2.64,0,0,1,.08-.65.61.61,0,0,0-.37-.76l-.38-.21-.53,1-.39-.22Zm-.16,1.22.41.23c.42.23.78.21.92,0s-.06-.57-.48-.81l-.4-.19Z"></path> <path class="cls-84" d="M110.09,48.34l-1.19-.66-.44.8,1.33.73-.13.24-1.73-1,1.23-2.21,1.65.91-.13.24-1.26-.7-.39.7,1.19.66Z"></path> <path class="cls-84" d="M113.29,50.1l-1.19-.66-.44.8L113,51l-.13.24-1.73-1,1.23-2.21L114,49l-.13.24-1.26-.69-.39.7,1.19.65Z"></path> <path class="cls-84" d="M115.05,52.42l-.12-.7c-.06-.28-.09-.46-.12-.64h0a5.69,5.69,0,0,1-.57.26l-.64.28-.45-.25,1.55-.61-.29-1.59.45.26.12.74c0,.21.06.37.08.53h0a3,3,0,0,1,.48-.22l.71-.29.45.25-1.52.56.32,1.66Z"></path> <path class="cls-84" d="M117.17,50.74a5.38,5.38,0,0,1,.78.38,1.75,1.75,0,0,1,.76.65.61.61,0,0,1,0,.61.65.65,0,0,1-.49.35,1.79,1.79,0,0,1-1.07-.28,1.5,1.5,0,0,1-.31-.19l-.49.89-.4-.22ZM117,52a2.41,2.41,0,0,0,.31.2c.48.26.86.26,1,0s0-.59-.48-.83a2.57,2.57,0,0,0-.39-.19Z"></path> <path class="cls-84" d="M119.59,52.08a6.59,6.59,0,0,1,.78.37,1.77,1.77,0,0,1,.79.67.57.57,0,0,1,0,.55.74.74,0,0,1-.89.25h0a.69.69,0,0,1,.21.69,3.12,3.12,0,0,0-.1.74l-.41-.22a2.26,2.26,0,0,1,.09-.64.63.63,0,0,0-.38-.77l-.37-.21-.53,1-.4-.22Zm-.16,1.22.4.23c.42.23.78.21.92,0s0-.57-.47-.81a2.53,2.53,0,0,0-.41-.18Z"></path> <path class="cls-84" d="M123,55.45l-1.19-.66-.44.8,1.32.73-.13.24-1.72-1,1.22-2.21,1.65.91-.13.24-1.26-.7-.38.7,1.19.66Z"></path> <path class="cls-84" d="M123.2,56.46a2,2,0,0,0,.63.54c.41.22.73.2.85,0s0-.42-.33-.76-.64-.76-.47-1.08.73-.38,1.33,0a2,2,0,0,1,.61.48l-.23.17a1.9,1.9,0,0,0-.53-.42c-.42-.23-.68-.14-.76,0s0,.41.37.76.61.76.43,1.09-.7.44-1.43,0a2.36,2.36,0,0,1-.7-.57Z"></path> <path class="cls-84" d="M125.44,57.7a2.15,2.15,0,0,0,.63.54c.41.22.73.2.85,0s0-.41-.33-.76-.64-.76-.47-1.07.73-.38,1.33-.06a2.16,2.16,0,0,1,.61.48l-.23.18a1.88,1.88,0,0,0-.53-.43c-.42-.23-.67-.14-.76,0s0,.41.38.76.6.76.42,1.08-.7.45-1.43.05a2.71,2.71,0,0,1-.7-.57Z"></path> <path class="cls-84" d="M130.69,61a2.7,2.7,0,0,1-.87-.34c-.86-.47-1.29-1.23-.89-2s1.29-.81,2.24-.28a2.65,2.65,0,0,1,.67.49l-.22.19a2.17,2.17,0,0,0-.57-.44c-.72-.39-1.38-.32-1.7.26s-.06,1.13.69,1.54a2.38,2.38,0,0,0,.69.26Z"></path> <path class="cls-84" d="M132,60.89l-.7.52-.41-.23,2.26-1.64.48.26-.18,2.79-.42-.23.06-.88Zm1.13.33.05-.81a3.4,3.4,0,0,1,.07-.49h0c-.12.1-.24.21-.38.31l-.65.48Z"></path> <path class="cls-84" d="M135.15,60.66a5.92,5.92,0,0,1,.78.37,1.77,1.77,0,0,1,.79.67.57.57,0,0,1,0,.55.74.74,0,0,1-.89.25h0a.69.69,0,0,1,.21.69,3.12,3.12,0,0,0-.1.74l-.41-.22a2.26,2.26,0,0,1,.09-.64.61.61,0,0,0-.38-.77l-.37-.21-.53,1-.39-.22ZM135,61.88l.4.23c.43.23.79.21.93,0s-.06-.57-.48-.8a1.83,1.83,0,0,0-.41-.19Z"></path> <path class="cls-84" d="M138.79,65.39a4.73,4.73,0,0,1-1-.4,2.26,2.26,0,0,1-1-.92,1.13,1.13,0,0,1,0-1.07c.36-.65,1.26-.79,2.28-.23a2.75,2.75,0,0,1,.71.53l-.22.18A2.61,2.61,0,0,0,139,63c-.74-.41-1.41-.34-1.72.21s0,1.15.69,1.55a2.16,2.16,0,0,0,.56.23l.36-.66-.62-.34.13-.24,1,.56Z"></path> <path class="cls-84" d="M142.58,66.13a1.41,1.41,0,0,1-2.06.38,1.38,1.38,0,0,1-.76-1.88,1.43,1.43,0,0,1,2.06-.38A1.37,1.37,0,0,1,142.58,66.13Zm-2.4-1.27a1.12,1.12,0,0,0,2,1,1.12,1.12,0,0,0-2-1Z"></path> </g> </g> </g> </svg> 