<?xml version="1.0" encoding="UTF-8"?> <svg xmlns="http://www.w3.org/2000/svg" viewBox="0 0 195.27 148.98"> <defs> <style>.cls-1{fill:#554d4e;}.cls-2{fill:#6772ff;}.cls-3{fill:#fdc43c;}</style> </defs> <title>Ресурс 10</title> <g id="Слой_2" data-name="Слой 2"> <g id="OBJECTS"> <path class="cls-1" d="M21.74,126.31l9.72-14.22V112H22.57v-1.9H34.4v1.38l-9.67,14.17v.08h9.8v1.89H21.74Z"></path> <path class="cls-1" d="M46.39,119.42H39.58v6.32h7.59v1.89H37.31V110.11h9.47V112h-7.2v5.54h6.81Z"></path> <path class="cls-1" d="M50.11,110.34a23.89,23.89,0,0,1,4.34-.36c2.42,0,4,.44,5.07,1.43a4.39,4.39,0,0,1,1.38,3.33,4.6,4.6,0,0,1-3.31,4.47v.08c1.36.47,2.16,1.71,2.58,3.53a27.79,27.79,0,0,0,1.35,4.81H59.18A21.93,21.93,0,0,1,58,123.45c-.52-2.42-1.46-3.33-3.51-3.41H52.37v7.59H50.11Zm2.26,8h2.31c2.42,0,4-1.33,4-3.33,0-2.26-1.63-3.25-4-3.28a9.42,9.42,0,0,0-2.23.21Z"></path> <path class="cls-1" d="M73.17,119.42H66.36v6.32H74v1.89H64.09V110.11h9.47V112h-7.2v5.54h6.81Z"></path> <path class="cls-1" d="M91.47,119.42H84.66v6.32h7.59v1.89H82.4V110.11h9.46V112h-7.2v5.54h6.81Z"></path> <path class="cls-1" d="M104.78,127.63l-2.23-3.87c-.91-1.48-1.49-2.44-2-3.46h0c-.5,1-1,2-1.9,3.49l-2.11,3.84h-2.6l5.36-8.86-5.15-8.66H96.7L99,114.22c.65,1.14,1.14,2,1.61,3h.08c.49-1,.94-1.84,1.59-3l2.39-4.11h2.6L102,118.64l5.46,9Z"></path> <path class="cls-1" d="M110,110.32a26.59,26.59,0,0,1,4.35-.34,7.18,7.18,0,0,1,4.91,1.46,4.7,4.7,0,0,1,1.53,3.66,5.14,5.14,0,0,1-1.35,3.75,7.25,7.25,0,0,1-5.35,1.92,7.75,7.75,0,0,1-1.82-.16v7H110Zm2.27,8.45a7.53,7.53,0,0,0,1.87.18c2.73,0,4.39-1.33,4.39-3.74s-1.64-3.44-4.13-3.44a9,9,0,0,0-2.13.19Z"></path> <path class="cls-1" d="M123.87,110.34a23.89,23.89,0,0,1,4.34-.36c2.42,0,4,.44,5.07,1.43a4.39,4.39,0,0,1,1.38,3.33,4.6,4.6,0,0,1-3.31,4.47v.08c1.36.47,2.16,1.71,2.58,3.53a27.79,27.79,0,0,0,1.35,4.81h-2.34a21.93,21.93,0,0,1-1.17-4.18c-.52-2.42-1.46-3.33-3.51-3.41h-2.13v7.59h-2.26Zm2.26,8h2.31c2.42,0,4-1.33,4-3.33,0-2.26-1.64-3.25-4-3.28a9.42,9.42,0,0,0-2.23.21Z"></path> <path class="cls-1" d="M146.93,119.42h-6.81v6.32h7.59v1.89h-9.86V110.11h9.47V112h-7.2v5.54h6.81Z"></path> <path class="cls-1" d="M150.33,124.88a8.09,8.09,0,0,0,4.06,1.14c2.31,0,3.67-1.22,3.67-3s-.94-2.57-3.31-3.48c-2.86-1-4.62-2.5-4.62-5,0-2.73,2.26-4.76,5.66-4.76a8,8,0,0,1,3.88.86l-.63,1.85a7,7,0,0,0-3.32-.83c-2.4,0-3.31,1.43-3.31,2.62,0,1.64,1.07,2.45,3.49,3.38,3,1.15,4.47,2.58,4.47,5.15s-2,5-6.14,5a9.11,9.11,0,0,1-4.47-1.11Z"></path> <path class="cls-1" d="M163.15,124.88a8.09,8.09,0,0,0,4.06,1.14c2.31,0,3.66-1.22,3.66-3s-.93-2.57-3.3-3.48c-2.86-1-4.63-2.5-4.63-5,0-2.73,2.27-4.76,5.67-4.76a8,8,0,0,1,3.88.86l-.63,1.85a7,7,0,0,0-3.33-.83c-2.39,0-3.3,1.43-3.3,2.62,0,1.64,1.07,2.45,3.49,3.38,3,1.15,4.47,2.58,4.47,5.15s-2,5-6.14,5a9.11,9.11,0,0,1-4.47-1.11Z"></path> <path class="cls-2" d="M71.41,148.45a6.82,6.82,0,0,1-2.85.51c-3,0-5.33-1.92-5.33-5.46a5.37,5.37,0,0,1,5.64-5.66,5.83,5.83,0,0,1,2.56.48l-.34,1.13a5.17,5.17,0,0,0-2.17-.44c-2.53,0-4.21,1.61-4.21,4.45,0,2.64,1.52,4.33,4.14,4.33a5.59,5.59,0,0,0,2.27-.44Z"></path> <path class="cls-2" d="M79.12,145.41,78,148.8H76.56L80.23,138h1.68l3.68,10.79H84.1L83,145.41Zm3.54-1.09-1.06-3.1c-.24-.71-.4-1.35-.56-2h0q-.24,1-.54,1.95l-1.06,3.12Z"></path> <path class="cls-2" d="M91.33,138.16a13.9,13.9,0,0,1,2.67-.23,4.39,4.39,0,0,1,3.12.89,2.64,2.64,0,0,1,.85,2,2.83,2.83,0,0,1-2,2.76v0a2.69,2.69,0,0,1,1.58,2.18,16.77,16.77,0,0,0,.84,3H96.92a13.72,13.72,0,0,1-.73-2.57c-.31-1.49-.89-2-2.16-2.1H92.72v4.67H91.33Zm1.39,4.91h1.43c1.49,0,2.43-.81,2.43-2,0-1.39-1-2-2.48-2a6.19,6.19,0,0,0-1.38.12Z"></path> <path class="cls-2" d="M112.36,148.32a10,10,0,0,1-3.32.59,5.07,5.07,0,0,1-5.54-5.44c0-3.21,2.23-5.57,5.85-5.57a6.58,6.58,0,0,1,2.69.5l-.34,1.13a5.73,5.73,0,0,0-2.39-.46,4,4,0,0,0-4.33,4.34c0,2.74,1.65,4.35,4.16,4.35a4.56,4.56,0,0,0,1.86-.29v-3.21h-2.2v-1.12h3.56Z"></path> <path class="cls-2" d="M127.86,143.3c0,3.71-2.26,5.68-5,5.68S118,146.77,118,143.5s2.13-5.66,5-5.66S127.86,140.1,127.86,143.3Zm-8.37.17c0,2.31,1.25,4.37,3.44,4.37s3.46-2,3.46-4.48c0-2.14-1.12-4.39-3.44-4.39S119.49,141.1,119.49,143.47Z"></path> <path class="cls-1" d="M194.3,63.67H179.91a1,1,0,0,0-1,1v4.58a1,1,0,0,0,1,1H194.3a1,1,0,0,0,1-1V64.63A1,1,0,0,0,194.3,63.67Z"></path> <path class="cls-1" d="M103.8,66.57c-6.31,0-11.43,8.31-11.43,18.55,0,7.43,2.69,13.84,6.58,16.79a25.21,25.21,0,0,1-3.69-13.73c0-10.35,5.17-18.74,11.55-18.74A7.83,7.83,0,0,1,111,70.72C109,68.13,106.53,66.57,103.8,66.57Z"></path> <path class="cls-3" d="M76.84,86,10.06,62.72,76.31,96.3h16A32.17,32.17,0,0,1,90.39,86Z"></path> <path class="cls-1" d="M193.21,75.52c0-1.19-.06-2.34-.17-3.44H179.71a2.86,2.86,0,0,1-2.87-2.87V64.63a2.86,2.86,0,0,1,2.87-2.86h9.52a8.41,8.41,0,0,0-6.53-3.07h-6.63V37.11L158.6,29.76H154l-7.36-16.53-8-.26c-1.13-3.56-3-8.68-7.92-9.06S106.36,0,106.36,0L79.55,1.42V5L94,3.74,114.66,5,94.13,4.8,79.55,7V84.18H90.67V84c0-10.87,5.85-19.68,13.07-19.68S116.82,73.12,116.82,84a29.1,29.1,0,0,1-.26,3.89l6.7,8.42,67-2.5,4-6.31v-10H139.92ZM158.84,32.67l14.64,5.66V75H140.89V36.47ZM145.63,14.4l6.54,15.36-15.64,3.53L126,33.18l-7.07-19.07ZM113.19,14l7,19.08-3.22,0L109.92,14ZM98.6,31.44v-16a1.49,1.49,0,0,1,1.51-1.49l7.52.08,7,19.09-14.58-.15A1.48,1.48,0,0,1,98.6,31.44Zm1.27,6.28h35.58v9.49C121.48,38.13,99.87,37.72,99.87,37.72Zm39.54,31.5a1.92,1.92,0,0,1-1.91,1.91H123.1a1.92,1.92,0,0,1-1.91-1.91V64.63a1.92,1.92,0,0,1,1.91-1.91h14.4a1.92,1.92,0,0,1,1.91,1.91Z"></path> <path class="cls-3" d="M0,25.35a41,41,0,0,1,4.31-.23c23,0,42.65,19.06,51,46.19L23.36,63.19,76.84,83.93V1.46ZM72.76,76.81l-1.53-67L20.16,22.92l52.6-15.3Z"></path> </g> </g> </svg> 